<?xml version="1.0" standalone="no"?>
<!DOCTYPE svg PUBLIC "-//W3C//DTD SVG 20010904//EN"
 "http://www.w3.org/TR/2001/REC-SVG-20010904/DTD/svg10.dtd">
<svg version="1.0" xmlns="http://www.w3.org/2000/svg"
 width="492px" height="640px" viewBox="0 0 35424.000000 46080.000000"
 preserveAspectRatio="xMidYMid meet">
<metadata>
Created by potrace 1.15, written by Peter Selinger 2001-2017
</metadata>
<g transform="translate(0.000000,46080.000000) scale(72.000000,-72.000000)"
fill="#000000" stroke="none">
<path d="M399 509 c0 0 -3 0 -7 0 -7 -1 -22 -3 -37 -6 -5 0 -13 -2 -18 -3 -5
0 -13 -2 -17 -2 -4 -1 -10 -2 -12 -3 -2 0 -9 -1 -15 -3 -16 -3 -27 -6 -35 -8
-4 0 -9 -2 -11 -2 -2 -1 -5 -1 -6 -1 -1 0 -4 0 -5 -1 -8 -2 -29 -7 -29 -6 -1
0 -1 3 -2 7 0 3 -1 6 -2 7 0 1 -1 3 -2 5 0 1 -2 3 -4 4 -3 2 -5 3 -20 3 -13 0
-16 -1 -20 -2 -3 -2 -4 -3 -5 -7 -1 -3 -1 -6 0 -7 0 -1 1 -5 1 -8 l0 -7 -4 -1
c-2 0 -5 -1 -7 -1 -10 -2 -38 -13 -45 -18 -21 -13 -21 -13 -22 -23 0 -4 0 -8
0 -9 0 -4 1 -10 1 -20 1 -6 2 -17 2 -23 1 -8 1 -14 0 -16 -1 -2 -1 -5 0 -7 0
-3 1 -10 0 -17 0 -37 -1 -66 -2 -78 -2 -20 -2 -23 -2 -43 -2 -32 -2 -72 -1
-83 1 -7 1 -11 0 -11 -2 -2 -11 -4 -28 -6 -9 -1 -21 -3 -27 -4 -7 0 -13 -1
-15 -1 -3 0 -3 0 -3 -4 0 -5 0 -5 9 -3 5 1 16 2 42 5 8 1 15 2 20 5 2 0 2 0 1
-11 0 -6 0 -13 0 -14 0 -2 0 -10 0 -18 0 -8 0 -20 -1 -28 l0 -13 4 -2 c8 -5 8
-5 37 -10 8 -1 14 -1 39 0 16 0 36 0 44 0 17 1 31 2 39 4 3 0 8 1 10 2 3 0 8
2 13 3 5 2 11 4 14 4 7 2 7 3 7 6 0 3 0 4 2 4 1 0 2 0 2 1 1 0 1 12 2 26 0 13
0 27 1 30 0 3 0 10 0 15 l0 10 41 0 c23 0 42 0 43 0 0 1 5 1 11 1 6 1 17 2 25
2 7 1 24 3 37 4 12 0 28 2 35 2 6 1 12 1 13 0 2 0 2 1 2 4 l0 4 -13 0 c-7 -1
-14 -1 -15 -2 -2 0 -15 -1 -28 -1 -14 -1 -32 -3 -39 -3 -22 -3 -30 -3 -70 -3
-20 0 -38 0 -40 0 l-2 0 0 64 c0 35 0 63 0 64 -1 0 -1 10 -1 21 -1 11 -1 22
-2 24 0 1 0 8 -1 15 -1 7 -2 17 -3 22 -4 26 -6 48 -9 73 0 6 0 6 2 5 5 -4 16
-14 18 -16 4 -4 21 -18 30 -25 4 -3 14 -9 22 -14 11 -7 21 -13 40 -26 7 -4 27
-10 38 -10 4 -1 5 2 2 5 -1 2 -3 5 -6 8 -2 3 -9 10 -14 16 -6 5 -10 10 -9 10
1 0 15 -7 19 -10 3 -3 6 -2 7 1 0 2 -6 12 -14 20 -5 6 -9 11 -8 12 1 0 14 -2
16 -3 0 0 3 -1 5 -2 10 -4 9 5 -3 17 -2 3 -7 9 -10 12 -4 4 -9 9 -12 11 -3 3
-5 5 -5 5 0 0 7 1 16 0 18 0 19 0 18 6 -1 5 -7 12 -16 20 -8 7 -12 9 -26 15
-5 1 -8 3 -8 3 0 2 27 16 40 21 11 4 17 9 17 13 0 1 -1 2 -2 3 -2 1 -26 2 -27
1z m18 -7 c0 0 -1 -1 -1 -1 -1 -1 -6 -3 -12 -5 -12 -5 -30 -14 -37 -19 -3 -3
-4 -4 -4 -6 0 -4 2 -5 16 -10 6 -2 12 -4 14 -5 5 -3 22 -20 21 -21 0 -1 -7 -1
-16 -1 -21 0 -22 -1 -22 -4 0 -2 1 -4 9 -9 9 -7 10 -8 18 -17 2 -3 6 -7 8 -9
4 -5 3 -5 -7 -2 -9 1 -12 1 -14 -1 -2 -1 -2 -5 1 -8 0 -1 2 -3 3 -5 0 -2 4 -6
6 -9 3 -3 4 -5 3 -4 -1 0 -3 1 -5 2 -17 8 -21 3 -9 -10 3 -4 7 -8 7 -8 1 0 2
-2 4 -3 1 -2 5 -6 7 -9 3 -3 5 -5 5 -6 -1 0 -6 1 -12 2 -11 3 -19 7 -34 18 -5
3 -12 7 -17 10 -5 3 -11 6 -13 8 -1 1 -3 2 -4 2 0 0 -1 1 -2 1 0 1 -4 4 -8 6
-4 3 -8 6 -8 6 0 0 -4 4 -8 8 -5 3 -10 8 -12 10 -10 10 -31 27 -34 27 0 0 -15
11 -21 16 -1 1 -5 4 -8 7 -4 3 -10 7 -12 9 -3 1 -7 4 -8 5 l-2 3 14 2 c8 2 23
5 33 7 19 3 39 7 46 9 5 1 15 3 32 5 6 1 17 3 26 5 8 1 19 3 24 3 10 2 33 2
33 1z m-224 -10 c1 0 2 -1 1 -1 -1 -3 -8 -4 -20 -5 -12 0 -13 0 -14 2 -1 1 -1
2 0 3 2 1 30 2 33 1z m6 -14 c0 -5 0 -6 -1 -4 -1 1 -7 1 -8 0 -1 -2 1 -5 4 -5
5 -2 5 -3 3 -13 -1 -6 -2 -9 -3 -10 -3 -2 -18 -2 -25 -1 -7 1 -7 2 -8 5 0 2
-1 9 -1 16 l-1 13 9 0 c15 0 19 1 28 4 3 1 3 1 3 -5z m-45 -23 c1 -16 1 -16
28 -17 20 0 20 0 21 10 0 4 1 9 2 11 l1 4 3 -2 c1 -2 5 -5 9 -7 34 -25 37 -28
36 -29 -1 0 -2 -1 -3 -1 0 0 -2 -1 -4 -2 -8 -4 -30 -6 -63 -7 -9 -1 -19 -1
-23 -2 -9 0 -42 0 -43 0 0 1 -4 1 -9 1 -10 1 -19 3 -22 5 -5 2 -5 12 -1 16 2
2 17 12 22 14 9 5 29 12 44 15 0 0 1 -4 2 -9z m108 -47 c1 -7 1 -14 2 -17 0
-3 0 -4 -2 -3 -1 0 -4 -1 -7 -2 -14 -7 -15 -7 -33 -12 -32 -8 -54 -11 -70 -9
-8 1 -18 2 -46 4 -14 1 -20 3 -20 8 -1 7 -3 35 -3 35 0 0 4 -1 8 -1 4 -1 9 -2
13 -2 30 -3 39 -3 45 -3 4 1 19 2 33 2 14 1 30 1 36 2 l11 0 -1 -2 c-1 -1 -2
-3 -3 -4 -1 0 -3 -2 -3 -3 -1 -3 -1 -3 0 -5 2 -1 2 -2 1 -5 0 -4 0 -5 0 -6 3
-2 7 0 7 3 0 3 2 3 5 1 4 -2 6 0 5 4 -1 1 -1 2 1 3 1 1 2 2 2 3 0 3 -3 4 -5 3
-3 -2 -5 0 -3 3 1 1 1 3 0 4 0 2 0 3 4 3 4 1 12 4 18 8 1 0 3 1 3 0 0 0 1 -6
2 -12z m-61 -59 c13 -1 27 -5 36 -9 7 -3 17 -11 19 -15 5 -9 -2 -28 -14 -37
-12 -9 -24 -14 -44 -19 -12 -2 -14 -2 -34 -2 -19 0 -22 0 -29 2 -9 2 -17 6
-21 9 -4 3 -10 13 -12 20 -2 5 -2 7 -1 14 1 8 3 13 6 16 5 6 37 17 60 21 9 1
23 1 34 0z m76 -107 c0 -9 -1 -129 -2 -148 l0 -12 -5 -2 c-3 -1 -6 -2 -7 -2
-1 0 -5 -1 -8 -1 -4 -1 -11 -3 -16 -3 -5 -1 -11 -3 -13 -3 -8 -2 -43 -4 -63
-4 -29 1 -70 4 -77 7 l-5 2 0 14 c0 8 0 22 0 31 0 62 0 76 0 96 1 12 1 22 2
22 0 0 2 0 4 -1 3 -1 10 -3 17 -4 7 -1 16 -3 20 -3 8 -2 45 -1 52 0 2 1 6 1
10 1 7 0 45 5 48 6 1 0 6 1 10 2 7 1 15 4 16 5 1 0 3 1 6 2 2 1 4 1 4 2 0 1 2
2 5 2 0 0 1 -3 2 -9z"/>
<path d="M176 471 c-4 -2 -3 -9 1 -9 1 0 3 2 4 3 1 3 1 3 0 5 -2 2 -3 2 -5 1z"/>
<path d="M99 404 c-1 0 -2 -3 -3 -5 0 -4 -1 -5 -4 -5 -4 0 -6 -3 -3 -6 1 -2 2
-3 1 -4 -1 -3 1 -6 3 -6 1 1 2 0 3 -1 1 -1 2 -2 3 -2 2 0 2 1 2 4 0 3 0 4 1 3
2 -2 6 -1 6 1 1 1 0 2 -2 4 -2 3 -3 4 -3 9 0 8 -1 10 -4 8z"/>
<path d="M171 402 c-1 -2 -1 -4 -2 -6 0 -2 0 -2 -2 -1 -3 1 -5 1 -7 -1 -2 -1
-2 -1 0 -3 3 -2 3 -3 1 -5 -1 -3 0 -5 3 -5 1 1 3 0 4 0 2 -1 2 -1 4 0 1 1 3 2
4 2 6 0 6 5 1 7 l-3 1 2 5 c2 6 1 8 -2 8 -2 0 -3 -1 -3 -2z"/>
<path d="M196 392 c0 -2 -2 -3 -2 -3 -1 0 -2 -1 -2 -3 -1 -3 2 -8 5 -8 2 0 8
5 8 6 0 1 1 2 2 3 2 2 1 5 -2 5 -1 0 -2 0 -2 1 -2 2 -6 1 -7 -1z"/>
<path d="M131 391 c-1 -1 -2 -2 -2 -3 0 0 -1 -1 -1 -1 -3 0 -5 -3 -4 -5 0 0 1
-1 3 -2 1 0 2 -1 2 -2 0 -3 2 -3 7 -3 3 1 4 2 5 4 1 1 1 2 0 3 0 1 -1 3 0 5 0
3 0 4 -3 5 -4 1 -5 1 -7 -1z"/>
<path d="M194 345 c-6 -1 -9 -4 -10 -8 -2 -6 -3 -13 -2 -15 2 -2 5 -1 6 2 2 3
2 3 8 3 5 0 5 0 5 -2 -1 -2 0 -4 0 -5 2 -1 2 -1 4 1 3 2 4 11 3 16 -2 7 -2 8
-9 10 -1 0 -3 -1 -5 -2z m7 -6 c3 -4 -1 -6 -8 -4 -3 1 -2 3 2 4 2 0 4 1 4 1 0
0 1 -1 2 -1z"/>
<path d="M156 340 l-3 -2 0 -7 c1 -7 2 -11 4 -12 3 -2 10 -1 12 1 2 2 2 3 1 5
-1 1 -2 1 -4 1 -3 -1 -4 0 -1 2 1 1 2 2 2 4 0 1 0 1 -2 1 -4 0 -4 1 1 3 3 1 4
2 4 4 0 2 -1 2 -5 2 -4 0 -7 -1 -9 -2z"/>
<path d="M215 336 c-2 -1 -2 -4 -3 -9 0 -8 1 -11 4 -11 2 0 3 3 2 7 -1 6 1 5
6 -1 2 -3 4 -5 5 -5 2 0 4 3 6 10 3 8 3 10 -1 10 -2 0 -3 -1 -3 -5 -1 -2 -2
-4 -2 -5 -1 0 -2 2 -3 4 -3 4 -7 7 -9 7 0 0 -1 -1 -2 -2z"/>
<path d="M135 334 c-2 -2 -2 -16 -1 -19 2 -3 5 -4 11 -3 6 2 8 4 7 6 -1 2 -2
2 -6 2 l-5 0 -1 7 c0 5 0 8 -1 8 -2 1 -3 1 -4 -1z"/>
<path d="M112 329 c-1 -2 -4 -5 -5 -8 -2 -4 -2 -6 -1 -9 2 -7 6 -9 16 -5 7 2
8 3 8 5 0 3 -4 4 -8 2 -5 -2 -10 -3 -10 0 -1 2 2 8 4 9 2 0 4 1 6 2 2 0 3 1 3
3 0 2 -1 3 -5 3 -4 0 -5 0 -8 -2z"/>
<path d="M214 307 c-2 0 -5 0 -6 0 -4 0 -5 -2 -5 -14 1 -12 1 -14 7 -14 5 0 9
4 9 7 0 1 -1 1 -5 1 -3 0 -4 0 -4 1 0 1 2 2 3 2 2 0 6 5 5 7 0 1 -2 1 -4 1 -5
-1 -4 1 2 2 5 1 9 5 8 7 -1 1 -6 1 -10 0z"/>
<path d="M180 304 c-3 -2 -3 -2 -2 -8 0 -3 1 -8 1 -10 2 -4 2 -4 6 -4 7 0 11
4 11 12 0 4 -1 7 -6 10 -3 3 -6 2 -10 0z m9 -8 c2 -3 2 -6 -1 -7 -2 -1 -3 1
-3 6 0 5 1 5 4 1z"/>
<path d="M129 299 c-6 -3 -5 -16 2 -20 3 -2 10 -1 11 0 2 2 1 4 -1 4 -3 0 -8
3 -9 6 -1 2 -1 3 1 4 1 1 2 2 3 2 1 0 2 1 1 3 0 2 -4 2 -8 1z"/>
<path d="M152 298 c-2 -1 -2 -2 -2 -7 1 -8 4 -11 9 -11 7 0 13 9 10 13 -1 1
-2 2 -2 3 0 4 -11 5 -15 2z m10 -6 c2 -2 1 -5 -2 -5 -2 0 -4 3 -4 6 0 1 5 0 6
-1z"/>
<path d="M251 235 c-2 -3 -1 -9 1 -10 1 -2 3 -2 5 -2 5 1 5 3 1 3 -4 1 -4 3 0
5 4 1 3 3 -1 2 -2 0 -2 0 -2 1 1 0 2 1 4 1 1 0 2 0 2 1 0 1 -2 1 -4 1 -4 0 -5
0 -6 -2z"/>
<path d="M242 233 c-1 0 -1 -1 -1 -3 0 -1 -1 -2 -2 -2 -2 0 -3 1 -3 2 -1 0 -2
1 -2 1 -3 0 -2 -5 0 -8 l2 -2 1 2 c0 3 3 3 5 2 3 -3 3 -2 3 3 0 5 -2 7 -3 5z"/>
<path d="M218 228 c-1 -1 1 -3 3 -2 1 1 2 0 3 -3 0 -2 1 -4 2 -4 1 0 1 1 1 4
-1 4 -1 4 1 4 1 0 2 1 2 1 -1 2 -11 2 -12 0z"/>
<path d="M93 226 c-2 -5 -3 -11 -2 -12 1 -2 3 -1 3 2 0 2 1 3 3 3 4 1 6 1 5 2
0 1 -1 1 -3 1 -4 0 -4 2 0 3 2 0 3 1 3 1 0 2 -9 1 -9 0z"/>
<path d="M210 226 c-1 0 -1 -1 -1 -3 0 -3 -1 -3 -4 0 -3 3 -5 2 -5 -2 1 -4 3
-5 5 -3 1 0 2 0 3 0 3 -2 5 -1 5 2 0 6 -1 8 -3 6z"/>
<path d="M107 224 c-1 -3 -1 -9 -1 -10 2 -1 3 1 4 7 0 4 0 5 -1 5 -1 0 -2 -1
-2 -2z"/>
<path d="M167 225 c-1 0 -1 -2 -1 -5 0 -6 2 -8 6 -7 2 1 2 1 1 2 -3 2 -2 3 0
3 3 1 2 3 -1 3 -4 0 -3 2 1 2 2 0 3 0 5 -3 4 -6 6 -6 7 0 2 5 1 7 -2 3 l-2 -2
-1 2 c-1 3 -2 3 -7 3 -3 0 -6 0 -6 -1z"/>
<path d="M190 225 c-1 0 -1 -2 -1 -6 0 -4 1 -4 3 -4 2 0 4 0 4 1 0 0 -1 1 -1
1 -3 0 -2 1 0 3 1 1 2 2 2 4 0 1 0 2 -2 2 -2 0 -4 0 -5 -1z"/>
<path d="M113 221 c-2 -6 1 -11 7 -8 1 1 3 1 5 2 1 0 3 0 4 1 1 0 2 0 2 -1 -1
0 0 -1 0 -2 2 -2 3 0 3 6 1 6 -2 8 -3 3 0 -3 -3 -4 -3 -1 -1 3 -3 4 -4 1 0 -2
-1 -3 -4 -3 -4 0 -5 1 -3 3 2 0 1 3 -1 3 0 0 -2 -2 -3 -4z m4 -5 c1 -1 1 -1 0
0 -1 1 -2 1 -2 2 0 0 1 0 2 -2z"/>
<path d="M137 223 c-1 -1 0 -3 2 -3 1 0 1 -1 1 -4 -1 -3 0 -4 1 -4 0 0 1 1 2
3 0 4 2 7 3 7 1 0 1 0 1 1 0 1 -9 1 -10 0z"/>
<path d="M150 223 c-1 -1 0 -4 2 -5 3 0 2 -2 -2 -3 -2 0 -3 -1 -3 -2 0 -1 3
-1 7 0 4 1 5 4 2 6 -1 2 -1 2 0 3 0 0 1 1 1 1 0 1 -7 1 -7 0z"/>
<path d="M257 216 c-1 0 -1 -2 -1 -5 0 -5 1 -6 6 -4 5 1 5 3 1 3 -3 0 -3 0 -3
3 0 3 -2 5 -3 3z"/>
<path d="M247 214 c0 -2 0 -12 1 -13 1 0 8 2 8 3 0 1 -1 1 -2 1 -1 0 -2 1 -2
3 -1 1 -1 3 -2 5 0 2 -2 3 -3 1z"/>
<path d="M235 211 c-1 -2 -2 -8 -1 -11 1 -2 2 -2 4 -2 4 1 5 3 2 3 -3 0 -3 2
0 4 3 1 3 3 0 3 -2 0 -2 0 -1 1 1 1 2 2 2 2 0 2 -5 1 -6 0z"/>
<path d="M217 209 c-2 -1 -2 -2 -2 -6 0 -3 1 -5 1 -6 2 -1 3 0 3 4 0 5 2 5 2
1 1 -3 3 -4 4 0 l1 3 2 -4 c2 -5 3 -4 2 2 0 5 -1 7 -4 7 0 0 -1 -1 -1 -1 -1
-1 -1 -1 -2 0 -2 1 -3 1 -6 0z"/>
<path d="M95 207 c-2 -1 0 -3 3 -3 2 0 2 0 1 -6 0 -7 1 -8 2 -1 1 6 4 9 4 4 0
-7 4 -9 8 -5 2 2 2 3 2 5 -1 2 -1 3 -2 4 -1 1 -17 3 -18 2z m16 -6 c1 -3 -1
-5 -2 -3 -1 1 0 5 1 5 0 0 1 -1 1 -2z"/>
<path d="M182 207 c-3 -1 -4 -3 -1 -3 2 0 2 -1 2 -4 -1 -4 2 -5 3 -1 1 5 1 6
3 6 1 0 2 1 2 1 -1 2 -5 2 -9 1z"/>
<path d="M206 207 c-3 -1 -2 -5 0 -6 1 -1 2 -2 2 -2 0 -1 -1 -1 -2 -1 -1 0 -2
-1 -2 -1 0 -3 4 -2 6 0 2 2 2 4 -1 6 -2 1 -2 1 0 3 2 2 2 2 1 2 -2 0 -3 -1 -4
-1z"/>
<path d="M117 206 c-1 -2 -1 -8 0 -11 1 -3 5 -3 6 0 2 3 3 9 1 9 -1 1 -2 -1
-2 -4 0 -1 -1 -3 -2 -3 -1 0 -1 1 -1 4 1 5 0 7 -2 5z"/>
<path d="M159 205 c-2 -1 -2 -3 -2 -6 -1 -6 1 -8 5 -7 3 1 3 3 0 3 -3 0 -2 3
1 4 3 0 3 2 0 2 -2 1 -2 1 0 2 2 1 3 2 3 2 0 1 -5 1 -7 0z"/>
<path d="M130 200 c0 -6 1 -8 3 -8 3 0 6 3 6 6 0 2 -1 2 -3 2 -2 0 -3 1 -3 2
0 2 0 3 -1 3 -2 0 -2 -1 -2 -5z m6 -4 c-1 -1 -2 -1 -2 -1 -1 0 -1 0 0 1 0 1 1
1 1 1 1 0 1 0 1 -1z"/>
<path d="M149 203 c0 -1 -1 -3 -2 -3 -1 0 -2 0 -1 1 0 2 -1 3 -3 2 -1 -1 -3
-9 -2 -10 0 -2 2 -1 2 0 0 2 3 4 4 4 1 0 1 -1 1 -2 0 -1 1 -2 1 -2 2 0 4 11 3
12 -1 1 -3 0 -3 -2z"/>
<path d="M169 203 c-1 -1 -1 -1 0 -3 2 -2 2 -3 1 -3 -1 0 -2 0 -2 -1 0 -2 2
-2 4 -1 3 1 4 4 2 6 -1 1 -1 1 0 2 1 2 1 2 -1 2 -2 0 -3 -1 -4 -2z"/>
<path d="M265 174 c-2 -3 -3 -5 -1 -6 1 -1 0 -2 0 -4 -1 -1 -2 -3 -1 -3 1 -1
-2 -1 -4 0 -2 1 -2 2 -2 6 0 6 -2 8 -5 4 -3 -3 -3 -9 0 -12 3 -3 8 -4 10 -2 1
1 1 1 1 0 0 -2 4 -5 7 -5 3 0 5 2 5 4 0 2 -1 2 -3 2 -4 0 -4 1 -1 6 1 2 2 5 2
7 0 5 -4 7 -8 3z"/>
<path d="M238 172 c-4 -2 -5 -4 -5 -10 -1 -4 -1 -5 1 -6 2 -3 4 -2 6 1 2 3 3
2 4 -1 1 -1 1 -1 3 0 4 2 2 14 -3 16 -2 2 -3 2 -6 0z m4 -6 c0 -1 0 -1 -1 -1
-1 0 -1 0 0 1 0 1 0 1 1 1 0 0 0 0 0 -1z"/>
<path d="M208 170 c-1 -1 -2 -4 -2 -5 0 -2 0 -2 -3 -1 -2 0 -3 0 -3 -1 0 -2
-2 -1 -2 2 0 2 -1 3 -3 3 -4 0 -4 -1 -2 -8 1 -6 4 -10 7 -10 2 0 5 4 5 6 0 2
1 1 2 -1 3 -6 3 -7 8 -5 2 2 3 3 2 4 0 1 0 2 -1 3 0 0 1 1 1 2 2 2 2 2 2 -2 1
-5 3 -7 6 -6 0 0 1 1 1 2 0 1 1 3 3 3 3 3 3 5 -1 6 -3 0 -4 2 -1 4 2 1 3 4 0
4 -2 1 -6 1 -8 0 -1 -1 -2 0 -3 1 -3 2 -7 1 -8 -1z"/>
<path d="M179 165 c-3 -3 -3 -4 1 -7 l3 -2 -2 0 c-3 -1 -4 -3 -2 -5 2 -1 6 -1
9 2 3 3 3 5 -1 8 -2 1 -2 1 -1 2 3 3 2 5 -1 5 -3 0 -4 -1 -6 -3z"/>
<path d="M141 166 c-4 -2 -4 -3 -1 -6 2 -2 3 -4 3 -7 0 -3 1 -4 2 -5 3 -1 4 1
4 7 0 4 0 6 2 7 0 1 1 2 1 3 0 2 -1 2 -5 2 -2 0 -5 -1 -6 -1z"/>
<path d="M155 165 c-1 -2 1 -14 3 -16 1 -1 1 -1 3 0 1 1 1 2 1 7 0 9 -1 10 -4
10 -2 0 -3 0 -3 -1z"/>
<path d="M92 164 c-3 -2 -5 -6 -7 -13 -1 -5 -1 -6 1 -7 3 -3 6 2 6 8 0 2 0 2
2 1 1 0 3 0 4 0 1 0 2 -1 2 -2 0 -5 6 -4 6 1 l0 4 2 -5 c2 -4 4 -6 7 -6 2 0 8
12 7 14 -1 2 -4 1 -6 -2 l-2 -3 -1 3 c-1 5 -2 5 -5 4 -2 -1 -3 -1 -4 1 -1 2
-2 2 -4 2 -2 -1 -4 -1 -5 0 -1 0 -2 0 -3 0z"/>
<path d="M126 164 c-1 0 -1 -4 -1 -7 0 -7 0 -8 2 -10 4 -4 12 -2 12 3 0 2 -1
3 -3 3 -3 0 -4 1 -4 5 0 2 0 4 0 5 -1 2 -5 3 -6 1z"/>
<path d="M166 161 c-1 -2 2 -4 5 -4 2 0 3 1 3 3 0 2 0 2 -3 2 -2 0 -4 0 -5 -1z"/>
<path d="M144 142 c0 0 -13 0 -28 0 -24 0 -28 0 -28 -2 -1 -2 -1 -7 0 -8 1 0
11 0 22 -1 12 0 25 0 30 -1 6 -1 14 -1 25 0 19 0 22 0 60 0 31 -1 31 -1 31 6
l0 5 -35 0 c-20 0 -43 0 -52 1 -17 1 -24 1 -25 0z"/>
</g>
</svg>
