<?xml version="1.0" encoding="UTF-8" standalone="no"?>
<svg
   xmlns:dc="http://purl.org/dc/elements/1.1/"
   xmlns:cc="http://creativecommons.org/ns#"
   xmlns:rdf="http://www.w3.org/1999/02/22-rdf-syntax-ns#"
   xmlns:svg="http://www.w3.org/2000/svg"
   xmlns="http://www.w3.org/2000/svg"
   xmlns:sodipodi="http://sodipodi.sourceforge.net/DTD/sodipodi-0.dtd"
   xmlns:inkscape="http://www.inkscape.org/namespaces/inkscape"
   version="1.0"
   width="492px"
   height="640px"
   viewBox="0 0 35424.000000 46080.000000"
   preserveAspectRatio="xMidYMid meet"
   id="svg102"
   sodipodi:docname="cleanercode.svg"
   inkscape:version="0.92.2 5c3e80d, 2017-08-06">
  <defs
     id="defs106" />
  <sodipodi:namedview
     pagecolor="#ffffff"
     bordercolor="#666666"
     borderopacity="1"
     objecttolerance="10"
     gridtolerance="10"
     guidetolerance="10"
     inkscape:pageopacity="0"
     inkscape:pageshadow="2"
     inkscape:window-width="1569"
     inkscape:window-height="1066"
     id="namedview104"
     showgrid="false"
     inkscape:zoom="2.95"
     inkscape:cx="123.9661"
     inkscape:cy="197.9661"
     inkscape:window-x="0"
     inkscape:window-y="0"
     inkscape:window-maximized="0"
     inkscape:current-layer="g100" />
  <metadata
     id="metadata2">
Created by potrace 1.15, written by Peter Selinger 2001-2017
<rdf:RDF>
  <cc:Work
     rdf:about="">
    <dc:format>image/svg+xml</dc:format>
    <dc:type
       rdf:resource="http://purl.org/dc/dcmitype/StillImage" />
  </cc:Work>
</rdf:RDF>
</metadata>
  <g
     transform="translate(0.000000,46080.000000) scale(72.000000,-72.000000)"
     fill="#000000"
     stroke="none"
     id="g100">
    <path
       id="path4"
       transform="matrix(1,0,0,-1,0,640)"
       d="M 403.35938,130.59375 C 400.9375,130.625 399.25,130.75 399,131 h -7 c -7,1 -22,3 -37,6 -5,0 -13,2 -18,3 -5,0 -13,2 -17,2 -4,1 -10,2 -12,3 -2,0 -9,1 -15,3 -16,3 -27,6 -35,8 -4,0 -9,2 -11,2 -2,1 -5,1 -6,1 -1,0 -4,0 -5,1 -8,2 -29,7 -29,6 -1,0 -1,-3 -2,-7 0,-3 -1,-6 -2,-7 0,-1 -1,-3 -2,-5 0,-1 -2,-3 -4,-4 -3,-2 -5,-3 -20,-3 -13,0 -16,1 -20,2 -3,2 -4,3 -5,7 -1,3 -1,6 0,7 0,1 1,5 1,8 v 7 l -4,1 c -2,0 -5,1 -7,1 -10,2 -38,13 -45,18 -21,13 -21,13 -22,23 v 9 c 0,4 1,10 1,20 1,6 2,17 2,23 1,8 1,14 0,16 -1,2 -1,5 0,7 0,3 1,10 0,17 0,37 -1,66 -2,78 -2,20 -2,23 -2,43 -2,32 -2,72 -1,83 0.519883,3.63918 0.762861,6.44527 0.742188,8.32227 0.07657,0.40497 0.132684,0.83448 0.148437,1.30859 0.01987,0.59806 0.0451,1.23374 -0.002,1.79297 -0.06344,0.5694 0.01921,0.0913 -0.197266,-0.43555 -0.04347,-0.1058 -0.13352,-0.29373 -0.214844,-0.46484 -0.02854,0.0738 -0.06071,0.13483 -0.09375,0.1914 0.458054,1.5322 0.887957,1.60909 0.375,3.21094 -0.0056,0.0966 -0.0031,0.19524 -0.0293,0.28711 -0.192869,0.67699 -0.645349,1.61665 -1.185547,2.375 7e-6,0.37252 -7.3e-5,0.74467 0,1.11719 -8e-6,0.0221 1.1e-5,0.0443 0,0.0664 0.107606,0.56103 -0.08593,1.01726 -0.449219,1.37891 C 72.940509,529.62078 72.763309,531.6036 72,540 v 14 18 c 0,8 0,20 -1,28 v 13 l 4,2 c 8,5 8,5 37,10 8,1 14,1 39,0 h 44 c 17,-1 31,-2 39,-4 3,0 8,-1 10,-2 3,0 8,-2 13,-3 5,-2 11,-4 14,-4 7,-2 7,-3 7,-6 0,-3 0,-4 2,-4 1,0 2,0 2,-1 1,0 1,-12 2,-26 0,-13 0,-27 1,-30 v -15 -10 h 0.43359 c -10e-4,-0.14643 -0.01,-0.24859 -0.01,-0.42969 0,-0.009 -10e-6,-0.0182 0,-0.0273 -4.2e-4,-9e-5 -1.2e-4,-0.7726 0,-1.32422 4.5e-4,-0.35203 -1.4e-4,-0.70461 0,-1.05664 3e-5,-0.0892 1.9e-4,-0.17843 0,-0.26758 0,-0.0843 -0.0843,-0.25719 0,-0.25391 -2e-4,-0.0364 2.6e-4,-0.0729 0,-0.10937 -3e-5,0 1e-5,-0.1141 0,-0.13867 -8e-5,-0.13461 0,-0.49075 0,-0.75977 v -0.58398 c -0.18375,-0.003 -0.19983,-0.0223 0,-0.0586 0,-0.13946 -10e-6,-0.32617 0,-0.32617 0.0186,-5.5e-4 0.0361,5.3e-4 0.0547,0 0.0147,-0.21395 0.0183,-0.34804 -0.0312,-0.0449 -8.8e-4,-0.0691 -0.005,-0.14391 -0.006,-0.2168 -0.007,-8.3e-4 -0.0104,-8e-4 -0.0176,-0.002 -0.13982,-0.0164 -0.0281,-0.25823 -0.01,-0.41601 -0.014,-0.073 -0.0253,-0.14548 -0.0176,-0.22071 -0.0255,-0.0912 -0.0525,-0.18218 -0.0762,-0.27148 -0.10319,-0.30788 -0.14579,-0.59151 -0.10156,-0.83203 -0.24719,-0.34251 -0.36069,-0.68207 -0.21875,-1.02735 V 448 384 c -1,0 -1,-10 -1,-21 -1,-11 -1,-22 -2,-24 0,-1 0,-8 -1,-15 -1,-7 -2,-17 -3,-22 -4,-26 -6,-48 -9,-73 0,-6 0,-6 2,-5 5,4 16,14 18,16 4,4 21,18 30,25 4,3 14,9 22,14 11,7 21,13 40,26 7,4 27,10 38,10 4,1 5,-2 2,-5 -1,-2 -3,-5 -6,-8 -2,-3 -9,-10 -14,-16 -6,-5 -10,-10 -9,-10 1,0 15,7 19,10 3,3 6,2 7,-1 0,-2 -6,-12 -14,-20 -5,-6 -9,-11 -8,-12 1,0 14,2 16,3 0,0 3,1 5,2 10,4 9,-5 -3,-17 -2,-3 -7,-9 -10,-12 -4,-4 -9,-9 -12,-11 l -5,-5 c 0,0 7,-1 16,0 18,0 19,0 18,-6 -1,-5 -7,-12 -16,-20 -8,-7 -12,-9 -26,-15 -5,-1 -8,-3 -8,-3 0,-2 27,-16 40,-21 11,-4 17,-9 17,-13 0,-1 -1,-2 -2,-3 -1.5,-0.75 -15.375,-1.5 -22.64062,-1.40625 z m 2.82226,6.75586 c 1.05095,-0.009 2.06152,-0.009 3.01367,0 C 413.76562,137.39062 417,137.625 417,138 l -1,1 c -1,1 -6,3 -12,5 -12,5 -30,14 -37,19 -3,3 -4,4 -4,6 0,4 2,5 16,10 6,2 12,4 14,5 5,3 22,20 21,21 0,1 -7,1 -16,1 -21,0 -22,1 -22,4 0,2 1,4 9,9 9,7 10,8 18,17 2,3 6,7 8,9 4,5 3,5 -7,2 -9,-1 -12,-1 -14,1 -2,1 -2,5 1,8 0,1 2,3 3,5 0,2 4,6 6,9 3,3 4,5 3,4 -1,0 -3,-1 -5,-2 -17,-8 -21,-3 -9,10 3,4 7,8 7,8 1,0 2,2 4,3 1,2 5,6 7,9 3,3 5,5 5,6 -1,0 -6,-1 -12,-2 -11,-3 -19,-7 -34,-18 -5,-3 -12,-7 -17,-10 -5,-3 -11,-6 -13,-8 -1,-1 -3,-2 -4,-2 0,0 -1,-1 -2,-1 0,-1 -4,-4 -8,-6 l -8,-6 -8,-8 c -5,-3 -10,-8 -12,-10 -10,-10 -31,-27 -34,-27 0,0 -15,-11 -21,-16 -1,-1 -5,-4 -8,-7 -4,-3 -10,-7 -12,-9 -3,-1 -7,-4 -8,-5 l -2,-3 14,-2 c 8,-2 23,-5 33,-7 19,-3 39,-7 46,-9 5,-1 15,-3 32,-5 6,-1 17,-3 26,-5 8,-1 19,-3 24,-3 5.46875,-1.09375 14.825,-1.58937 22.18164,-1.65039 z M 186.85938,147.59375 C 189.9375,147.625 192.25,147.75 193,148 c 1,0 2,1 1,1 -1,3 -8,4 -20,5 -12,0 -13,0 -14,-2 -1,-1 -1,-2 0,-3 1.5,-0.75 17.625,-1.5 26.85938,-1.40625 z m 11.16601,8.91406 C 199.00024,156.58569 199,157.875 199,162 c 0,5 0,6 -1,4 -1,-1 -7,-1 -8,0 -1,2 1,5 4,5 5,2 5,3 3,13 -1,6 -2,9 -3,10 -3,2 -18,2 -25,1 -7,-1 -7,-2 -8,-5 0,-2 -1,-9 -1,-16 l -1,-13 h 9 c 15,0 19,-1 28,-4 0.9375,-0.3125 1.58228,-0.52759 2.02539,-0.49219 z M 152,176 c 0,0 1,4 2,9 1,16 1,16 28,17 20,0 20,0 21,-10 0,-4 1,-9 2,-11 l 1,-4 3,2 c 1,2 5,5 9,7 34,25 37,28 36,29 -1,0 -2,1 -3,1 l -4,2 c -8,4 -30,6 -63,7 -9,1 -19,1 -23,2 h -43 c 0,-1 -4,-1 -9,-1 -10,-1 -19,-3 -22,-5 -5,-2 -5,-12 -1,-16 2,-2 17,-12 22,-14 9,-5 29,-12 44,-15 z m 107.31445,43.56055 C 259.71875,219.53125 260,219.625 260,220 l 2,12 c 1,7 1,14 2,17 0,3 0,4 -2,3 -1,0 -4,1 -7,2 -14,7 -15,7 -33,12 -32,8 -54,11 -70,9 -8,-1 -18,-2 -46,-4 -14,-1 -20,-3 -20,-8 -1,-7 -3,-35 -3,-35 0,0 4,1 8,1 4,1 9,2 13,2 30,3 39,3 45,3 4,-1 19,-2 33,-2 14,-1 30,-1 36,-2 h 11 l -1,2 c -1,1 -2,3 -3,4 -1,0 -3,2 -3,3 -1,3 -1,3 0,5 2,1 2,2 1,5 v 6 c 3,2 7,0 7,-3 0,-3 2,-3 5,-1 4,2 6,0 5,-4 -1,-1 -1,-2 1,-3 1,-1 2,-2 2,-3 0,-3 -3,-4 -5,-3 -3,2 -5,0 -3,-3 1,-1 1,-3 0,-4 0,-2 0,-3 4,-3 4,-1 12,-4 18,-8 0.625,0 1.64062,-0.39062 2.31445,-0.43945 z M 183.25,290.25 c 6,0 12.25,0.25 17.75,0.75 13,1 27,5 36,9 7,3 17,11 19,15 5,9 -2,28 -14,37 -12,9 -24,14 -44,19 -12,2 -14,2 -34,2 -19,0 -22,0 -29,-2 -9,-2 -17,-6 -21,-9 -4,-3 -10,-13 -12,-20 -2,-5 -2,-7 -1,-14 1,-8 3,-13 6,-16 5,-6 37,-17 60,-21 4.5,-0.5 10.25,-0.75 16.25,-0.75 z M 275,389 c 0,0 1,3 2,9 0,9 -1,129 -2,148 v 12 l -5,2 c -3,1 -6,2 -7,2 -1,0 -5,1 -8,1 -4,1 -11,3 -16,3 -5,1 -11,3 -13,3 -8,2 -43,4 -63,4 -29,-1 -70,-4 -77,-7 l -5,-2 v -14 -31 -96 c 1,-12 1,-22 2,-22 0,0 2,0 4,1 3,1 10,3 17,4 7,1 16,3 20,3 8,2 45,1 52,0 2,-1 6,-1 10,-1 7,0 45,-5 48,-6 1,0 6,-1 10,-2 7,-1 15,-4 16,-5 1,0 3,-1 6,-2 2,-1 4,-1 4,-2 0,-1 2,-2 5,-2 z m 140.98438,118.6875 c -0.078,0.007 -0.16043,0.0146 -0.23829,0.0215 0.28644,0.20052 0.57048,0.40496 0.86524,0.5918 0.0598,0.0379 -0.0663,-0.12506 -0.0996,-0.1875 -0.2517,-0.2062 -0.34652,-0.27917 -0.52734,-0.42578 z M 285.83203,512 c -0.005,0.0899 -0.0114,0.17855 -0.0137,0.27344 0.0282,0.0389 0.055,0.11681 0.082,0.1914 0.0553,-0.13326 0.11088,-0.26096 0.16602,-0.39257 -0.003,-0.0242 -0.007,-0.0481 -0.01,-0.0723 z m 91.42578,0.5625 c -0.004,0.007 -0.009,0.0148 -0.0137,0.0215 0.0838,0.0822 0.15683,0.176 0.24805,0.25 0.0608,0.0494 0.18404,-0.0768 0.32812,-0.26953 -0.18753,-10e-4 -0.37499,-2e-4 -0.5625,-0.002 z m 2.95117,1.68945 c -0.006,0.002 -0.0131,0.006 -0.0195,0.008 0.0109,-5.6e-4 0.0203,-8.8e-4 0.0312,-0.002 -0.004,-0.002 -0.008,-0.004 -0.0117,-0.006 z m -36.20117,1.10547 c -0.18628,-0.0381 -0.71233,0.26502 -0.53125,0.20703 0.18901,-0.0605 0.37456,-0.13175 0.56055,-0.20117 -0.012,-0.002 -0.0172,-0.003 -0.0293,-0.006 z m -57.58398,0.12696 c 0.009,0.0328 0.0217,0.0851 0.0293,0.11328 0.0559,0.0745 0.11524,0.14597 0.18165,0.20312 -0.0712,-0.0331 -0.12785,-0.10201 -0.17774,-0.18555 0.0345,0.12881 0.058,0.21159 0.13672,0.52344 0.0156,0.018 0.0466,0.0624 0.0645,0.084 0.0392,-0.0724 0.079,-0.14462 0.12305,-0.21485 -0.0363,-0.0522 -0.0908,-0.13358 -0.13672,-0.20117 -10e-4,-10e-4 -0.002,-0.003 -0.004,-0.004 -0.073,-0.10736 -0.14124,-0.20871 -0.21679,-0.31835 z m 0.58203,0.95117 c -9.6e-4,0.005 -0.003,0.0104 -0.004,0.0156 0.0301,0.013 0.0434,0.007 0.0391,-0.0156 -0.0117,-2.2e-4 -0.0235,2.4e-4 -0.0352,0 z m -0.63086,0.21289 c 0.003,0.0133 0.007,0.0259 0.01,0.0391 0.0213,9.7e-4 0.0393,0.003 0.0605,0.004 0.004,-0.0112 0.009,-0.0221 0.0137,-0.0332 -0.029,-0.004 -0.0547,-0.006 -0.084,-0.01 z m -213.017578,5.31445 c 0.0037,0.0704 -0.0081,0.13131 -0.07422,0.1582 -0.0699,0.0284 -0.142589,0.0489 -0.212891,0.0762 0.311946,0.41583 0.547916,0.84 0.644532,1.24609 0.02387,-0.55004 -0.33964,-0.89228 -0.644532,-1.24609 z M 6.7558594,531.6875 c -0.00905,9.3e-4 -0.018317,0.003 -0.027344,0.004 -0.029654,0.19556 -0.05781,0.38919 -0.087891,0.58398 0.032627,0.19867 0.058503,0.39142 0.091797,0.5918 0.019598,0.004 0.039104,0.006 0.058594,0.01 0.00308,-0.0548 0.00324,-0.097 0.00586,-0.15039 -0.00213,-0.30115 -0.020181,-0.66621 -0.041016,-1.03906 z"
       inkscape:connector-curvature="0"
       sodipodi:nodetypes="ccccccccccsccccccscccscccccsccscccccccccccccccccccsccccccccccssccccccscccccccsccccccccccccccccscccscccccccscccccccsccccccccsccccccsccscccsscccccccccccccccccsscccccscccccccccccccscccccssscccccscccsssccccccccccscccccscccccccccssccccccccccccccscccsccccccscccscscsccccscccccscccccccccccsccsccccscccccccccccccccccccccccccccccccccccccccccccccccccccccccccccccccc" />
    <path
       d="M176 471 c-4 -2 -3 -9 1 -9 1 0 3 2 4 3 1 3 1 3 0 5 -2 2 -3 2 -5 1z"
       id="path6" />
    <path
       d="M99 404 c-1 0 -2 -3 -3 -5 0 -4 -1 -5 -4 -5 -4 0 -6 -3 -3 -6 1 -2 2 -3 1 -4 -1 -3 1 -6 3 -6 1 1 2 0 3 -1 1 -1 2 -2 3 -2 2 0 2 1 2 4 0 3 0 4 1 3 2 -2 6 -1 6 1 1 1 0 2 -2 4 -2 3 -3 4 -3 9 0 8 -1 10 -4 8z"
       id="path8" />
    <path
       d="M171 402 c-1 -2 -1 -4 -2 -6 0 -2 0 -2 -2 -1 -3 1 -5 1 -7 -1 -2 -1 -2 -1 0 -3 3 -2 3 -3 1 -5 -1 -3 0 -5 3 -5 1 1 3 0 4 0 2 -1 2 -1 4 0 1 1 3 2 4 2 6 0 6 5 1 7 l-3 1 2 5 c2 6 1 8 -2 8 -2 0 -3 -1 -3 -2z"
       id="path10" />
    <path
       d="M196 392 c0 -2 -2 -3 -2 -3 -1 0 -2 -1 -2 -3 -1 -3 2 -8 5 -8 2 0 8 5 8 6 0 1 1 2 2 3 2 2 1 5 -2 5 -1 0 -2 0 -2 1 -2 2 -6 1 -7 -1z"
       id="path12" />
    <path
       d="M131 391 c-1 -1 -2 -2 -2 -3 0 0 -1 -1 -1 -1 -3 0 -5 -3 -4 -5 0 0 1 -1 3 -2 1 0 2 -1 2 -2 0 -3 2 -3 7 -3 3 1 4 2 5 4 1 1 1 2 0 3 0 1 -1 3 0 5 0 3 0 4 -3 5 -4 1 -5 1 -7 -1z"
       id="path14" />
    <path
       d="M194 345 c-6 -1 -9 -4 -10 -8 -2 -6 -3 -13 -2 -15 2 -2 5 -1 6 2 2 3 2 3 8 3 5 0 5 0 5 -2 -1 -2 0 -4 0 -5 2 -1 2 -1 4 1 3 2 4 11 3 16 -2 7 -2 8 -9 10 -1 0 -3 -1 -5 -2z m7 -6 c3 -4 -1 -6 -8 -4 -3 1 -2 3 2 4 2 0 4 1 4 1 0 0 1 -1 2 -1z"
       id="path16" />
    <path
       d="M156 340 l-3 -2 0 -7 c1 -7 2 -11 4 -12 3 -2 10 -1 12 1 2 2 2 3 1 5 -1 1 -2 1 -4 1 -3 -1 -4 0 -1 2 1 1 2 2 2 4 0 1 0 1 -2 1 -4 0 -4 1 1 3 3 1 4 2 4 4 0 2 -1 2 -5 2 -4 0 -7 -1 -9 -2z"
       id="path18" />
    <path
       d="M215 336 c-2 -1 -2 -4 -3 -9 0 -8 1 -11 4 -11 2 0 3 3 2 7 -1 6 1 5 6 -1 2 -3 4 -5 5 -5 2 0 4 3 6 10 3 8 3 10 -1 10 -2 0 -3 -1 -3 -5 -1 -2 -2 -4 -2 -5 -1 0 -2 2 -3 4 -3 4 -7 7 -9 7 0 0 -1 -1 -2 -2z"
       id="path20" />
    <path
       d="M135 334 c-2 -2 -2 -16 -1 -19 2 -3 5 -4 11 -3 6 2 8 4 7 6 -1 2 -2 2 -6 2 l-5 0 -1 7 c0 5 0 8 -1 8 -2 1 -3 1 -4 -1z"
       id="path22" />
    <path
       d="M112 329 c-1 -2 -4 -5 -5 -8 -2 -4 -2 -6 -1 -9 2 -7 6 -9 16 -5 7 2 8 3 8 5 0 3 -4 4 -8 2 -5 -2 -10 -3 -10 0 -1 2 2 8 4 9 2 0 4 1 6 2 2 0 3 1 3 3 0 2 -1 3 -5 3 -4 0 -5 0 -8 -2z"
       id="path24" />
    <path
       d="M214 307 c-2 0 -5 0 -6 0 -4 0 -5 -2 -5 -14 1 -12 1 -14 7 -14 5 0 9 4 9 7 0 1 -1 1 -5 1 -3 0 -4 0 -4 1 0 1 2 2 3 2 2 0 6 5 5 7 0 1 -2 1 -4 1 -5 -1 -4 1 2 2 5 1 9 5 8 7 -1 1 -6 1 -10 0z"
       id="path26" />
    <path
       d="M180 304 c-3 -2 -3 -2 -2 -8 0 -3 1 -8 1 -10 2 -4 2 -4 6 -4 7 0 11 4 11 12 0 4 -1 7 -6 10 -3 3 -6 2 -10 0z m9 -8 c2 -3 2 -6 -1 -7 -2 -1 -3 1 -3 6 0 5 1 5 4 1z"
       id="path28" />
    <path
       d="M129 299 c-6 -3 -5 -16 2 -20 3 -2 10 -1 11 0 2 2 1 4 -1 4 -3 0 -8 3 -9 6 -1 2 -1 3 1 4 1 1 2 2 3 2 1 0 2 1 1 3 0 2 -4 2 -8 1z"
       id="path30" />
    <path
       d="M152 298 c-2 -1 -2 -2 -2 -7 1 -8 4 -11 9 -11 7 0 13 9 10 13 -1 1 -2 2 -2 3 0 4 -11 5 -15 2z m10 -6 c2 -2 1 -5 -2 -5 -2 0 -4 3 -4 6 0 1 5 0 6 -1z"
       id="path32" />
    <path
       d="M251 235 c-2 -3 -1 -9 1 -10 1 -2 3 -2 5 -2 5 1 5 3 1 3 -4 1 -4 3 0 5 4 1 3 3 -1 2 -2 0 -2 0 -2 1 1 0 2 1 4 1 1 0 2 0 2 1 0 1 -2 1 -4 1 -4 0 -5 0 -6 -2z"
       id="path34" />
    <path
       d="M242 233 c-1 0 -1 -1 -1 -3 0 -1 -1 -2 -2 -2 -2 0 -3 1 -3 2 -1 0 -2 1 -2 1 -3 0 -2 -5 0 -8 l2 -2 1 2 c0 3 3 3 5 2 3 -3 3 -2 3 3 0 5 -2 7 -3 5z"
       id="path36" />
    <path
       d="M218 228 c-1 -1 1 -3 3 -2 1 1 2 0 3 -3 0 -2 1 -4 2 -4 1 0 1 1 1 4 -1 4 -1 4 1 4 1 0 2 1 2 1 -1 2 -11 2 -12 0z"
       id="path38" />
    <path
       d="M93 226 c-2 -5 -3 -11 -2 -12 1 -2 3 -1 3 2 0 2 1 3 3 3 4 1 6 1 5 2 0 1 -1 1 -3 1 -4 0 -4 2 0 3 2 0 3 1 3 1 0 2 -9 1 -9 0z"
       id="path40" />
    <path
       d="M210 226 c-1 0 -1 -1 -1 -3 0 -3 -1 -3 -4 0 -3 3 -5 2 -5 -2 1 -4 3 -5 5 -3 1 0 2 0 3 0 3 -2 5 -1 5 2 0 6 -1 8 -3 6z"
       id="path42" />
    <path
       d="M107 224 c-1 -3 -1 -9 -1 -10 2 -1 3 1 4 7 0 4 0 5 -1 5 -1 0 -2 -1 -2 -2z"
       id="path44" />
    <path
       d="M167 225 c-1 0 -1 -2 -1 -5 0 -6 2 -8 6 -7 2 1 2 1 1 2 -3 2 -2 3 0 3 3 1 2 3 -1 3 -4 0 -3 2 1 2 2 0 3 0 5 -3 4 -6 6 -6 7 0 2 5 1 7 -2 3 l-2 -2 -1 2 c-1 3 -2 3 -7 3 -3 0 -6 0 -6 -1z"
       id="path46" />
    <path
       d="M190 225 c-1 0 -1 -2 -1 -6 0 -4 1 -4 3 -4 2 0 4 0 4 1 0 0 -1 1 -1 1 -3 0 -2 1 0 3 1 1 2 2 2 4 0 1 0 2 -2 2 -2 0 -4 0 -5 -1z"
       id="path48" />
    <path
       d="M113 221 c-2 -6 1 -11 7 -8 1 1 3 1 5 2 1 0 3 0 4 1 1 0 2 0 2 -1 -1 0 0 -1 0 -2 2 -2 3 0 3 6 1 6 -2 8 -3 3 0 -3 -3 -4 -3 -1 -1 3 -3 4 -4 1 0 -2 -1 -3 -4 -3 -4 0 -5 1 -3 3 2 0 1 3 -1 3 0 0 -2 -2 -3 -4z m4 -5 c1 -1 1 -1 0 0 -1 1 -2 1 -2 2 0 0 1 0 2 -2z"
       id="path50" />
    <path
       d="M137 223 c-1 -1 0 -3 2 -3 1 0 1 -1 1 -4 -1 -3 0 -4 1 -4 0 0 1 1 2 3 0 4 2 7 3 7 1 0 1 0 1 1 0 1 -9 1 -10 0z"
       id="path52" />
    <path
       d="M150 223 c-1 -1 0 -4 2 -5 3 0 2 -2 -2 -3 -2 0 -3 -1 -3 -2 0 -1 3 -1 7 0 4 1 5 4 2 6 -1 2 -1 2 0 3 0 0 1 1 1 1 0 1 -7 1 -7 0z"
       id="path54" />
    <path
       d="M257 216 c-1 0 -1 -2 -1 -5 0 -5 1 -6 6 -4 5 1 5 3 1 3 -3 0 -3 0 -3 3 0 3 -2 5 -3 3z"
       id="path56" />
    <path
       d="M247 214 c0 -2 0 -12 1 -13 1 0 8 2 8 3 0 1 -1 1 -2 1 -1 0 -2 1 -2 3 -1 1 -1 3 -2 5 0 2 -2 3 -3 1z"
       id="path58" />
    <path
       d="M235 211 c-1 -2 -2 -8 -1 -11 1 -2 2 -2 4 -2 4 1 5 3 2 3 -3 0 -3 2 0 4 3 1 3 3 0 3 -2 0 -2 0 -1 1 1 1 2 2 2 2 0 2 -5 1 -6 0z"
       id="path60" />
    <path
       d="M217 209 c-2 -1 -2 -2 -2 -6 0 -3 1 -5 1 -6 2 -1 3 0 3 4 0 5 2 5 2 1 1 -3 3 -4 4 0 l1 3 2 -4 c2 -5 3 -4 2 2 0 5 -1 7 -4 7 0 0 -1 -1 -1 -1 -1 -1 -1 -1 -2 0 -2 1 -3 1 -6 0z"
       id="path62" />
    <path
       d="M95 207 c-2 -1 0 -3 3 -3 2 0 2 0 1 -6 0 -7 1 -8 2 -1 1 6 4 9 4 4 0 -7 4 -9 8 -5 2 2 2 3 2 5 -1 2 -1 3 -2 4 -1 1 -17 3 -18 2z m16 -6 c1 -3 -1 -5 -2 -3 -1 1 0 5 1 5 0 0 1 -1 1 -2z"
       id="path64" />
    <path
       d="M182 207 c-3 -1 -4 -3 -1 -3 2 0 2 -1 2 -4 -1 -4 2 -5 3 -1 1 5 1 6 3 6 1 0 2 1 2 1 -1 2 -5 2 -9 1z"
       id="path66" />
    <path
       d="M206 207 c-3 -1 -2 -5 0 -6 1 -1 2 -2 2 -2 0 -1 -1 -1 -2 -1 -1 0 -2 -1 -2 -1 0 -3 4 -2 6 0 2 2 2 4 -1 6 -2 1 -2 1 0 3 2 2 2 2 1 2 -2 0 -3 -1 -4 -1z"
       id="path68" />
    <path
       d="M117 206 c-1 -2 -1 -8 0 -11 1 -3 5 -3 6 0 2 3 3 9 1 9 -1 1 -2 -1 -2 -4 0 -1 -1 -3 -2 -3 -1 0 -1 1 -1 4 1 5 0 7 -2 5z"
       id="path70" />
    <path
       d="M159 205 c-2 -1 -2 -3 -2 -6 -1 -6 1 -8 5 -7 3 1 3 3 0 3 -3 0 -2 3 1 4 3 0 3 2 0 2 -2 1 -2 1 0 2 2 1 3 2 3 2 0 1 -5 1 -7 0z"
       id="path72" />
    <path
       d="M130 200 c0 -6 1 -8 3 -8 3 0 6 3 6 6 0 2 -1 2 -3 2 -2 0 -3 1 -3 2 0 2 0 3 -1 3 -2 0 -2 -1 -2 -5z m6 -4 c-1 -1 -2 -1 -2 -1 -1 0 -1 0 0 1 0 1 1 1 1 1 1 0 1 0 1 -1z"
       id="path74" />
    <path
       d="M149 203 c0 -1 -1 -3 -2 -3 -1 0 -2 0 -1 1 0 2 -1 3 -3 2 -1 -1 -3 -9 -2 -10 0 -2 2 -1 2 0 0 2 3 4 4 4 1 0 1 -1 1 -2 0 -1 1 -2 1 -2 2 0 4 11 3 12 -1 1 -3 0 -3 -2z"
       id="path76" />
    <path
       d="M169 203 c-1 -1 -1 -1 0 -3 2 -2 2 -3 1 -3 -1 0 -2 0 -2 -1 0 -2 2 -2 4 -1 3 1 4 4 2 6 -1 1 -1 1 0 2 1 2 1 2 -1 2 -2 0 -3 -1 -4 -2z"
       id="path78" />
    <path
       d="M265 174 c-2 -3 -3 -5 -1 -6 1 -1 0 -2 0 -4 -1 -1 -2 -3 -1 -3 1 -1 -2 -1 -4 0 -2 1 -2 2 -2 6 0 6 -2 8 -5 4 -3 -3 -3 -9 0 -12 3 -3 8 -4 10 -2 1 1 1 1 1 0 0 -2 4 -5 7 -5 3 0 5 2 5 4 0 2 -1 2 -3 2 -4 0 -4 1 -1 6 1 2 2 5 2 7 0 5 -4 7 -8 3z"
       id="path80" />
    <path
       d="M238 172 c-4 -2 -5 -4 -5 -10 -1 -4 -1 -5 1 -6 2 -3 4 -2 6 1 2 3 3 2 4 -1 1 -1 1 -1 3 0 4 2 2 14 -3 16 -2 2 -3 2 -6 0z m4 -6 c0 -1 0 -1 -1 -1 -1 0 -1 0 0 1 0 1 0 1 1 1 0 0 0 0 0 -1z"
       id="path82" />
    <path
       d="M208 170 c-1 -1 -2 -4 -2 -5 0 -2 0 -2 -3 -1 -2 0 -3 0 -3 -1 0 -2 -2 -1 -2 2 0 2 -1 3 -3 3 -4 0 -4 -1 -2 -8 1 -6 4 -10 7 -10 2 0 5 4 5 6 0 2 1 1 2 -1 3 -6 3 -7 8 -5 2 2 3 3 2 4 0 1 0 2 -1 3 0 0 1 1 1 2 2 2 2 2 2 -2 1 -5 3 -7 6 -6 0 0 1 1 1 2 0 1 1 3 3 3 3 3 3 5 -1 6 -3 0 -4 2 -1 4 2 1 3 4 0 4 -2 1 -6 1 -8 0 -1 -1 -2 0 -3 1 -3 2 -7 1 -8 -1z"
       id="path84" />
    <path
       d="M179 165 c-3 -3 -3 -4 1 -7 l3 -2 -2 0 c-3 -1 -4 -3 -2 -5 2 -1 6 -1 9 2 3 3 3 5 -1 8 -2 1 -2 1 -1 2 3 3 2 5 -1 5 -3 0 -4 -1 -6 -3z"
       id="path86" />
    <path
       d="M141 166 c-4 -2 -4 -3 -1 -6 2 -2 3 -4 3 -7 0 -3 1 -4 2 -5 3 -1 4 1 4 7 0 4 0 6 2 7 0 1 1 2 1 3 0 2 -1 2 -5 2 -2 0 -5 -1 -6 -1z"
       id="path88" />
    <path
       d="M155 165 c-1 -2 1 -14 3 -16 1 -1 1 -1 3 0 1 1 1 2 1 7 0 9 -1 10 -4 10 -2 0 -3 0 -3 -1z"
       id="path90" />
    <path
       d="M92 164 c-3 -2 -5 -6 -7 -13 -1 -5 -1 -6 1 -7 3 -3 6 2 6 8 0 2 0 2 2 1 1 0 3 0 4 0 1 0 2 -1 2 -2 0 -5 6 -4 6 1 l0 4 2 -5 c2 -4 4 -6 7 -6 2 0 8 12 7 14 -1 2 -4 1 -6 -2 l-2 -3 -1 3 c-1 5 -2 5 -5 4 -2 -1 -3 -1 -4 1 -1 2 -2 2 -4 2 -2 -1 -4 -1 -5 0 -1 0 -2 0 -3 0z"
       id="path92" />
    <path
       d="M126 164 c-1 0 -1 -4 -1 -7 0 -7 0 -8 2 -10 4 -4 12 -2 12 3 0 2 -1 3 -3 3 -3 0 -4 1 -4 5 0 2 0 4 0 5 -1 2 -5 3 -6 1z"
       id="path94" />
    <path
       d="M166 161 c-1 -2 2 -4 5 -4 2 0 3 1 3 3 0 2 0 2 -3 2 -2 0 -4 0 -5 -1z"
       id="path96" />
    <path
       d="M144 142 c0 0 -13 0 -28 0 -24 0 -28 0 -28 -2 -1 -2 -1 -7 0 -8 1 0 11 0 22 -1 12 0 25 0 30 -1 6 -1 14 -1 25 0 19 0 22 0 60 0 31 -1 31 -1 31 6 l0 5 -35 0 c-20 0 -43 0 -52 1 -17 1 -24 1 -25 0z"
       id="path98" />
  </g>
</svg>
