<svg id="Layer_1" data-name="Layer 1" xmlns="http://www.w3.org/2000/svg" viewBox="0 0 743.04539 920.18134"><defs><style>.cls-1{fill:#0ed045;}.cls-2{fill:#574415;}.cls-3{fill:#020202;}.cls-4{fill:#1f1d22;}.cls-5{fill:#1f1e25;}.cls-6{fill:#241f26;}.cls-7{fill:#3f48cb;}.cls-8{fill:#dd63bc;}.cls-9{fill:#2a212b;}</style></defs><title>cool</title><path class="cls-1" d="M555,961H257c1.67407-6.74683,1.46121-13.72089,1.71463-20.54211.21317-5.73706,1.62927-11.96564-1.89029-17.43732a5.93244,5.93244,0,0,0,.83145-5.728c-1.69694-3.89874-1.6058-8.07135-2.50857-12.07544-2.08936-9.267-6.90757-18.20007-4.198-28.10778,1.16739-4.26868.73932-8.51709.904-12.78309.05487-1.421.36241-1.89978,2.05028-1.667,8.108,1.11823,16.205.19928,24.52467,1.69483,16.34146,2.9375,33.15711,2.87866,49.83634,2.43518,6.76544-.17981,13.40252.01562,19.95556,2.18975a49.22337,49.22337,0,0,0,13.02042,2.74585c11.57321.52765,23.124,1.35712,34.685,1.98053,12.58551.67859,25.21255.27948,37.83536.97815,12.95706.71717,26.07672-.8081,38.95733.41541a309.44156,309.44156,0,0,0,46.55081.87634c11.09327-.61322,22.19159-1.56164,33.35114-1.25867,4.22229.11463,5.83417.88819,5.65314,5.48481-.31391,7.96783.123,15.96521.245,23.95019-.23663,2.115-1.18732,4.03137-1.60919,6.1355-1.27564,6.36279.16016,12.7876-.89307,19.09131-1.11,6.64374-1.5531,13.33093-2.0816,20.03332C553.61688,953.44037,556.837,956.96893,555,961Z" transform="translate(-198.01191 -40.81866)"/><path class="cls-2" d="M598,961H574c.22577-2.49963-.83075-4.40186-3.2395-4.8949-3.52686-.722-2.48523-3.91046-1.888-4.96795,3.8648-6.84351,1.7857-13.59516.99988-20.61036-.32184-2.87329-3.924-.67254-3.345-3.866.4513-2.48853,3.46723-3.08466,3.09784-5.74189-.09741-.70135.9206-1.65557.70844-2.22747-1.50415-4.05542-.43366-8.12116-.40308-12.19709.03089-4.1192-.53357-8.24286-.83819-12.3659,1.30682-.82257,1.97033-1.8739.81518-3.24323-2.54333-3.01489-1.38934-6.5025-1.42657-9.86413-.038-3.433,4.02954-7.18958-.75977-10.36151-.2279-.15088.47791-1.76319.79816-2.67768a18.33921,18.33921,0,0,0,1.33374-3.70117c.85052-7.47-1.21527-15.09918.231-22.32373.53766-2.68561-1.49451-4.96112.0249-7.07361,4.07147-5.6604,1.94043-12.22992,2.64569-18.33484.345-2.9862.0816-6.16162.59241-9.24084.68-4.1001,1.09906-8.25165,1.95422-12.31281,1.43787-6.82824,2.24274-13.76928,3.45941-20.62817.95282-5.37134,1.35132-10.81177,2.91217-16.14172,1.36554-4.66291,2.744-9.62555,2.505-14.37464-.27008-5.36835,1.43512-10.14093,2.7738-14.93927,1.2677-4.54382,2.71326-8.73956,1.38788-13.50354a13.20553,13.20553,0,0,1,1.22467-10.16882,20.76427,20.76427,0,0,0,2.43756-8.99439c.54047-7.29626.53461-7.31817,7.549-7.23639,8.30444.09687,16.5835.02594,24.75165-1.84606,1.92493-.44111,3.95007-.46119,5.57989,1.24157,1.636,1.70929-.0094,3.00446-.28625,4.52356-1.89728,10.41193-6.60681,20.03357-8.48175,30.44263-.26367,1.46374-.02692,3.11005-.60779,4.41-5.26923,11.79-5.24567,24.76843-8.29248,37.071-2.72589,11.00653-3.44879,22.5158-4.95007,33.81726-1.54669,11.6438-4.38629,23.08386-5.32038,34.82965-.27295,3.43158-1.90332,6.82513-1.80371,10.20337.30933,10.48816-2.53973,20.65142-2.59833,31.11035-.06848,12.22186-2.3114,24.31927-2.69152,36.56933-.23932,7.71387.76831,15.38019.16626,23.07349a7.90279,7.90279,0,0,0,3.87121,7.6Z" transform="translate(-198.01191 -40.81866)"/><path class="cls-2" d="M247,961H217q-2.06275-11.97519-4.1246-23.95074c.04249-2.4986.11383-4.99677.12089-7.49512.04944-17.46167-.5675-34.955,1.08557-52.36109,1.5369-16.18237,2.08725-32.41772,2.72266-48.62683.44714-11.40612.12718-22.88928.76566-34.29535.5725-10.22729.40458-20.67315,3.63912-30.52917,1.20337-3.66681.5486-7.33246,1.21927-10.97107.78672-4.26813,3.02614-8.32391,2.20566-13.27856-.87628-5.29175,1.10454-10.8509,1.16193-16.45795.07277-7.10693,2.20379-14.1684,2.22043-21.4035.023-9.99885.09326-19.99842.27528-29.99531.04514-2.47906,1.07954-4.6372,4.06894-4.58978,4.46574.07068,8.93085-.43487,13.38986.827,2.4312.688,3.3685,1.8349,3.2628,4.15137-.254,5.56652.01929,11.2229-.89637,16.67926-1.77552,10.58007-2.51145,21.30426-3.64629,31.911-1.03818,9.70318-1.02814,19.57806-2.26958,29.38092-1.13778,8.98431-2.149,18.05542-.42444,27.24054,2.5759,13.71911,1.423,27.71411,2.004,41.57641.2899,6.918-.22388,14.01251-.37848,20.95911-.23117,10.38769-1.9462,20.63135-2.31247,30.99872-.2509,7.102.23877,14.06335.45915,21.08246a7.0547,7.0547,0,0,0,1.22868,4.18841c3.45317,3.91394,2.62226,8.80768,3.66857,13.29675,1.442,6.18653-.85437,12.81641,2.48736,18.69208-2.47358,4.89911-1.22877,10.51935-1.8321,15.57978C246.46056,948.98474,247.50183,955.15125,247,961Z" transform="translate(-198.01191 -40.81866)"/><path class="cls-1" d="M659,961H610c-.72571-11.32471,1.21368-22.7486-1.26508-34.00854.33759-.52686.95276-1.04383.971-1.58088.43476-12.89508,2.23792-25.71515,2.10919-38.64032-.03973-3.99218.01587-7.98535-.007-11.97778-.00952-1.65839.41156-2.52563,2.33606-3.06378,15.54236-4.34558,31.23658-8.23529,46.27869-14.18475,3.22571-1.27582,3.97772-.08881,3.74768,2.71148-.51984,6.32819-.8703,12.64929-1.91937,18.95844-.85047,5.115-3.5235,10.25525-1.20252,15.66125.40882,1.04236-1.45239,2.04822-.04992,3.10651-1.61017,1.43719-1.93628,3.24158-1.79895,5.33044.47827,7.278-.599,14.499-1.26831,21.70685a47.43713,47.43713,0,0,0-.29889,8.229C658.34247,942.47906,658.58038,951.74652,659,961Z" transform="translate(-198.01191 -40.81866)"/><path class="cls-3" d="M660.99866,897.98163c-1.40247-1.05829.45874-2.06415.05-3.10626.073-1.78876-.18616-3.584.6781-5.31391,1.69744-3.3974,3.2658-6.863,8.14141-5.54345,3.56983,4.6477,2.466,10.39733,2.80127,15.47729.758,11.48474,1.78247,22.97577,2.62812,34.4433.66467,9.01275-.45288,18.15851,1.70245,27.0614H664c-.74475-8.24432-1.74756-16.46411-.059-24.74469.72211-3.54077,2.33093-7.49042.67487-10.74811-1.73108-3.40509-1.554-6.6817-1.57526-10.09546-.02039-3.25683-.48517-6.49566-.48767-9.767C662.55127,903.37079,663.77173,900.00641,660.99866,897.98163Z" transform="translate(-198.01191 -40.81866)"/><path class="cls-3" d="M569.09332,894.12976c.30365,4.1217.86811,8.24536.83722,12.36456-.03058,4.07593-1.10107,8.14167.40308,12.19709.21216.5719-.80585,1.52612-.70844,2.22747.36939,2.65723-2.64654,3.25336-3.09784,5.74189-.579,3.19348,3.0232.99273,3.345,3.866.78582,7.0152,2.86492,13.76685-.99988,20.61036-.59723,1.05749-1.63886,4.246,1.888,4.96795,2.40875.493,3.46527,2.39527,3.2395,4.8949H555c1.837-4.03107-1.38312-7.55963-1.06549-11.5882.5285-6.70239.97156-13.38958,2.0816-20.03332,1.05323-6.30371-.38257-12.72852.89307-19.09131.42187-2.10413,1.37256-4.02051,1.60858-6.13629,5.15582-1.9184,11.40412-2.90985,9.18005-11.016-.17608-.64173.4737-.79572.86945-.35681A4.11042,4.11042,0,0,1,569.09332,894.12976Z" transform="translate(-198.01191 -40.81866)"/><path class="cls-3" d="M247,961c.50183-5.84875-.53944-12.01526.10146-17.39062.60333-5.06043-.64148-10.68067,1.83259-15.57984,1.295-3.77331,3.01636-6.874,7.89026-5.00879,3.51959,5.4715,2.10349,11.70008,1.89032,17.43714C258.46121,947.27911,258.67407,954.25317,257,961Z" transform="translate(-198.01191 -40.81866)"/><path class="cls-3" d="M608.73431,926.992c2.47937,11.2594.54,22.68329,1.26569,34.008H598q.44376-9.473.88831-18.94617c.04113-2.82647.09094-5.65265.11987-8.47912C599.083,926.27643,601.65479,924.533,608.73431,926.992Z" transform="translate(-198.01191 -40.81866)"/><path class="cls-3" d="M212.87448,937.04956,217,961H199c1.05569-6.0318-1.90753-11.90955-.68828-17.94763,1.30533-.11456,3.00813,1.884,3.69733-1.18665C203.65613,934.52728,205.70656,933.717,212.87448,937.04956Z" transform="translate(-198.01191 -40.81866)"/><path class="cls-4" d="M660.99866,897.98163c2.77307,2.02478,1.55261,5.38916,1.55432,7.66315.0025,3.2713.46728,6.51013.48767,9.767.0213,3.41376-.15582,6.69037,1.57526,10.09546,1.65606,3.25769.04724,7.20734-.67487,10.74811-1.6886,8.28058-.68579,16.50037.059,24.74469h-5c-.41962-9.25348-.65753-18.52094-1.36749-27.75208a47.43713,47.43713,0,0,1,.29889-8.229c.66931-7.20788,1.74658-14.42889,1.26831-21.70685C659.06238,901.22321,659.38849,899.41882,660.99866,897.98163Z" transform="translate(-198.01191 -40.81866)"/><path class="cls-2" d="M311.08386,225.91507q1.41294-.49978,2.82617-.99989a24.44578,24.44578,0,0,0,13.16626-1.39992c4.1308-1.60082,8.62989-3.63507,13.37339-3.48189,9.37851.30287,18.37664-2.32086,27.50872-3.68124,19.48-2.90189,38.848-6.5029,58.6489-6.35405,10.07706.07574,20.18088-.3409,30.2254.25769q22.02993,1.31289,43.9805,3.85391c10.852,1.27274,22.33457-1.29991,32.45865,5.28984,1.9,1.23668,5.25372,2.13719,7.04242-1.78714,8.89319-19.51144,23.79254-33.87282,40.57068-46.53,8.73364-6.5886,8.11963-7.23157,11.51886,4.258a293.2328,293.2328,0,0,0,9.81244,29.116c5.14105,12.38826,7.26526,25.35828,10.75641,38.04591,2.48736,9.0396,4.09253,18.32192,6.09094,27.49617a109.89471,109.89471,0,0,1,2.57434,21.28842,19.865,19.865,0,0,0,.74487,5.38758c5.025,15.02722,3.26081,30.78567,5.04059,46.15793.76849,6.63794-1.89215,13.18429-.938,19.9357.20538,1.45391,1.94531,2.36663,1.05115,4.06433-2.629,4.99139-2.84778,10.62152-3.86932,15.994-1.90345,10.01081-6.1803,19.26294-8.698,29.06543-1.64478,6.40375-2.56647,12.9574-5.02246,19.23655-.78113,1.99716-1.24372,6.52566,2.03607,8.87024a39.60045,39.60045,0,0,1-3.14343,13.54464c-2.30805,5.76761-7.03894,10.58374-7.6496,16.89179-1.40766,14.5401-11.10907,23.52224-20.96613,32.39425-6.71051,6.03992-15.29144,9.19193-22.82306,13.88083-10.53473,6.55866-21.571,12.28351-31.88891,19.12879C503.97955,550.124,480.31354,555.668,454.75327,555.113c-9.29859-.20191-18.6363-.61957-27.81818-1.4513-9.90009-.89685-20.23541-1.204-29.51737-5.75183a26.831,26.831,0,0,0-7.392-2.69824c-10.56317-1.70734-20.505-5.62549-30.26084-9.566-12.8652-5.19635-24.18158-13.43249-35.976-20.7699-14.668-9.125-26.22623-21.81225-40.1297-31.66818-5.86542-4.15793-9.47641-10.42807-14.63092-15.23913-.78036-1.625-1.47012-3.30134-2.35608-4.86658A255.49508,255.49508,0,0,0,250.8331,437.982c-6.27065-8.58292-9.08142-18.76053-10.92583-29.23142-1.80023-10.22009-4.95782-20.17541-6.28845-30.5033-.7581-5.88424-1.22778-11.82235-2.32565-17.64221-1.64019-8.69455-2.43013-17.53473-3.79676-26.24914a90.42287,90.42287,0,0,1,1.97374-35.54511c1.09006-4.413,2.06675-9.05594,1.38979-13.75061A30.0075,30.0075,0,0,1,234.6815,273.561c1.93479-3.63372,4.14115-7.29638,5.14052-11.2232,3.41837-13.43141,4.40009-27.29715,5.95336-41.00473a72.62182,72.62182,0,0,1,10.72425-30.06926c3.02585-4.96668,5.30787-4.86519,8.869-.29152,3.04425,3.90987,5.14282,8.60335,9.003,11.81406,9.51343,7.91284,18.52121,16.372,27.50018,24.86865A5.93351,5.93351,0,0,0,311.08386,225.91507Zm98.60868,142.03278a12.2811,12.2811,0,0,1-2.51792.35577c-5.34707-.17722-6.04727,4.19937-7.69992,7.693-1.54874,3.27387.84128,4.9285,2.74048,6.71753,1.91043,1.79965,2.45755,3.44232,2.17676,6.40424-.34095,3.59665-1.75284,6.03515-3.5914,8.8074-1.30957,1.97467-4.27027,3.39267-3.59452,6.19049.62238,2.57684-1.14343,2.85129-2.50381,3.45795-9.37888,4.18268-17.69165.41949-20.60086-9.42978-.54031-1.82929-1.08112-2.99069-3.12656-3.163-2.82925-.23834-4.18731,1.44562-5.35653,3.6276-.66507,1.24115-2.22834,2.15552-.6854,3.84314,6.55841,7.17322,12.2605,14.765,24.13669,13.82037,13.52728-1.076,20.84994-7.52017,21-21.1058.025-2.26419-1.16287-5.39105,2.578-6.04819,3.40351-.59781,5.391.71774,6.69232,4.25107,1.88923,5.12955,4.8642,10.301,9.31922,13.16162,9.40106,6.03677,27.78757,3.20135,35.828-4.52011,2.29431-2.20331,1.909-4.94983,1.09763-7.42533-.71509-2.18194-3.46952-2.2734-4.66-1.28585-2.63864,2.18866-6.10724,2.24106-8.81546,4.64508-3.70053,3.28485-8.96527,6.55557-13.84643,3.33017-9.41022-6.2183-16.02823-15.05329-18.57972-26.22293C418.406,369.462,414.9263,368.145,409.69254,367.94785Zm-88.98792,55.55972c-1.09729-1.333-2.177-3.61841-4.42828-1.99292A50.16612,50.16612,0,0,0,302.615,435.74927c-2.65408,4.41943-5.09415,9.39978-8.00445,13.564-3.7327,5.34113-6.3588,11.21378-9.89023,16.59433a3.47851,3.47851,0,0,0,1.25131,4.73993c1.27551.87909,3.78409.9444,4.40015-.8371,2.37768-6.87585,8.24282-11.41336,11.34915-17.85446,4.41522-9.15509,8.72854-18.56811,17.26175-24.9248C320.11,426.19135,319.90021,424.97205,320.70462,423.50757Zm-63.83478,10.36624c4.31632-3.243,11.47577-4.4498,15.66394-10.19394a25.57685,25.57685,0,0,1,6.03711-5.7294c4.8873-3.51526,10.74555-5.51443,15.10892-9.89807.97214-.97656,2.3107-1.89731,1.88028-3.07269-.68308-1.86518-2.15143-.32444-3.33518-.20072-16.73306,1.749-25.28115,17.0434-39.08491,23.64508-1.00023.47833-2.45673,1.60962-1.71661,3.18524C252.16248,433.18283,253.52109,434.16812,256.86984,433.87381Zm76.35947-132.95392c2.522-.32846,5.79,1.67081,9.33636,1.111,1.26148-.19912,2.33231-.40393,2.37769-1.92126.04352-1.45786.386-4.10947-.74622-4.03006-3.00067.21048-5.07086-2.31619-7.8258-2.05759-5.81311.54569-11.63553.03739-17.46872,1.65445-6.60944,1.83228-11.052,5.9578-15.00644,11.00653-1.30783,1.66977-1.64853,3.69471.22128,5.28144,2.17935,1.84942,4.09827.87481,5.49481-1.09452C315.18872,303.00638,323.52966,301.62,333.22931,300.91989Zm184.08307,70.462c-1.3808-.91825-2.90729.94677-4.51526.41516-3.19733-1.05707-4.82184,1.53952-4.93576,3.39923-.15955,2.6055,2.80081,2.61166,4.86593,2.80423,3.78669.35309,7.6106-.45532,11.39844.56347,8.18317,2.201,15.79022,5.8028,23.34735,9.50242,2.1463,1.05075,4.23877,1.71759,5.859-.18729,1.74469-2.05115-.42145-3.23932-1.48523-4.90839-2.50427-3.92889-7.03351-3.243-10.23785-5.2861C534.23792,372.98471,526.05511,371.82578,517.31238,371.38184ZM504.20352,356.117a15.47349,15.47349,0,0,0,2.89911-.70416c11.38419-5.23022,23.46439-7.81,35.79648-9.377,2.691-.34192,3.26874-1.88849,3.07989-4.1416-.23034-2.74942-2.03912-3.18259-4.27728-2.6922-2.25311.49365-4.49109,1.69091-6.70471,1.61963-9.2514-.29792-17.35822,3.71521-25.79614,6.44595-2.76224.894-5.72809,1.73767-7.06754,4.94412-.44174,1.05744-1.58478,2.04651-.67666,3.09421C501.97836,355.90787,503.24573,355.86353,504.20352,356.117ZM293.78918,380.47159c-.13772-1.64234-1.01562-2.56021-2.28347-2.32352-9.4589,1.76584-19.07154-1.24393-28.47522.90552-4.51471,1.032-9.04152,1.75827-13.62886,2.34762-2.75173.35358-5.27338,1.945-3.91326,5.423,1.28031,3.27377,3.76865,2.646,6.088,1.10806a6.5487,6.5487,0,0,1,3.28138-.93646c11.00277-.9429,21.93377-2.89417,32.99539-2.84577C291.16122,384.16446,291.96136,381.76559,293.78918,380.47159Zm25.319-40.72568c9.05326-.63312,17.12864-.92407,25.118-1.9115,2.64123-.32644,5.79379-.653,7.736-3.51178,1.80792-2.661,5.2428-5.263,2.04556-8.38885-3.12927-3.05945-6.1626.69568-8.09317,2.40973a17.50446,17.50446,0,0,1-14.9909,4.1278c-5.70569-1.23791-10.53748,2.264-15.89219.76834-1.22912-.34332-1.88238,1.17478-1.65975,2.86774C313.95651,340.55484,317.67963,339.1026,319.10818,339.74591Zm172.72446-20.74914a24.63667,24.63667,0,0,0,14.164-3.51755c2.88236-1.66666,4.15485-4.16464,2.52762-6.97895-1.76993-3.06109-4.42483-1.23642-6.45566.06339-4.47653,2.86517-9.0112,4.68445-14.36688,2.54446a12.57277,12.57277,0,0,0-3.42694-.4396c-2.44611-.22983-3.63571,1.77179-4.44809,3.312-1.04278,1.97711,1.5625,2.06934,2.56009,2.855C485.12521,318.9921,488.4455,319.22311,491.83264,318.99677Zm9.00525-43.53272-.12259-.64865q-8.78756,2.00441-17.57461,4.01077c-2.76117.633-4.84943,2.18488-3.88794,5.17941.97015,3.02155,3.61938,2.07218,5.88867,1.46592,5.972-1.5954,11.8548-3.67762,18.24316-2.51517,2.07352.37729,3.49875-.65363,3.62094-3.01532.1283-2.47968-.85031-4.2287-3.30209-4.79849A8.732,8.732,0,0,0,500.83789,275.46405Zm30.18884,155.40973c.38178-7.1499-2.61291-12.75763-7.92492-17.29355-1.71845-1.46738-4.06366-2.32782-5.63306-.79867a3.50368,3.50368,0,0,0,.28082,5.59161,6.64842,6.64842,0,0,1,1.64472,2.43271c1.975,4.12481,7.98675,6.56253,4.87591,12.93643-.73614,1.50848,1.79389,3.17664,4.08563,3.27124,2.3429.09671,2.74885-1.27481,2.67164-3.16238C530.98688,432.86029,531.02026,431.86633,531.02673,430.87378ZM334.60461,318.02011c1.981-.14291,4.50647.56668,4.40509-2.96567-.06451-2.24716-.52532-4.21328-3.21951-3.9306-2.5303.26553-5.1864,1.31921-5.51248,4.157C329.944,318.18549,332.56906,317.904,334.60461,318.02011Zm162.37232-21.98529c1.96738.26541,3.17569-.68231,3.05-3.37619-.115-2.46234-1.129-3.65668-3.65186-3.65286-2.82581.00427-3.89294,1.98483-4.11151,4.1452C491.96585,296.0929,494.42068,295.92776,496.97693,296.03482Z" transform="translate(-198.01191 -40.81866)"/><path class="cls-5" d="M269.02835,467.96848c5.15451,4.81106,8.7655,11.0812,14.63092,15.23913,13.90347,9.85593,25.46167,22.54315,40.1297,31.66818,11.79437,7.33741,23.11075,15.57355,35.976,20.7699,9.75586,3.94049,19.69767,7.85864,30.26084,9.566a26.831,26.831,0,0,1,7.392,2.69824c9.282,4.54779,19.61728,4.855,29.51737,5.75183,9.18188.83173,18.51959,1.24939,27.81818,1.4513,25.56027.555,49.22628-4.989,70.75839-19.27417,10.31793-6.84528,21.35418-12.57013,31.88891-19.12879,7.53162-4.6889,16.11255-7.84091,22.82306-13.88083,9.85706-8.872,19.55847-17.85415,20.96613-32.39425.61066-6.308,5.34155-11.12418,7.6496-16.89179a39.60485,39.60485,0,0,0,3.14361-13.54458c-.33081-4.78357,2.53906-7.61551,6.10986-10.02,1.68195,3.89267-1.12585,7.6712-.24469,11.6026.70307,3.13681-2.64025,7.26214-2.1322,8.16467,2.692,4.78235,2.13794,10.56174,5.4317,15.07895,3.6756,5.04086,9.53815,8.3526,11.25476,14.96887,2.41065,9.29144,7.80494,17.34531,11.316,26.183a26.60643,26.60643,0,0,0,4.215,7.12824c6.02387,7.32184,8.98187,15.895,10.77014,25.00439-.8471-.22613-1.57538-.74517-1.61615-1.601-.15735-3.30554-2.56152-3.97046-5.0824-4.292-2.76306-.35236-2.2561,2.74683-3.70642,3.83112-.9613-3.83484-2.07525-7.66755-4.4273-10.8711-7.5904-10.33868-13.00537-21.88-17.47773-33.72543-3.4837-9.22687-9.17449-17.16275-12.76892-26.26694-1.36065.70609-1.50653,1.70252-1.8565,2.64252-2.64917,7.11566-5.56861,14.13873-7.97772,21.33334-2.11036,6.30243-7.894,9.78543-10.94526,15.18939-2.60614,4.61573-6.08606,7.55127-10.58636,10.12931-2.9942,1.71533-7.45941.68853-8.74335,2.7287-1.89422,3.01013-4.452,3.74163-7.05865,4.73175a37.48021,37.48021,0,0,0-9.35993,5.45507c-11.84338,9.03827-25.43091,15.13947-38.14862,22.67347-17.17453,10.17413-36.51108,12.8421-56.25149,12.77429-9.79792-.03363-19.57367-.30384-29.37036-.86273-14.72016-.83966-29.37058-1.439-43.134-7.53852a24.29523,24.29523,0,0,0-4.70169-1.533,155.91526,155.91526,0,0,1-39.18283-13.626c-15.97583-8.29029-30.93591-18.389-45.38965-29.15577-5.0603-3.76947-5.3667-3.95025-7.727,2.15863-6.38793,16.53351-8.941,34.04621-12.597,51.266-1.80594,8.50586-3.00433,17.1391-4.71146,25.6679-2.25726,11.27747-4.74115,22.50953-7.13333,33.76-.81836,3.84876-.68072,8.06568-4.16937,10.89624-.29407.23865-1.27014.66535-.50955.869,4.24664,1.137.93423,3.39832,1.04727,5.24341.622,10.15253-3.0521,19.63654-4.31424,29.48627-.73221,5.71405-2.75791,11.30877-2.37106,17.11645.61975,9.30493-.69751,18.5232-.9845,27.77728-.40375,13.01947-3.2009,25.91413-2.63579,39.04059.2496,5.798-2.11513,11.58533-.77628,17.31977,1.3573,5.81341,1.14806,11.65673.63863,17.36139-1.66644,18.66052-1.97015,37.33581-1.86684,56.04248a6.682,6.682,0,0,0,5.66842,6.46362c8.86138.96924,17.27389,7.10492,26.86236,2.09979,2.37555-1.24011,6.37958.29273,9.54218.97888,6.6456,1.44184,13.38318,1.28992,20.098,1.73,5.68109.37226,11.29718-.70056,17.13644.56733,2.99509.65039,5.723,2.80523,9.2847,2.12921,8.46015-1.60572,17.40045-2.213,25.57379-.562,13.02726,2.63147,26.06427.77764,39.029,2.32733a138.30833,138.30833,0,0,0,27.99866.73816c5.12723-.43769,9.93988,1.64154,14.81632.51416,3.431-.79322,6.84539-1.49689,10.23465-.73523a14.99912,14.99912,0,0,0,7.78979.1347c2.947-.84125,6.26975-2.882,8.71414,1.28046.47681.81189,1.844-.29334,2.77722-.31824,2.26673-.06048,4.81647-1.1994,6.43659,1.73914.55124.99987,1.989,1.11523,3.174.5072,3.09091-1.586,6.32526-.4184,9.20544.20544a53.50714,53.50714,0,0,0,21.35807.60327c3.81994-.72943,7.02453-2.16607,10.55035.37549a2.63738,2.63738,0,0,0,2.37885-.06268c6.73559-4.338,13.74749-1.50916,20.40381-.30078,5.39825.97992,5.984,1.41766,5.875-4.13068-.16755-8.52655.47186-17.04974.7005-25.484a252.15156,252.15156,0,0,1,2.75634-33.80822c1.35077-8.30921,1.70472-16.95655,4.36176-24.82556,2.43439-7.20966,1.72943-14.64594,3.7962-21.85737,1.52722-5.32867,1.84864-11.39959,3.44306-16.7232,1.47943-4.93958,2.89666-9.889,3.16327-14.87976a68.39459,68.39459,0,0,1,2.50256-15.10663c2.2558-7.942,2.92462-16.06659,3.722-24.19946.97535-9.94788,1.22919-19.99268,2.43171-29.8692,1.5617-12.82666,4.72607-25.43451,1.68609-38.4527-.78936-3.38037.2865-5.705,4.479-4.5,3.24267.932,5.87408.89276,5.83544-3.97083,3.13654,16.49591,2.65064,32.631,1.43616,48.834-.42212,5.63086-1.14221,11.16144-2.09289,16.70416-.225,1.31183-.88446,4.14722,1.82043,3.59351,7.0918-1.4516,14.04285.4049,21.05481.28192a8.083,8.083,0,0,1,5.49024,1.67993c4.40087,3.35144,8.50018,1.46454,8.79876-4.0293.8-14.7232,2.04169-29.46759,1.81781-44.184-.13067-8.59649,3.30585-16.90667,1.32093-25.52441a3.54107,3.54107,0,0,1,.74774-2.267,5.77759,5.77759,0,0,1,6.97924-2.47565c3.36066,1.00074,3.17585,4.03882,2.811,6.655-.81909,5.87335-2.68738,11.69391-2.78082,17.55744-.27533,17.26751-1.33594,34.48919-2.0116,51.732-.59992,15.31091-2.60571,30.0874-9.63593,43.90021-.6383,1.254-2.64593,1.94672-1.9757,3.67261,1.5747,4.05517-.04926,7.55188-1.90137,10.86615a13.71923,13.71923,0,0,0-1.87195,8.74878c.50452,2.80774-.49365,5.12872-.45764,7.56915.06982,4.72974-1.858,8.989-2.21008,13.62463-.32514,4.28064-1.36353,8.39685-1.32129,12.90784.04925,5.26788-2.94812,10.44073-2.82794,16.05731.13342,6.23779-1.9853,12.15991-2.93824,18.25018-2.44226,15.60883-4.51635,31.25409-5.53772,47.03394-.26342,4.06928.83277,5.48389,4.43756,3.76434,7.38147-3.521,15.63959-3.91565,23.16138-7.1369,4.37677-1.87433,9.25983-3.45965,14.3313-3.48718,5.35248-.029,9.13153-2.92108,12.08325-7.12268l7.77027,5.64679c.11413,1.48553-3.377,2.15008-.81867,4.313,1.41535,1.19665-.83392,1.843-1.04748,1.794-3.96332-.9085-1.77051.609-1.371,2.44471.62268,2.86181,4.73334,5.5957.68842,9.04223-1.03546.88214,1.51282,1.66284,1.4657,3.148-.14777,4.66162.71234,9.45172-2.1399,13.68421-4.87561-1.31952-6.444,2.146-8.14141,5.54345-.86426,1.72986-.60511,3.52515-.6781,5.31391-2.321-5.40625.352-10.54645,1.20245-15.6615,1.04907-6.30915,1.39953-12.63025,1.91937-18.95844.23-2.80029-.522-3.9873-3.74768-2.71148-15.04211,5.94946-30.73633,9.83917-46.27869,14.18475-1.9245.53815-2.34558,1.40539-2.33606,3.06378.02289,3.99243-.03271,7.9856.007,11.97778.12873,12.92517-1.67443,25.74524-2.10919,38.64032-.01819.53705-.63336,1.054-.971,1.58088-7.08013-2.4585-9.65191-.715-9.72674,6.58325-.02893,2.82647-.07874,5.65265-.11987,8.47912a7.90153,7.90153,0,0,1-3.872-7.59979c.602-7.6933-.40558-15.35962-.16626-23.07349.38012-12.25006,2.623-24.34747,2.69152-36.56933.0586-10.45893,2.90766-20.62219,2.59833-31.11035-.09961-3.37824,1.53076-6.77179,1.80371-10.20337.93409-11.74579,3.77369-23.18585,5.32038-34.82965,1.50128-11.30146,2.22418-22.81073,4.95007-33.81726,3.04681-12.30256,3.02325-25.281,8.29248-37.071.58087-1.29992.34412-2.94623.60779-4.41,1.87494-10.40906,6.58447-20.0307,8.48175-30.44263.27685-1.5191,1.9223-2.81427.28625-4.52356-1.62982-1.70276-3.655-1.68268-5.57989-1.24157-8.16815,1.872-16.44721,1.94293-24.75165,1.84606-7.0144-.08178-7.00854-.05987-7.549,7.23639a20.76427,20.76427,0,0,1-2.43756,8.99439,13.20553,13.20553,0,0,0-1.22467,10.16882c1.32538,4.764-.12018,8.95972-1.38788,13.50354-1.33868,4.79834-3.04388,9.57092-2.7738,14.93927.239,4.74909-1.13941,9.71173-2.505,14.37464-1.56085,5.33-1.95935,10.77038-2.91217,16.14172-1.21667,6.85889-2.02154,13.79993-3.45941,20.62817-.85516,4.06116-1.27417,8.21271-1.95422,12.31281-.51081,3.07922-.24744,6.25464-.59241,9.24084-.70526,6.10492,1.42578,12.67444-2.64569,18.33484-1.51941,2.11249.51276,4.388-.0249,7.07361-1.44629,7.22455.6195,14.8537-.231,22.32373a18.33921,18.33921,0,0,1-1.33374,3.70117c-.32025.91449-1.02606,2.5268-.79816,2.67768,4.78931,3.17193.72174,6.92846.75977,10.36151.03723,3.36163-1.11676,6.84924,1.42657,9.86413,1.15515,1.36933.49164,2.42066-.81518,3.24323a4.09226,4.09226,0,0,0-.52509-1.35034c-.39575-.43891-1.04553-.28492-.86945.35681,2.22407,8.10614-4.02423,9.09759-9.18005,11.016-.1214-7.98419-.55829-15.98157-.24438-23.9494.181-4.59662-1.43085-5.37018-5.65314-5.48481-11.15955-.303-22.25787.64545-33.35114,1.25867a309.44156,309.44156,0,0,1-46.55081-.87634c-12.88061-1.22351-26.00027.30176-38.95733-.41541-12.62281-.69867-25.24985-.29956-37.83536-.97815-11.56107-.62341-23.11182-1.45288-34.685-1.98053a49.22337,49.22337,0,0,1-13.02042-2.74585c-6.553-2.17413-13.19012-2.36956-19.95556-2.18975-16.67923.44348-33.49488.50232-49.83634-2.43518-8.31964-1.49555-16.41665-.5766-24.52467-1.69483-1.68787-.23279-1.99541.246-2.05028,1.667-.16472,4.266.26335,8.51441-.904,12.78309-2.70961,9.90771,2.1086,18.84082,4.198,28.10778.90277,4.00409.81163,8.1767,2.50857,12.07544a5.93244,5.93244,0,0,1-.83145,5.728c-4.87393-1.865-6.59532,1.23566-7.89029,5.009-3.34222-5.87561-1.04588-12.50549-2.48785-18.692-1.04631-4.48907-.2154-9.38281-3.66857-13.29675a7.0547,7.0547,0,0,1-1.22868-4.18841c-.22038-7.01911-.71-13.98047-.45915-21.08246.36627-10.36737,2.0813-20.611,2.31247-30.99872.1546-6.9466.66838-14.04114.37848-20.95911-.58091-13.8623.57194-27.8573-2.004-41.57641-1.7246-9.18512-.71334-18.25623.42444-27.24054,1.24144-9.80286,1.2314-19.67774,2.26958-29.38092,1.13484-10.60675,1.87077-21.33094,3.64629-31.911.91566-5.45636.64242-11.11274.89637-16.67926.1057-2.31647-.8316-3.46332-3.2628-4.15137-4.459-1.2619-8.92412-.75635-13.38986-.827-2.9894-.04742-4.0238,2.11072-4.06894,4.58978-.182,9.99689-.25227,19.99646-.27528,29.99531-.01664,7.2351-2.14766,14.29657-2.22043,21.4035-.05739,5.607-2.03821,11.1662-1.16193,16.45795.82048,4.95465-1.41894,9.01043-2.20566,13.27856-.67067,3.63861-.0159,7.30426-1.21927,10.97107-3.23454,9.856-3.06662,20.30188-3.63912,30.52917-.63848,11.40607-.31852,22.88923-.76566,34.29535-.63541,16.20911-1.18576,32.44446-2.72266,48.62683-1.65307,17.40607-1.03613,34.89942-1.08557,52.36109-.00706,2.49835-.0784,4.99652-.12091,7.49512-7.16882-3.33228-9.21925-2.522-10.86633,4.81646-.6892,3.07062-2.392,1.07209-3.69733,1.18665,3.17166-3.64917,1.96659-8.34516,2.09361-12.3147.63054-19.70532.72384-39.43951.46878-59.15649-.12228-9.45417.97173-18.79212,1.279-28.19068a318.47673,318.47673,0,0,1,3.65072-39.2063c1.4606-9.28369,1.04108-18.88751,1.15328-28.35217.11937-10.06933.11485-20.30267,2.40692-29.97912,1.52237-6.427,2.59895-13.35181,6.32518-19.3039,2.73759-4.37292,1.79928-9.83093,3.3025-14.62494,2.46227-7.85248.95864-15.858,1.04213-23.81006.0405-3.85778.58565-7.71435.983-11.56317.45694-4.42529-.46414-8.776-.57181-13.14789-.08943-3.632,1.25151-7.276,1.47939-10.94451a144.99375,144.99375,0,0,1,1.74963-14.95783c.68509-4.10626.4831-8.699,1.36077-12.97852,1.38351-6.74609,2.1503-13.66729,6.64636-19.49823a11.983,11.983,0,0,0,1.94456-5.79626c.8828-9.697,5.30129-18.03473,10.52344-26.12946,4.029-6.24517,6.85017-13.28912,12.55454-18.37921,3.04815-2.71991,5.32055-6.40728,8.30371-8.83435,6.33352-5.153,9.20981-11.90381,10.42114-19.23437.55987-3.38819,1.85492-7.00287-.00128-11.20825-3.0473-6.90387.8522-13.56263,4.35406-19.427,1.64914-2.76165.44242-3.59619-1.06561-4.67566-9.253-6.62326-15.38724-16.11093-22.74008-24.47946-2.25807-2.56994-2.09635-6.11053-3.7739-8.89517,1.00351-.01215,2.38295.02414,2.47092,1.07633.30511,3.64993,3.44861,5.45959,5.1062,8.20092C262.49725,471.73743,265.01563,471.70721,269.02835,467.96848ZM246.71388,589.68829q-1.08561.94053.306,1.29633c-1.62964,3.27173-4.122,6.01746-4.75432,9.90265-1.47808,9.08179-8.23906,16.49933-8.20388,26.22174a47.23845,47.23845,0,0,1-.799,9.835,177.05032,177.05032,0,0,0-2.38789,18.1626c-.14291,1.4024-.6925,4.33276,1.68945,3.774,4.958-1.163,9.2997,1.65631,14.01769,1.298,1.40962-.10705,3.307.42865,3.49341-1.77429.22783-2.69293,1.23883-5.51264,1.09958-7.929-.55172-9.57336,3.8663-18.78119,1.78091-28.39752-.15256-.70337.43-1.57556.699-2.3595,2.175-6.33917,1.89217-13.11169,3.57579-19.5841,1.6123-6.19837,1.333-12.95819,3.39694-18.95056,2.17414-6.3125,2.61029-13.23474,6.36005-19.02808a2.15,2.15,0,0,0-.668-2.87945c-4.40787,3.53692-9.02173,7.30035-10.7798,12.69854A63.39686,63.39686,0,0,1,246.71388,589.68829ZM203.6376,933.71552c-.10546.02087-.25851.00708-.305.0708a.93967.93967,0,0,0-.08072.36566q.262-.0489.52393-.0979Z" transform="translate(-198.01191 -40.81866)"/><path class="cls-4" d="M621.785,241.27008c-3.087-17.51923-8.892-34.35529-14.69336-51.16864-2.86035-8.28979-6.9085-16.11975-8.58715-24.90466-1.61963-8.47583-5.38013-11.17877-11.02588-8.88013a46.56548,46.56548,0,0,0-12.99768,7.49182c-3.33667,2.8504-6.1764,6.43384-10.37275,8.22858l-3.99646,3.00586c-2.25531,4.11413-7.55078,5.25866-9.4729,9.69812q-1.26094,1.65207-2.52258,3.30377c-1.40485,4.06787-5.87781,5.89111-7.28485,9.95734.13483,1.46978-2.01025.665-2.00287,2.00763q.2124,1.03125-.81866.81781c-1.21454,2.04193-1.3335,4.558-2.94959,6.461-.92059,1.08405-1.91571,2.29517-3.26263,1.61481-8.07111-4.077-16.84851-1.47931-25.25019-2.6112-9.37451-1.26307-18.95709-1.84772-28.44616-2.5799-17.40564-1.343-34.82984-2.52081-52.23407-2.243a254.51313,254.51313,0,0,0-41.85315,4.00305c-2.96234.54535-5.93109,1.0564-8.90283,1.55231a17.814,17.814,0,0,1-3.00006,1.2492,4.64707,4.64707,0,0,1-3.19776-.2337c-13.73065,2.21338-27.49182,4.28906-41.0155,7.72406-4.25488,1.08069-7.35132,3.93567-11.21552,4.93707-2.97363.77057-2.60876,2.33008-2.77234,4.21387a24.44552,24.44552,0,0,0,13.16626-1.3999c4.1308-1.60083,8.62989-3.63507,13.37342-3.48187,9.37848.30285,18.37664-2.32087,27.50873-3.68128,19.48-2.90185,38.848-6.50287,58.64886-6.35406,10.07709.07574,20.18091-.34088,30.2254.25769q22.03,1.313,43.98053,3.85394c10.85193,1.27271,22.33454-1.29993,32.45862,5.28986,1.9,1.23663,5.25372,2.13714,7.04242-1.78717,8.89319-19.51142,23.79254-33.87281,40.57068-46.53,8.73364-6.58857,8.11963-7.23157,11.51886,4.25805a293.23292,293.23292,0,0,0,9.81244,29.11591c5.14105,12.3883,7.26526,25.35828,10.75641,38.046,2.48736,9.03955,4.09253,18.3219,6.09137,27.49591,2.24487-3.60718,5.51477-2.66229,8.72882-1.96558C626.54089,258.95105,623.37952,250.31989,621.785,241.27008Z" transform="translate(-198.01191 -40.81866)"/><path class="cls-3" d="M269.02835,467.96848c-4.01272,3.73873-6.5311,3.769-9.24942-.72657-1.65759-2.74133-4.80109-4.551-5.1062-8.20092-.088-1.05219-1.46741-1.08848-2.47092-1.07633-2.48457-7.99045-8.123-14.16959-12.11221-21.28091-5.87552-10.47394-7.267-22.49335-10.0583-33.99759-1.18006-4.86365-2.22016-9.77491-3.02048-14.71372-1.1431-7.05389-1.84541-14.18033-3.03685-21.22494-1.17432-6.94348-1.10718-14.11746-3.583-20.81092-.673-1.81945-.01-3.62112-.55345-5.36346.34234-1.478-.72119-2.02567-1.72772-2.61111-1.38559-1.47532-1.18785-3.30884-1.11942-5.09516.2793-7.28973.65927-14.54141.46379-21.88132-.17457-6.5552,2.13318-13.29223,4.09278-19.72125.62548-2.05212-1.70516-5.026,1.69963-6.22525,2.53987-.73575,5.08088-1.88388,7.6134.02121.677,4.69467-.29973,9.33759-1.38979,13.75061a90.42287,90.42287,0,0,0-1.97374,35.54511c1.36663,8.71441,2.15657,17.55459,3.79676,26.24914,1.09787,5.81986,1.56755,11.758,2.32565,17.64221,1.33063,10.32789,4.48822,20.28321,6.28845,30.5033,1.84441,10.47089,4.65518,20.6485,10.92583,29.23142a255.49508,255.49508,0,0,1,15.83917,25.11987C267.55823,464.66714,268.248,466.34344,269.02835,467.96848Z" transform="translate(-198.01191 -40.81866)"/><path class="cls-4" d="M230.85994,285.06024c-2.53252-1.90509-5.07353-.757-7.6134-.02121.15756-5.11877,2.19506-9.71918,4.39189-14.14865,3.01283-6.0748,6.13661-12.1799,8.87268-18.29861,1.987-4.4437,1.28642-10.64777.202-15.7293-.86473-4.052.43537-7.65469.603-11.33076.61831-13.55828,4.80192-26.18184,11.56083-38.188,6.51834-11.5788,18.374-10.56241,24.6644-.84106,5.62851,8.69845,13.571,14.93466,21.27023,21.531,5.16919,4.42875,9.28989,10.03532,15.60114,13.20549,1.50235.75465.23981,3.11032.67087,4.67553a5.93307,5.93307,0,0,1-9.21186,1.74027c-8.979-8.49668-17.98675-16.95581-27.50018-24.86865-3.86014-3.21071-5.95871-7.90419-9.003-11.81406-3.56109-4.57367-5.84311-4.67516-8.869.29152A72.62182,72.62182,0,0,0,245.77538,221.333c-1.55327,13.70758-2.535,27.57332-5.95336,41.00473-.99937,3.92682-3.20573,7.58948-5.14052,11.2232A30.0075,30.0075,0,0,0,230.85994,285.06024Z" transform="translate(-198.01191 -40.81866)"/><path class="cls-3" d="M724.0899,573.97571a6.10488,6.10488,0,0,1-1.69451-.38709c.13134-.27429.19134-.63727.405-.8092,2.077-1.67072-.08606-2.35956-.78406-3.34833-.44141-.62536-1.3888-1.286-.48749-1.92193.4436-.313,1.50775.25366,2.29114.42224-.736-.9469-.39411-2.53064-2.04352-2.97657-4.56793-1.23486-2.927-4.42315-1.36084-6.52838,1.3269-1.78344,1.86481-3.13714.68616-4.84637-2.2179-3.21625-.05756-7.00482-1.59735-10.41352-.70356-1.55749,2.57318-2.19055,2.63122-4.16876-.1803-.656.19269-.91235.74872-1.03644-2.90289-3.91992-.77-9.57348-4.567-13.21472-.77752-.7456-.2594-1.17968.58362-1.78894,2.406-1.73877,5.9505-3.46985,1.43732-6.78729-.01672-.01233.51-.764.78284-1.17047q-.58237-1.445-1.1648-2.88989c-3.67145-3.73487,2.04858-2.43219,2.20624-4.11316-3.08112-2.12171-3.11377-7.42133-2.52869-8.26709,2.18823-3.16345.73664-5.84986.53412-8.72754q-.13458-.98209-.26929-1.96424c.31116-2.66656.61408-5.33422.97333-7.99432.01068-.079.61243-.07818.9386-.11456q-.02555-1.42227-.051-2.84448a4.21247,4.21247,0,0,1-.42877-.66767c-.02929-.06866.13544-.30047.25067-.3388,3.19928-1.06287,3.46125-1.25556,2.98792-1.88868-1.34326-1.79657.31012-5.00036-3.45-5.94238-1.50293-.37652-1.41028-3.65741.74945-5.19879-.89069-.07526-1.78144-.15057-3.07672-.26007,1.57049-1.07855,2.72046-1.86835,3.87048-2.65814-1.34979-.86951-.94916-1.55957.22247-2.1706-2.742-2.05023-4.80072-4.165-.92712-7.11413.466-.35474.64764-1.083.96112-1.63812-1.247-.57563-.81659-1.06067.08215-1.52167.07947-.235.21222-.5434.32355-.822a5.71654,5.71654,0,0,1-.868-1.58557c-2.88013-2.94971-.64179-6.16681.43726-9.31983.1784-.67883-.01087-1.53094.57629-2.01721a59.93812,59.93812,0,0,1,.73559-7.24158c-.44787-.26959-1.107-.62976-2.07708-1.15551.29547-1.40894,2.36432.12359,2.524-1.53125-2.18164-2.15479,2.44672-3.389,1.07337-4.29426-3.84235-2.53259-.51367-3.91888.44128-5.72912-.20648-.7049.24628-.93726.79108-1.1037-.18164-1.64233-2.41925-.21985-2.85748-1.68188,3.03839-1.49183,3.18481-1.58338,2.80981-2.18342-2.23321-3.57318-.719-5.58673,2.857-6.52166-.48932-1.34784-2.97321-.31409-2.10981-2.72473,1.47937-4.13038,6.54578-7.32673,3.37891-12.772-.63989-1.10034.49329-2.11242,1.3371-2.95648.50671-.50677,1.7536-1.04944,1.156-1.76276-3.23034-3.85522.66944-5.185,2.64087-6.28411,2.11731-1.18055,2.85254-3.5918,3.25849-4.80091,1.443-4.298,2.73931-8.30438,6.97247-10.58386a16.91782,16.91782,0,0,1,.961-2.36261c-.828-.154-1.7359-.35242-.038-1.436.67859-.433,1.34094-.9021,2.00421-1.37329a9.75287,9.75287,0,0,1,2.31141-1.81048,12.70692,12.70692,0,0,1,2.4555-1.0564c6.195-2.74072,12.74725-1.68231,16.59094,2.54553a15.62637,15.62637,0,0,0,6.6438.28357,35.43094,35.43094,0,0,1,7.17432-1.12634c1.0495-2.84863,3.078-4.095,6.78747-2.69312.32471.12275.86249-.47393,1.32941-.5415,1.1889-.172,1.49469-.92468.43738-1.3352-3.61951-1.40522.96539-2.21717.155-3.34571,2.26422-.1148,2.14392-1.37951,2.08893-3.265-.07367-2.52637-1.88776-1.55249-2.97321-2.12909-2.50946-1.333-5.02588-3.5011-4.89636-6.13556.20556-4.1803-1.68024-5.77765-5.14221-5.7403-2.92981.03162-2.1131-2.9873-3.83277-3.72753,2.49121-1.115.769-1.8042-.3247-2.24189-4.90552-1.96295-8.80146-6.00641-14.22577-6.88043l-12.90644.62128c-6.04364-1.38538-10.29467,3.82586-15.94543,4.41119-2.09992.21747-5.52112-2.68384-7.04529,1.6817-.23193.66443-.73675-1.93219-2.014-2.10864-1.53851,1.82684-3.15088,3.52722-5.82818,3.40479l.02124.01892c-.14191,2.53949-.39667,2.21325-2.473,3.83453-3.50116,2.73376-6.54693,6.04291-9.966,8.892-2.83423,2.36175-4.54578,5.6372-6.99335,8.31549-1.54126,1.68646-5.81732,2.35852-4.0794,6.89551.54016,1.41021-3.67121,1.43023-5.74823,2.33764,2.59906,1.91846,2.61413,4.08564-.01856,5.41-1.60534.80749-1.42633,2.59277-1.44494,3.29052-.09668,3.62842-.80219,6.41748-4.3227,8.44342-1.0852.62445-.88836,3.47693-1.2785,5.30927-.29755,1.17987,3.97162,1.98236.227,3.54211-1.19373.4972-.34912,1.54486.22455,2.31885.62024.83685,2.3775,1.32813,1.52429,2.65344-1.04443,1.62256-2.13965-1.23486-3.63409-.12976-.35132,1.90338,2.42358,1.63349,2.5805,3.189-1.87042.121-1.643.09387-1.34479,1.65271.14844.77588,1.23816,2.20465-.86914,2.86243-1.63159.50933-2.9765,1.93707-4.44879,2.9566a1.12582,1.12582,0,0,0-.01892.91309c1.84827-.66,3.63025-.24128,5.61548.39752-.33411,1.14477-4.92236-.21418-1.94611,3.08484.487.53991.20587,3.17663-1.17669,4.93408-1.85834,2.36249-4.93622,4.72387-2.21851,8.88891,1.50879,2.31238-1.77155,1.23542-2.87415,2.11567,1.95,1.13159,4.74329,1.40325,2.04395,5.03625-1.835,2.4696,3.15277,4.148,2.964,7.33319-.96979.8186-4.28485,1.87677-3.29468,2.90228,3.08869,3.1988-1.89319,8.589,3.311,10.81745-.90693,1.50757-6.26972,2.4975-.71717,5.18713.09876.04785,3.30554,2.526-.2633,3.3786a7.03093,7.03093,0,0,0-.905.349c4.87219,3.22119.70154,6.89075-.384,9.4339-1.174,2.75037.01055,3.42,1.1,5.09485,1.26386,1.94305-1.57861,1.627-2.046,2.784,1.54767,1.70672,4.41266,1.58978,5.52893,4.19287.28552.66577,1.616,1.44348.72956,2.07019-3.76081,2.65863-2.67255,5.47876-.5539,8.37073.611.834,1.37262,1.45727.56354,2.54162-2.25708,3.0249-.64917,4.80078,3.288,6.5589-4.66491.59076-6.76648,1.79608-4.27276,5.933a4.3767,4.3767,0,0,1-1.96784,5.67182,16.33127,16.33127,0,0,1,3.45856.04681c1.60828.3562,2.49908,1.49658.65295,2.54157-4.36621,2.47137-3.46185,5.63037-1.57849,9.0708.18494.33789.68293.47143.31763,1.12384-2.08508,3.72345-2.05481,3.74041,2.44586,6.52105-2.43042,2.23017-3.91888,4.57673.81171,5.67579-.54242,1.08911,4.52283,1.99969.10223,3.21221,4.635,1.71106-3.08691,6.27186,1.82215,7.95148.184.063.33734.5387.3219.81159-.1521,2.68.02093,3.1289,1.99536,4.61316-1.21717.90417-2.39637,1.78009-3.95172,2.93554,1.77923.35749,3.70562,1.20014,1.89733,2.85346-2.96466,2.71063-.7962,5.47693-.95825,8.26776-.22687,3.90643,1.74414,6.94281,2.50128,10.411.43055,1.97186-2.53387,2.64911-1.59613,4.69519.81348.34277,1.23413-.30158,1.60773-.7561,1.35547-1.64917,2.55048-.26227,3.21106.48.88434.99371-.39783,1.709-1.12341,2.29785-3.39765,2.757-3.40326,2.74212-.91815,6.51385a3.21275,3.21275,0,0,1,.26409.86817c-3.5299.12878-.24469,5.88055-4.88031,5.0415,2.00641,1.76538,5.06147,1.561,5.01215,4.76111-.02673,1.73663-1.12555,3.08472-1.1405,5.00433-.02,2.55835-.59522,5.07746.01581,7.69971.38806,1.66534,2.5924,4.6192-1.90174,4.374-.251-.01367-.519.28632-.77911.44037,4.66058,2.242-1.67462,6.35944,1.51,8.85315-2.00946.63281,1.13891,2.80438-1.48975,4.02014-2.30023,1.064-.53937,3.97718.79846,5.52252.68836.79523,2.286,1.14411,1.81434,2.45032-.46955,1.30011-2.141.30524-3.32416.9975.74872,1.30017,1.08038,2.90729,2.625,3.64673.78607.37622.93,1.446.66894,1.50824-4.1131.98016-.92712,5.5379-3.59466,7.26178-.46424.3-.69879,2.05133-.39075,2.28772,5.49341,4.2193-1.09491,7.39465-.91321,11.11462.01831.37476-.61291,1.07843-.56622,1.11249,6.7912,4.94476-2.52448,10.37653.38336,15.47137.067.11737-.77441,1.08863-.26392,2.018,2.29627,4.18,1.71021,6.0072-3.03125,9.59027,2.095,1.701,5.19538,3.234,1.08454,6.11114-2.30188,1.61109-.52759,2.26691,1.05139,2.70612-3.67651,4.97455,1.78845,11.05005-1.82867,15.85681-1.12763,1.49841,1.07421,3.83606-1.45734,4.46771-1.65479-18.40039-4.32666-36.72259-6.03034-55.11541-1.22418-13.21582-3.46-26.36957-3.58813-39.74323-.03485-3.6391-.2171-7.796-1.9035-11.7326-1.78119-4.15784-1.85108-9.11817-2.20887-13.76331-.08026-1.04236-.02978-2.97235,1.60383-3.87384,2.08087-1.1485,1.33685-2.308.00622-3.69592-2.94751-3.07453-2.1568-7.42432-3.05725-11.11664-.54218-2.22321-.146-4.40717-2.08331-6.3728-2.6399-2.67835-1.69977-4.77094,3.81793-5.6886-4.86951-1.39069-8.35425-2.82758-7.98822-6.37433.45611-4.41968-2.10785-8.0293-2.16358-11.97534-.03759-2.65827-3.39648-4.88074-.822-7.87335.56519-.657,1.52015-1.1167,1.80414-2.05317-.8471-.22613-1.57538-.74517-1.61615-1.601-.15735-3.30554-2.56152-3.97046-5.0824-4.292-2.76306-.35236-2.2561,2.74683-3.70642,3.83112-1.07464,4.23651-1.95318,8.05987-1.23138,12.92395,1.49335,10.064,5.63171,19.523,6.07581,29.76007a30.70338,30.70338,0,0,0,2.17077,9.28875c3.81677,9.902,1.81769,20.68555,5.41528,30.56141.89417,2.45465.10962,5.47943.356,8.21881,1.00006,11.11853,2.27039,22.21215,3.45075,33.3078.69714,6.55285,1.7738,13.08264,2.19867,19.66839.39538,6.12781.66021,12.25952,2.64233,18.16431.26807.79846-.1004,1.798-.1131,2.7052-.10406,7.44427,1.10742,14.76733,1.7865,22.13531a52.28075,52.28075,0,0,1-.59533,12.433c-.71247,4.59143-.13874,9.22357-.03565,13.84985a188.41806,188.41806,0,0,1-.9494,25.01587c-.51679,4.63519-2.48438,10.00476-2.17194,13.86389.54938,6.78577-1.13824,13.0622-1.231,19.57117-.099,6.94781-3.0113,13.60773-2.08326,20.67316a3.23733,3.23733,0,0,1-.90478,2.17047c-5.39954,6.1026-4.96576,8.837,2.24176,13.58606q3.8854,2.82357,7.77051,5.64672c3.288-.428,4.7774-4.92395,9.64782-3.04284-4.7492-4.19873-4.65612-4.76758.14478-6.70209,1.03522-.41711,1.2409-.83264.38989-1.673-.48956-.4834-2.38946.52813-1.50952-1.34986.37946-.80969,1.08032-.89892,2.05164-.80273,2.09069.207,4.602.41968,2.65857-3.055a1.0888,1.0888,0,0,1,.61364-1.611c3.91577-1.54,5.33954-4.20031,3.88391-8.24432-.3587-.99652,1.64454-1.02582,1.0116-2.13367-2.74933-2.9848.135-4.44208,1.75763-6.15863,1.00043-1.05853,2.5094-1.26868,1.93109-3.68005-.75568-3.15113-6.27093-7.39368,1.12775-9.76575.17633-.05646.254-.96594.11181-1.38806-1.90985-5.66852,1.85755-10.62189,1.98029-16.02582.28009-1.78772,3.6488-3.348.39722-5.39575q.83139-.83257,1.66278-1.6651c-.52112-2.52869,4.07409-1.96124,2.9411-4.86023-1.873,1.20679-3.58978.06622-3.444-1.41736.23938-2.43573,2.79327-1.35943,4.40307-1.67627-.87323-1.19476-1.74639-2.38959-2.72241-3.725,1.84449-.07447,2.43262-1.73536,3.76429-2.25782q.47937-1.45275.95886-2.90545-.73159-.06811-1.4632-.13617c.46869-3.18689-1.65515-6.78314,1.564-9.54206a14.77534,14.77534,0,0,0,3.93677-5.33673l-1.73224-.54235a2.72112,2.72112,0,0,1,2.69244-1.56226c-.48157-.48529-1.36255-.976-1.35614-1.45465.01111-.83014.98437-.4704,1.50653-.45538,1.34009.03839,2.24634-.22364,1.93152-1.84772-2.80682-1.81446-2.538-3.25757.99853-5.36121.14612-.75476,1.55726-1.73315.73847-2.03723-3.5564-1.32056-1.38416-3.072-.69739-4.85644.31494-.81849,1.02619-1.36042.82562-2.6175-.5158-3.2348-.219-6.47522,2.45752-8.9367-1.65057-.62659-3.30487-1.25763-5.11078-1.94648,1.43195-1.32306,2.58936-2.39251,3.74677-3.46191.97931-1.383-2.75848-.2652-1.07245-2.02289,1.085-1.65216-3.13238-3.45044.139-5.04236a2.06886,2.06886,0,0,1,.20917-.8955c.27136-1.07715-1.96094-2.27448-.50208-2.87635,3.61-1.48932,1.80487-4.26819,1.02368-5.68768-1.4812-2.69165-1.774-6.01715-4.60437-8.05652,3.46131-1.1427,7.02912-6.21771,5.60175-8.04071-2.2063-2.81787,1.28631-.81238,1.18164-1.66089q.50976-.72756,1.01941-1.4552c-1.10248-.95709-2.2854-1.83691-3.29267-2.88544-3.48913-3.63238,1.19452-4.89862,2.15638-7.2481-1.01374-.37543-.62348-1.34516-.86652-2.04682-3.10748-2.5487-2.6665-4.53637,1.09436-6.08105-.62384-1.43286-3.18152-1.251-2.85168-3.62586,1.23693-.66595,3.28826-.33581,4.07959-2.4002-1.18366-.91883-3.08-1.28461-3.34736-3.22577-.08117-.58924-1.49493-1.71759.2096-1.5882,2.58642.19629,2.12262-2.597,3.72455-3.19946a1.26179,1.26179,0,0,0,.00732-.84339c-2.9704.22229-2.86108-.29193-2.347-3.40838.40838-2.47614.22717-5.09387,1.67639-7.37067.262-.41156,1.13733-.43274,1.72949-.63421a.47238.47238,0,0,1-.17957-.52179c-2.11975-1.13623-1.97436-2.5561-.51837-4.14-2.57409-1.24267-2.20215-2.63525-.20917-4.11035l1.90961-1.93927c-1.37036-1.66284-5.7973-2.434-1.29547-5.81421.79535-.59723,2.53-3.85132.87018-6.06152-2.01062-2.67737-1.36157-7.85608,1.4657-10.3089-.6167-1.38349.85144-1.83393,1.23871-2.76807q-.105-.90994-.21-1.81994c-.68786-.17469-1.72448.26831-1.86883-.903-.18549-1.50555,1.02569-1.24731,1.89636-1.39056.30225-1.57587-.53027-1.91809-1.91156-1.95356-1.17218-.03015-1.35522-1.34875-.69092-1.60681,2.51331-.9765,1.49671-4.06091,3.43824-5.25537-1.3017-.66638-2.73529-1.14606-3.81824-2.92285,1.8753.09473,2.40289-1.73206,3.91131-2.18866C726.29626,574.38367,725.59351,573.88324,724.0899,573.97571Z" transform="translate(-198.01191 -40.81866)"/><path class="cls-6" d="M937.93213,92.85107c-4.564-7.37829-9.67926-14.247-16.49622-19.82324-4.05615-3.318-7.43011-4.12829-12.06256-1.62951-1.90167-11.10608-7.491-19.678-17.41022-25.28913-3.26336-.81714-6.33245-2.03613-9.85028-2.26794-9.9154-.65357-18.736,2.0777-27.0166,7.19275-4.87933,5.712-5.173,5.65826-9.36657-.59265A44.37334,44.37334,0,0,0,841.895,46.045c-3.44348-.38928-5.52429-3.66668-8.90015-4.19928q-1.70187-.01006-3.40381-.02008-1.79763-.50345-3.59533-1.00683l-1.99127-.00019c-4.58619.0514-8.6319,2.23365-12.96369,3.28815-1.04407,1.24732-2.57355,1.51593-4.00323,1.98578-2.87378,2.62964-6.53791,4.79919-8.40851,8.01276-2.04639,3.51544-3.4657,2.64233-5.97858,1.18628-3.71472-2.15241-7.13843-5.00348-11.65362-5.47693q-.99629-.00083-1.99262-.00159-2.00418.00558-4.0083.01111c-14.74585,1.7149-23.63373,11.75372-30.38068,23.31488-2.46295,4.22052-4.91687,5.71466-8.07843,4.35882-8.2099-3.52063-15.11254.51545-22.43109,2.54273-2.76019,2.8797-6.4541,4.76971-8.6936,8.20135-1.98407,3.43445-5.33557,5.41321-8.30341,7.80048a29.5778,29.5778,0,0,0-4.165,20.5141c.14112.89886.96271,2.46936-1.26965,2.33295-5.33319-.32587-9.35815,2.65649-12.88165,5.94848-6.69837,6.25824-9.952,13.99768-9.848,23.43793.06585,5.97833.59417,11.27942,3.8703,16.60309,2.57312,4.18127,5.86645,7.81451,8.23224,12.09155.574.08746.94757.3418.81952,1.014.54937,1.5625,2.02325,2.18506,3.30358,2.655,2.74671,1.00818,2.24073,2.6145,1.2273,4.49524-.18366,3.09039-.52515,6.18353-.4718,9.26983.02087,1.20435-.83423,1.69721-1.10016,2.58924q.00119,1.50612.00232,3.01232c.3183.78882-.90637,1.54267-.05322,2.34363-.04139,2.78583,3.21252,4.56134,2.33135,7.60462,2.91865,4.22833,4.27613,9.51666,8.41572,12.89642,7.72827,6.30975,16.38891,4.47876,25.43786,2.76434-2.01367,3.96784.35565,8.22119-.85809,12.34943,1.10235.2782.78332,1.27557,1.01019,1.99676,1.38629,2.30207,3.21686,4.35138,3.98566,7.00483,2.06189,1.51233,3.7157,3.73639,6.86078,3.03979,12.45752-2.75921,24.99884-5.17328,37.36651-8.28271,3.31281-.83289,5.50653-.13135,8.2237,1.24487,7.462,3.77942,15.37573,5.55048,23.62793,3.15509A40.71156,40.71156,0,0,0,821.5874,232.782a5.51031,5.51031,0,0,1,1.638-3.204c.94635-1.44653,2.24842-2.08441,4.71039-1.5838,8.50195-.74518,16.75433-3.4068,25.12109-4.10687a8.91357,8.91357,0,0,0,2.86518-2.07538l4.25677-5.81482q.5247-.90792,1.04932-1.81592l-.05164.04084c1.44757-3.41059,2.94471-6.80133,4.32312-10.23969.74634-1.86163,1.4856-2.41565,3.87244-2.11517a38.63442,38.63442,0,0,0,22.33331-3.96546,26.50824,26.50824,0,0,0,14.54206-19.541,67.64356,67.64356,0,0,0,.69293-11.82544c.02716-2.96753.57745-4.40289,4.069-4.666,5.7276-.43164,10.59393-5.60053,12.02954-11.24372,2.16241-8.50024.71606-16.44415-3.31494-24.391,3.66968-.31818,6.80316-2.00494,10.03729-3.37591C941.70142,117.7973,943.736,102.23358,937.93213,92.85107ZM927.894,112.97247c-4.61481,3.52948-9.38263,5.6792-15.27478,5.29248-2.39837-.15741-4.66449.69641-5.6228,3.21076a5.329,5.329,0,0,0,1.89764,6.619c5.27948,3.88556,5.71143,10.00891,6.47522,15.51178,1.03443,7.45312-7.46557,12.60882-16.66144,10.32049-2.92974-.72906-5.03485-.94073-6.60833,1.90149-1.77161,3.20032-.11005,4.892,2.40826,6.87335,4.529,3.56324,4.78638,14.223,1.48157,19.18439-4.73285,7.10529-11.83771,9.67474-19.55335,11.2287a9.421,9.421,0,0,1-8.6939-2.53174c-3.36353-3.14874-7.1297-2.02569-8.42041,2.56433a73.36442,73.36442,0,0,1-8.12427,19.27686c-3.67591,5.89666-11.11908,9.327-17.80927,7.74365a2.9936,2.9936,0,0,1-2.56769-3.61163,3.58076,3.58076,0,0,0-2.69885-4.19117c-2.11316-.5957-3.74566.39844-5.086,2.189-2.76538,3.6944-5.938,7.10278-8.5025,10.92456-4.49872,6.704-11.01923,10.30206-18.43384,12.41541-4.915,1.40087-9.67535-.65632-13.66491-3.05286a16.08563,16.08563,0,0,0-14.94208-1.46454,49.61836,49.61836,0,0,1-12.44043,2.49438,90.695,90.695,0,0,0-20.4588,4.881c-1.601.55261-2.23859.16168-3.11078-1.2439-3.1026-4.99982-3.4223-10.14435-1.80933-15.70685.92841-3.20166,2.95374-6.99261-.50427-9.668-3.15894-2.44391-6.615-.09619-9.06482,1.663-5.33124,3.82806-11.20807,3.95465-16.16907,1.26373-6.31683-3.42639-9.0202-10.15094-10.09405-17.21686a47.8461,47.8461,0,0,1-.04523-6.59192,28.38856,28.38856,0,0,1,.87018-7.44311c.39624-1.32379-.0445-3.48126-2.66168-3.08618-3.14868.47534-4.05207-.59052-2.79163-3.72687,1.33081-3.31153-1.53564-5.61048-3.05023-7.78711a70.85227,70.85227,0,0,1-8.14185-14.57654c-2.81414-7.21429-1.38086-14.411,2.54407-20.716a18.59933,18.59933,0,0,1,10.97382-8.59406c2.75708-.75879,4.7464.7685,7.20471.59815,2.96222-.20533,4.42663-1.069,4.04077-4.12732-.37036-2.93506-.72479-5.87567-1.22418-8.79016-.96454-5.62946-.351-10.68506,4.32336-14.70881,2.51856-2.16809,4.77613-4.646,7.09271-7.04083,9.37378-9.69049,18.9032-9.85364,29.94849-3.88067,2.25159,1.21759,4.49152,2.205,6.40985.8648,1.76392-1.23236,2.04474-3.6065.66645-5.82025-.52234-.83893.0028-1.85809.50262-2.79724,4.65637-8.75,10.01-16.82184,19.38061-21.29767,6.48017-3.09521,13.08429-1.82025,17.81281,3.59705,2.03094,2.32678,4.159,4.58343,6.01575,7.04346,1.89422,2.50952,4.47369,2.01531,6.838,1.68408,2.34753-.32886,2.222-2.58252,2.23535-4.3739.0885-11.86762,20.58252-23.99848,32.64081-14.95752a19.81652,19.81652,0,0,1,6.97845,10.60571c.77545,2.78522,2.37519,4.89386,5.13532,5.55316,2.74945.65668,4.95672.64032,6.64453-2.98419C859.788,54.456,878.79065,48.95056,889.12543,54.99066c4.96112,2.89948,6.76471,8.40381,10.197,12.56665,1.2763,1.548-.26624,2.023-.92127,2.73187-1.39581,1.51062-2.8775,3.01661-1.86688,5.23511.96271,2.11341,2.93152,2.2699,5.06226,2.30982a31.76535,31.76535,0,0,1,30.10687,24.37524A9.878,9.878,0,0,1,927.894,112.97247Z" transform="translate(-198.01191 -40.81866)"/><path class="cls-3" d="M691.99768,820.994l.54-.66467q.0521.34094.10431.68194c-.24646-.05566-.49292-.11127-.7403-.16925Z" transform="translate(-198.01191 -40.81866)"/><path class="cls-3" d="M631.85254,298.31073c1.60736,13.86078,2.61731,27.75137,3.44141,41.69147.68414,11.57107-1.7,22.66635-2.25354,33.99951-.09736,1.99332-.04883,3.99374-.06763,5.9909-1.33814.71671-.95618,1.89426-.80634,3.00962.28156,1.48514-1.73608,2.3963-.99749,3.99554a113.66775,113.66775,0,0,1-4.07807,13.90976c-4.07275,12.55249-7.72943,13.124-3.69983,23.49625a.9765.9765,0,0,1-.43017.84506c-2.26471.93085-2.43659,3.99731-4.868,4.72974-3.5708,2.40454-6.44067,5.23648-6.10986,10.02-3.28-2.34464-2.81738-6.87314-2.03625-8.8703,2.456-6.27915,3.37768-12.8328,5.02246-19.23655,2.5177-9.80249,6.79455-19.05462,8.698-29.06543,1.02154-5.37246,1.24029-11.00259,3.86932-15.994.89416-1.6977-.84577-2.61042-1.05115-4.06433-.9541-6.75141,1.70654-13.29776.938-19.9357-1.77978-15.37226-.01562-31.13071-5.04059-46.15793a19.865,19.865,0,0,1-.74487-5.38758,109.89471,109.89471,0,0,0-2.57434-21.28842c2.2453-3.60739,5.5152-2.66253,8.72925-1.96582l1.35278,5.97013q.02041,1.49652.04071,2.993c.15772,3.705-1.19373,7.51565.7771,11.09363l.2038,3.90814Z" transform="translate(-198.01191 -40.81866)"/><path class="cls-4" d="M641.95581,256.87625c-3.18536.04892-7.38867,1.58289-7.34619-3.88887.02118-2.73315,2.32092-4.77136,4.58215-5.92169,4.783-2.43329,7.60077-7.00311,11.78205-10.0659,6.92858-5.07517,13.37707-10.87532,21.6347-13.85617a3.63229,3.63229,0,0,1,4.88043,2.18374c.75806,2.45239,1.80854,5.5414-1.636,7.29717-5.56354,1.2532-9.61084,5.043-13.95258,8.34025a13.58778,13.58778,0,0,0-6.01837,4.9845C650.65961,248.852,646.61127,253.251,641.95581,256.87625Z" transform="translate(-198.01191 -40.81866)"/><path class="cls-3" d="M409.69254,367.94785c5.23376.19717,8.7135,1.51416,9.9905,7.1044,2.55149,11.16964,9.1695,20.00463,18.57972,26.22293,4.88116,3.2254,10.1459-.04532,13.84643-3.33017,2.70822-2.404,6.17682-2.45642,8.81546-4.64508,1.19052-.98755,3.945-.89609,4.66,1.28585.8114,2.4755,1.19668,5.222-1.09763,7.42533-8.0404,7.72146-26.42691,10.55688-35.828,4.52011-4.455-2.86066-7.43-8.03207-9.31922-13.16162-1.30133-3.53333-3.28881-4.84888-6.69232-4.25107-3.74087.65714-2.553,3.784-2.578,6.04819-.15006,13.58563-7.47272,20.02981-21,21.1058-11.87619.94461-17.57828-6.64715-24.13669-13.82037-1.54294-1.68762.02033-2.602.6854-3.84314,1.16922-2.182,2.52728-3.86594,5.35653-3.6276,2.04544.17231,2.58625,1.33371,3.12656,3.163,2.90921,9.84927,11.222,13.61246,20.60086,9.42978,1.36038-.60666,3.12619-.88111,2.50381-3.45795-.67575-2.79782,2.28495-4.21582,3.59452-6.19049,1.83856-2.77225,3.25045-5.21075,3.5914-8.8074.28079-2.96192-.26633-4.60459-2.17676-6.40424-1.8992-1.789-4.28922-3.44366-2.74048-6.71753,1.65265-3.49359,2.35285-7.87018,7.69992-7.693A12.2811,12.2811,0,0,0,409.69254,367.94785Z" transform="translate(-198.01191 -40.81866)"/><path class="cls-3" d="M320.70462,423.50757c-.80441,1.46448-.5946,2.68378-1.72192,3.52359-8.53321,6.35669-12.84653,15.76971-17.26175,24.9248-3.10633,6.4411-8.97147,10.97861-11.34915,17.85446-.61606,1.7815-3.12464,1.71619-4.40015.8371a3.47851,3.47851,0,0,1-1.25131-4.73993c3.53143-5.38055,6.15753-11.2532,9.89023-16.59433,2.9103-4.16421,5.35037-9.14456,8.00445-13.564a50.16612,50.16612,0,0,1,13.66132-14.23462C318.52765,419.88916,319.60733,422.17459,320.70462,423.50757Z" transform="translate(-198.01191 -40.81866)"/><path class="cls-3" d="M256.86984,433.87381c-3.34875.29431-4.70736-.691-5.44645-2.2645-.74012-1.57562.71638-2.70691,1.71661-3.18524,13.80376-6.60168,22.35185-21.89609,39.08491-23.64508,1.18375-.12372,2.6521-1.66446,3.33518.20072.43042,1.17538-.90814,2.09613-1.88028,3.07269-4.36337,4.38364-10.22162,6.38281-15.10892,9.89807a25.57685,25.57685,0,0,0-6.03711,5.7294C268.34561,429.424,261.18616,430.63077,256.86984,433.87381Z" transform="translate(-198.01191 -40.81866)"/><path class="cls-3" d="M333.22931,300.91989c-9.69965.70007-18.04059,2.08649-23.617,9.95-1.39654,1.96933-3.31546,2.94394-5.49481,1.09452-1.86981-1.58673-1.52911-3.61167-.22128-5.28144,3.95447-5.04873,8.397-9.17425,15.00644-11.00653,5.83319-1.61706,11.65561-1.10876,17.46872-1.65445,2.75494-.2586,4.82513,2.26807,7.8258,2.05759,1.13224-.07941.78974,2.5722.74622,4.03006-.04538,1.51733-1.11621,1.72214-2.37769,1.92126C339.01935,302.5907,335.75131,300.59143,333.22931,300.91989Z" transform="translate(-198.01191 -40.81866)"/><path class="cls-3" d="M517.31238,371.38184c8.74273.44394,16.92554,1.60287,24.29663,6.30273,3.20434,2.04315,7.73358,1.35721,10.23785,5.2861,1.06378,1.66907,3.22992,2.85724,1.48523,4.90839-1.62024,1.90488-3.71271,1.238-5.859.18729-7.55713-3.69962-15.16418-7.3014-23.34735-9.50242-3.78784-1.01879-7.61175-.21038-11.39844-.56347-2.06512-.19257-5.02548-.19873-4.86593-2.80423.11392-1.85971,1.73843-4.4563,4.93576-3.39923C514.40509,372.32861,515.93158,370.46359,517.31238,371.38184Z" transform="translate(-198.01191 -40.81866)"/><path class="cls-3" d="M504.20352,356.117c-.95779-.2535-2.22516-.20916-2.74685-.81109-.90812-1.0477.23492-2.03677.67666-3.09421,1.33945-3.20645,4.3053-4.05017,7.06754-4.94412,8.43792-2.73074,16.54474-6.74387,25.79614-6.44595,2.21362.07128,4.4516-1.126,6.70471-1.61963,2.23816-.49039,4.04694-.05722,4.27728,2.6922.18885,2.25311-.38891,3.79968-3.07989,4.1416-12.33209,1.567-24.41229,4.14682-35.79648,9.377A15.47349,15.47349,0,0,1,504.20352,356.117Z" transform="translate(-198.01191 -40.81866)"/><path class="cls-3" d="M293.78918,380.47159c-1.82782,1.294-2.628,3.69287-5.93609,3.67843-11.06162-.0484-21.99262,1.90287-32.99539,2.84577a6.5487,6.5487,0,0,0-3.28138.93646c-2.3193,1.53793-4.80764,2.16571-6.088-1.10806-1.36012-3.478,1.16153-5.0694,3.91326-5.423,4.58734-.58935,9.11415-1.31564,13.62886-2.34762,9.40368-2.14945,19.01632.86032,28.47522-.90552C292.77356,377.91138,293.65146,378.82925,293.78918,380.47159Z" transform="translate(-198.01191 -40.81866)"/><path class="cls-3" d="M319.10818,339.74591c-1.42855-.64331-5.15167.80893-5.73641-3.63852-.22263-1.693.43063-3.21106,1.65975-2.86774,5.35471,1.49567,10.1865-2.00625,15.89219-.76834a17.50446,17.50446,0,0,0,14.9909-4.1278c1.93057-1.714,4.9639-5.46918,8.09317-2.40973,3.19724,3.12585-.23764,5.72781-2.04556,8.38885-1.94226,2.85877-5.09482,3.18534-7.736,3.51178C336.23682,338.82184,328.16144,339.11279,319.10818,339.74591Z" transform="translate(-198.01191 -40.81866)"/><path class="cls-3" d="M491.83264,318.99677c-3.38714.22634-6.70743-.00467-9.44586-2.16129-.99759-.78564-3.60287-.87787-2.56009-2.855.81238-1.54019,2.002-3.54181,4.44809-3.312a12.57277,12.57277,0,0,1,3.42694.4396c5.35568,2.14,9.89035.32071,14.36688-2.54446,2.03083-1.29981,4.68573-3.12448,6.45566-.06339,1.62723,2.81431.35474,5.31229-2.52762,6.97895A24.63667,24.63667,0,0,1,491.83264,318.99677Z" transform="translate(-198.01191 -40.81866)"/><path class="cls-3" d="M500.83789,275.46405a8.732,8.732,0,0,1,2.86554-.32153c2.45178.56979,3.43039,2.31881,3.30209,4.79849-.12219,2.36169-1.54742,3.39261-3.62094,3.01532-6.38836-1.16245-12.27115.91977-18.24316,2.51517-2.26929.60626-4.91852,1.55563-5.88867-1.46592-.96149-2.99453,1.12677-4.54638,3.88794-5.17941q8.78531-2.01411,17.57461-4.01077Z" transform="translate(-198.01191 -40.81866)"/><path class="cls-3" d="M531.0235,430.87378c-.00324.99255-.03662,1.98651.004,2.97739.07721,1.88757-.32874,3.25909-2.67164,3.16238-2.29174-.0946-4.82177-1.76276-4.08563-3.27124,3.11084-6.3739-2.90088-8.81162-4.87591-12.93643a6.64842,6.64842,0,0,0-1.64472-2.43271,3.50368,3.50368,0,0,1-.28082-5.59161c1.5694-1.52915,3.91461-.66871,5.63306.79867C528.41382,418.11615,531.40851,423.72388,531.0235,430.87378Z" transform="translate(-198.01191 -40.81866)"/><path class="cls-4" d="M334.60461,318.02011c-2.03555-.11612-4.66061.16538-4.3269-2.73923.32608-2.83783,2.98218-3.89151,5.51248-4.157,2.69419-.28268,3.155,1.68344,3.21951,3.9306C339.11108,318.58679,336.5856,317.8772,334.60461,318.02011Z" transform="translate(-198.01191 -40.81866)"/><path class="cls-4" d="M496.97693,296.03482c-2.55625-.10706-5.01108.05808-4.71341-2.88385.21857-2.16037,1.2857-4.14093,4.11151-4.1452,2.52289-.00382,3.53687,1.19052,3.65186,3.65286C500.15262,295.35251,498.94431,296.30023,496.97693,296.03482Z" transform="translate(-198.01191 -40.81866)"/><path class="cls-7" d="M648.29858,536.04749c-1.07464,4.23651-1.95318,8.05987-1.23138,12.92395,1.49335,10.064,5.63171,19.523,6.07581,29.76007a30.70338,30.70338,0,0,0,2.17077,9.28875c3.81677,9.902,1.81769,20.68555,5.41528,30.56141.89417,2.45465.10962,5.47943.356,8.21881,1.00006,11.11853,2.27039,22.21215,3.45075,33.3078.69714,6.55285,1.7738,13.08264,2.19867,19.66839.39538,6.12781.66021,12.25952,2.64233,18.16431.26807.79846-.1004,1.798-.1131,2.7052-.10406,7.44427,1.10742,14.76733,1.7865,22.13531a52.28075,52.28075,0,0,1-.59533,12.433c-.71247,4.59143-.13874,9.22357-.03565,13.84985a188.41806,188.41806,0,0,1-.9494,25.01587c-.51679,4.63519-2.48438,10.00476-2.17194,13.86389.54938,6.78577-1.13824,13.0622-1.231,19.57117-.099,6.94781-3.0113,13.60773-2.08326,20.67316a3.23733,3.23733,0,0,1-.90478,2.17047c-5.39954,6.1026-4.96576,8.837,2.24176,13.58606-2.95154,4.20172-6.73059,7.09381-12.08307,7.1228-5.07147.02753-9.95453,1.61285-14.3313,3.48718-7.52179,3.22125-15.77991,3.61585-23.16138,7.1369-3.60479,1.71955-4.701.30494-4.43756-3.76434,1.02137-15.77985,3.09546-31.42511,5.53772-47.03394.95294-6.09027,3.07166-12.01239,2.93824-18.25018-.12018-5.61658,2.87719-10.78943,2.82794-16.05731-.04224-4.511.99615-8.6272,1.32129-12.90784.35211-4.63568,2.2799-8.89489,2.21008-13.62463-.036-2.44043.96216-4.76141.45764-7.56915a13.71923,13.71923,0,0,1,1.87195-8.74878c1.85211-3.31427,3.47607-6.811,1.90137-10.86615-.67023-1.72589,1.3374-2.41858,1.9757-3.67261,7.03022-13.81281,9.036-28.5893,9.63593-43.90021.67566-17.24286,1.73627-34.46454,2.0116-51.732.09344-5.86353,1.96173-11.68409,2.78082-17.55744.36487-2.61621.54968-5.65429-2.811-6.655a5.77759,5.77759,0,0,0-6.97924,2.47565,3.54107,3.54107,0,0,0-.74774,2.267c1.98492,8.61774-1.4516,16.92792-1.32093,25.52441.22388,14.71637-1.01776,29.46076-1.81781,44.184-.29858,5.49384-4.39789,7.38074-8.79876,4.0293a8.083,8.083,0,0,0-5.49024-1.67993c-7.012.123-13.963-1.73352-21.05481-.28192-2.70489.55371-2.04547-2.28168-1.82043-3.59351.95068-5.54272,1.67077-11.0733,2.09289-16.70416,1.21448-16.20307,1.70038-32.33814-1.43616-48.834.03864,4.86359-2.59277,4.90283-5.83544,3.97083-4.19245-1.205-5.26831,1.11963-4.479,4.5,3.04,13.01819-.12439,25.626-1.68609,38.4527-1.20252,9.87652-1.45636,19.92132-2.43171,29.8692-.79742,8.13287-1.46624,16.25744-3.722,24.19946a68.39459,68.39459,0,0,0-2.50256,15.10663c-.26661,4.99078-1.68384,9.94018-3.16327,14.87976-1.59442,5.32361-1.91584,11.39453-3.44306,16.7232-2.06677,7.21143-1.36181,14.64771-3.7962,21.85737-2.657,7.869-3.011,16.51635-4.36176,24.82556a252.15156,252.15156,0,0,0-2.75634,33.80822c-.22864,8.43421-.86805,16.9574-.7005,25.484.109,5.54834-.47675,5.1106-5.875,4.13068-6.65632-1.20838-13.66822-4.03717-20.40381.30078a2.63738,2.63738,0,0,1-2.37885.06268c-3.52582-2.54156-6.73041-1.10492-10.55035-.37549a53.50714,53.50714,0,0,1-21.35807-.60327c-2.88018-.62384-6.11453-1.79144-9.20544-.20544-1.185.608-2.6228.49267-3.174-.5072-1.62012-2.93854-4.16986-1.79962-6.43659-1.73914-.93325.0249-2.30041,1.13013-2.77722.31824-2.44439-4.16248-5.76715-2.12171-8.71414-1.28046a14.99912,14.99912,0,0,1-7.78979-.1347c-3.38926-.76166-6.80365-.058-10.23465.73523-4.87644,1.12738-9.68909-.95185-14.81632-.51416a138.30833,138.30833,0,0,1-27.99866-.73816c-12.96469-1.54969-26.0017.30414-39.029-2.32733-8.17334-1.65107-17.11364-1.04377-25.57379.562-3.56171.676-6.28961-1.47882-9.2847-2.12921-5.83926-1.26789-11.45535-.19507-17.13644-.56733-6.71481-.44006-13.45239-.28814-20.098-1.73-3.1626-.68615-7.16663-2.219-9.54218-.97888-9.58847,5.00513-18.001-1.13055-26.86236-2.09979a6.682,6.682,0,0,1-5.66842-6.46362c-.10331-18.70667.2004-37.382,1.86684-56.04248.50943-5.70466.71867-11.548-.63863-17.36139-1.33885-5.73444,1.02588-11.52179.77628-17.31977-.56511-13.12646,2.232-26.02112,2.63579-39.04059.287-9.25408,1.60425-18.47235.9845-27.77728-.38685-5.80768,1.63885-11.4024,2.37106-17.11645,1.26214-9.84973,4.93628-19.33374,4.31424-29.48627-.113-1.84509,3.19937-4.10638-1.04727-5.24341-.76059-.20367.21548-.63037.50955-.869,3.48865-2.83056,3.351-7.04748,4.16937-10.89624,2.39218-11.25042,4.87607-22.48248,7.13333-33.76,1.70713-8.5288,2.90552-17.162,4.71146-25.6679,3.65607-17.21979,6.20911-34.73249,12.597-51.266,2.36026-6.10888,2.66666-5.9281,7.727-2.15863,14.45374,10.76673,29.41382,20.86548,45.38965,29.15577a155.91526,155.91526,0,0,0,39.18283,13.626,24.29523,24.29523,0,0,1,4.70169,1.533c13.76337,6.09949,28.41379,6.69886,43.134,7.53852,9.79669.55889,19.57244.8291,29.37036.86273,19.74041.06781,39.077-2.60016,56.25149-12.77429,12.71771-7.534,26.30524-13.6352,38.14862-22.67347a37.48021,37.48021,0,0,1,9.35993-5.45507c2.60663-.99012,5.16443-1.72162,7.05865-4.73175,1.28394-2.04017,5.74915-1.01337,8.74335-2.7287,4.5003-2.578,7.98022-5.51358,10.58636-10.12931,3.05121-5.404,8.8349-8.887,10.94526-15.18939,2.40911-7.19461,5.32855-14.21768,7.97772-21.33334.35-.94.49585-1.93643,1.8565-2.64252,3.59443,9.10419,9.28522,17.04007,12.76892,26.26694,4.47236,11.8454,9.88733,23.38675,17.47773,33.72543C646.22333,528.37994,647.33728,532.21265,648.29858,536.04749Z" transform="translate(-198.01191 -40.81866)"/><path class="cls-7" d="M246.71092,589.68488a63.25946,63.25946,0,0,0,8.82883-17.71009c1.75807-5.39819,6.37193-9.16162,10.7798-12.69854a2.15,2.15,0,0,1,.668,2.87945c-3.74976,5.79334-4.18591,12.71558-6.36005,19.02808-2.06393,5.99237-1.78464,12.75219-3.39694,18.95056-1.68362,6.47241-1.40079,13.24493-3.57579,19.5841-.269.78394-.85152,1.65613-.699,2.3595,2.08539,9.61633-2.33263,18.82416-1.78091,28.39752.13925,2.41632-.87175,5.236-1.09958,7.929-.18637,2.20294-2.08379,1.66724-3.49341,1.77429-4.718.35828-9.05966-2.46106-14.01769-1.298-2.382.55871-1.83236-2.37165-1.68945-3.774a177.05032,177.05032,0,0,1,2.38789-18.1626,47.23845,47.23845,0,0,0,.799-9.835c-.03518-9.72241,6.7258-17.13995,8.20388-26.22174.63233-3.88519,3.12468-6.63092,4.75432-9.90265l-.04777.03711.40982-.11756-.20319-.65679Q246.95016,589.96174,246.71092,589.68488Z" transform="translate(-198.01191 -40.81866)"/><path class="cls-3" d="M203.6376,933.71545l.13816.33863q-.262.049-.52393.0979a.93967.93967,0,0,1,.08072-.36566C203.37909,933.7226,203.53214,933.73639,203.6376,933.71545Z" transform="translate(-198.01191 -40.81866)"/><path class="cls-7" d="M247.01985,590.98462q-1.39372-.35532-.30745-1.298c.158.18287.31394.37037.4661.55976a1.6814,1.6814,0,0,1-.20641.77539Z" transform="translate(-198.01191 -40.81866)"/><path class="cls-8" d="M693.79547,193.25134a28.38854,28.38854,0,0,1,.87018-7.4431c.39624-1.32382-.0445-3.48124-2.66168-3.08616-3.14868.47534-4.05207-.59055-2.79163-3.72692,1.33081-3.31152-1.53564-5.61047-3.05023-7.78711a70.85269,70.85269,0,0,1-8.14185-14.57649c-2.81414-7.21432-1.38086-14.411,2.54407-20.716a18.59942,18.59942,0,0,1,10.97382-8.59407c2.75708-.75877,4.7464.76849,7.20471.59814,2.96222-.20528,4.42663-1.069,4.04077-4.12726-.37036-2.93508-.72479-5.87568-1.22418-8.79021-.96454-5.62945-.351-10.68507,4.32336-14.70881,2.51856-2.16806,4.77613-4.646,7.09271-7.04083,9.37378-9.69047,18.9032-9.85363,29.94849-3.88064,2.25159,1.21758,4.49152,2.205,6.40985.86478,1.76392-1.23232,2.04474-3.60652.66645-5.82022-.52234-.839.0028-1.85811.50262-2.79725,4.65637-8.75,10.01-16.82186,19.38061-21.29768,6.48017-3.09523,13.08429-1.82027,17.81281,3.597,2.03094,2.32679,4.159,4.58348,6.01575,7.04346,1.89422,2.50954,4.47369,2.01534,6.838,1.68414,2.34753-.32886,2.222-2.58256,2.23535-4.37394.0885-11.86758,20.58252-23.99844,32.64081-14.95753a19.81669,19.81669,0,0,1,6.97845,10.60572c.77545,2.7852,2.37519,4.89385,5.13532,5.55315,2.74945.65673,4.95672.64037,6.64453-2.9842C859.788,54.456,878.79065,48.95058,889.12543,54.99065c4.96112,2.89947,6.76471,8.40381,10.197,12.56669,1.2763,1.548-.26624,2.023-.92127,2.73185-1.39581,1.5106-2.8775,3.01662-1.86688,5.23514.96271,2.1134,2.93152,2.26985,5.06226,2.30979a31.76539,31.76539,0,0,1,30.10687,24.37522,9.878,9.878,0,0,1-3.80939,10.76313c-4.61481,3.52947-9.38263,5.67923-15.27478,5.29249-2.39837-.15742-4.66449.69644-5.6228,3.21074a5.32911,5.32911,0,0,0,1.89764,6.61906c5.27948,3.88556,5.71143,10.00888,6.47522,15.51175,1.03443,7.45314-7.46557,12.60884-16.66144,10.32051-2.92974-.72905-5.03485-.94075-6.60833,1.9015-1.77161,3.20032-.11005,4.892,2.40826,6.87335,4.529,3.56321,4.78638,14.223,1.48157,19.18439-4.73285,7.10524-11.83771,9.67471-19.55335,11.22865a9.421,9.421,0,0,1-8.6939-2.53172c-3.36353-3.14876-7.1297-2.02566-8.42041,2.56435a73.364,73.364,0,0,1-8.12427,19.27684c-3.67591,5.89666-11.11908,9.32695-17.80927,7.74367a2.99362,2.99362,0,0,1-2.56769-3.61162,3.58077,3.58077,0,0,0-2.69885-4.1912c-2.11316-.59568-3.74566.39843-5.086,2.189-2.76538,3.6944-5.938,7.10283-8.5025,10.92456-4.49872,6.70409-11.01923,10.3021-18.43384,12.41544-4.915,1.40088-9.67535-.65633-13.66491-3.05284a16.08569,16.08569,0,0,0-14.94208-1.46459,49.61708,49.61708,0,0,1-12.44043,2.49442,90.69338,90.69338,0,0,0-20.4588,4.881c-1.601.55263-2.23859.16165-3.11078-1.24388-3.1026-4.99985-3.4223-10.14438-1.80933-15.70689.92841-3.20166,2.95374-6.9926-.50427-9.66794-3.15894-2.4439-6.615-.09618-9.06482,1.66295-5.33124,3.82808-11.20807,3.95465-16.16907,1.26374-6.31683-3.42639-9.0202-10.15094-10.09405-17.21685A47.84638,47.84638,0,0,1,693.79547,193.25134Zm52.178-59.1588.145.04847-.1972-.09816c.42614-2.91.42456-5.67211-3.01746-6.82528a5.51122,5.51122,0,0,0-6.4903,2.48494c-8.759,13.18833-10.86669,27.34377-5.11267,42.27338,2.32123,6.02265,7.50946,8.60426,13.8711,7.8557,2.85968-.33652,4.41211-2.86136,6.87158-3.68921,3.66681-1.23425,3.52716-3.83142,1.9563-6.20848-1.48438-2.24625-3.77973-3.47728-6.611-1.26528-4.3258,3.37963-6.01586,2.78481-8.32989-2.05851-3.84491-8.04766-2.6665-16.21489.22809-23.92581C740.44116,139.60979,740.867,134.64015,745.97351,134.09254Zm35.83032,13.96984c.0232-12.693-8.51013-18.74372-18.84063-14.892-4.51416,1.68308-10.28644,8.7813-8.50519,11.45014,2.97149,4.45192-.4986,8.08337-.44489,12.07747.06043,4.50253,1.08954,9.98486,5.16779,12.64723,4.17383,2.72476,8.2091,1.36136,11.879-1.13712C778.66595,163.02971,781.23694,155.25238,781.80383,148.06238Zm45.00989-15.12309c.05212-5.18425-3.684-10.22009-7.97314-10.74684-6.96869-.85583-11.98218,1.92178-13.07508,7.91065a27.30772,27.30772,0,0,1-3.35168,8.75965c-3.34015,5.93969,1.21564,13.0459,8.03351,12.921C820.19122,151.60524,825.37,143.6514,826.81372,132.93929Zm29.38989,16.8769c3.66547.90526,7.79071-.975,12.08484-1.17054,2.94867-.13425,5.17133-2.11051,4.49805-5.6839-.70374-3.73458-3.29327-3.14652-6.01355-2.6973-3.95966.6539-7.96149,1.0574-11.94977,1.53069-2.44025.28958-4.51953-1.8299-4.18628-3.1708.83264-3.34962-.56854-6.55781.64392-10.06659a35.60333,35.60333,0,0,0,1.45825-15.65682c-.29174-2.46748-1.003-5.261-4.476-4.60056-3.01233.57288-4.7666,2.848-3.84546,5.77452.62763,1.99406.01709,3.56445-.30816,5.21936a82.3914,82.3914,0,0,0-1.95771,17.1311C842.28619,145.79323,846.19708,149.81445,856.20361,149.81619Z" transform="translate(-198.01191 -40.81866)"/><path class="cls-3" d="M720.19019,325.27161q.28958-.4038.5791-.8075l.31689.4509q-.45675.1701-.91528.339Z" transform="translate(-198.01191 -40.81866)"/><path class="cls-5" d="M246.97208,591.02173a1.68129,1.68129,0,0,0,.20642-.77539q.10191.33.2034.65783Z" transform="translate(-198.01191 -40.81866)"/><path class="cls-9" d="M781.80383,148.06238c-.56689,7.19-3.13788,14.96733-10.74395,20.14567-3.66987,2.49848-7.70514,3.86188-11.879,1.13712-4.07825-2.66237-5.10736-8.1447-5.16779-12.64723-.05371-3.9941,3.41638-7.62555.44489-12.07747-1.78125-2.66884,3.991-9.76706,8.50519-11.45014C773.2937,129.31866,781.827,135.36938,781.80383,148.06238Zm-8.157-.82646c-1.35059-1.6428-.598-5.08467-3.37775-6.2101-2.68023-1.08518-4.75427.944-6.48211,2.63339-2.42273,2.36874-2.80567,13.68425-.88068,16.54509a1.86677,1.86677,0,0,0,2.95355.51009A19.5962,19.5962,0,0,0,773.64679,147.23592Z" transform="translate(-198.01191 -40.81866)"/><path class="cls-9" d="M745.97632,134.097c-5.10932.54312-5.53516,5.51276-6.68927,8.58727-2.89459,7.71092-4.073,15.87815-.22809,23.92581,2.314,4.84332,4.00409,5.43814,8.32989,2.05851,2.8313-2.212,5.12665-.981,6.611,1.26528,1.57086,2.37706,1.71051,4.97423-1.9563,6.20848-2.45947.82785-4.0119,3.35269-6.87158,3.68921-6.36164.74856-11.54987-1.83305-13.8711-7.8557-5.754-14.92961-3.6463-29.085,5.11267-42.27338a5.51122,5.51122,0,0,1,6.4903-2.48494c3.442,1.15317,3.4436,3.9153,3.01746,6.82528Z" transform="translate(-198.01191 -40.81866)"/><path class="cls-9" d="M826.81372,132.93929c-1.44372,10.71211-6.6225,18.666-16.36639,18.84445-6.81787.12491-11.37366-6.9813-8.03351-12.921a27.30772,27.30772,0,0,0,3.35168-8.75965c1.0929-5.98887,6.10639-8.76648,13.07508-7.91065C823.1297,122.7192,826.86584,127.755,826.81372,132.93929Zm-15.19549,10.04295c2.72131-2.81926,6.20391-4.77045,6.38177-9.287.0462-1.17343-.32965-2.07817-1.27435-2.35652a2.38314,2.38314,0,0,0-2.1554.69046C812.82434,135.30582,808.89563,137.98184,811.61823,142.98224Z" transform="translate(-198.01191 -40.81866)"/><path class="cls-9" d="M856.20361,149.81619c-10.00653-.00174-13.91742-4.023-14.05188-13.39084a82.3914,82.3914,0,0,1,1.95771-17.1311c.32525-1.65491.93579-3.2253.30816-5.21936-.92114-2.92651.83313-5.20164,3.84546-5.77452,3.473-.66049,4.18427,2.13308,4.476,4.60056a35.60333,35.60333,0,0,1-1.45825,15.65682c-1.21246,3.50878.18872,6.717-.64392,10.06659-.33325,1.3409,1.746,3.46038,4.18628,3.1708,3.98828-.47329,7.99011-.87679,11.94977-1.53069,2.72028-.44922,5.30981-1.03728,6.01355,2.6973.67328,3.57339-1.54938,5.54965-4.49805,5.6839C863.99432,148.84116,859.86908,150.72145,856.20361,149.81619Z" transform="translate(-198.01191 -40.81866)"/><polygon class="cls-9" points="547.909 93.224 548.107 93.322 547.963 93.276 547.909 93.224"/><path class="cls-8" d="M773.64679,147.23592a19.5962,19.5962,0,0,1-7.787,13.47847,1.86677,1.86677,0,0,1-2.95355-.51009c-1.925-2.86084-1.54205-14.17635.88068-16.54509,1.72784-1.68935,3.80188-3.71857,6.48211-2.63339C773.04877,142.15125,772.2962,145.59312,773.64679,147.23592Z" transform="translate(-198.01191 -40.81866)"/><path class="cls-8" d="M811.61823,142.98224c-2.7226-5.0004,1.20611-7.67642,2.952-10.953a2.38314,2.38314,0,0,1,2.1554-.69046c.9447.27835,1.32055,1.18309,1.27435,2.35652C817.82214,138.21179,814.33954,140.163,811.61823,142.98224Z" transform="translate(-198.01191 -40.81866)"/></svg>