<svg id="Layer_1" data-name="Layer 1" xmlns="http://www.w3.org/2000/svg" viewBox="0 0 481.9793 459.9793"><defs><style>.cls-1{fill:#fefefe;}.cls-2{fill:#0a0073;}.cls-3{fill:#463f95;}.cls-4{fill:#8b643f;}.cls-5{fill:#e60127;}.cls-6{fill:#0aa973;}.cls-7{fill:#020202;}.cls-8{fill:#f6931f;}.cls-9{fill:#630;}.cls-10{fill:#030303;}.cls-11{fill:#fecb35;}.cls-12{fill:#050202;}.cls-13{fill:#fefdfd;}.cls-14{fill:#fcfcfc;}.cls-15{fill:#f8f8f8;}.cls-16{fill:#f587bc;}</style></defs><title>friends-optimized</title><path class="cls-1" d="M54.8581,459.9461q-26.6376,0-53.275.0329C.264,459.9827,0,459.7425,0,458.5715Q.0563,229.9889,0,1.4062C0,.2352.2647,0,1.5829,0Q240.99.05,480.3963,0c1.3182,0,1.5833.2352,1.583,1.4062q-.0563,228.5826,0,457.1653c0,1.171-.2638,1.4121-1.5831,1.4077-15.5475-.0515-31.0954-.0331-46.6432-.0331q.3339-11.35.6671-22.7006c.4474-15.485-.0511-30.9561-.8056-46.4254-.4008-8.217-1.53-16.3957-1.5668-24.631-.0142-3.1579-.4054-6.2568-2.3668-9.0209.6053-8.8708.8107-17.7545.956-26.6365q.3947-24.1248-1.3644-48.208c-.3909-5.4693-1.0339-10.9249-1.595-16.3841-.459-4.466-.9675-8.9279-1.4542-13.3917,4.1591,1.3751,8.2461,1.5673,12.3046-.3749,8.0466-3.851,14.1576-14.78,12.7421-22.7838-1.19-6.73-5.52-11.9751-10.1242-17.0915a3.0957,3.0957,0,0,0-2.1223-.9277c-.2229-6.7012-4.1183-9.3432-11.1647-7.5723a13.1039,13.1039,0,0,0,1.8492-4.241c1.5512-3.3788,3.1623-6.7371,4.6376-10.1418,1.63-3.7616,3.516-7.4664,2.9771-11.6994a33.4707,33.4707,0,0,0-2.0866-8.9781,46.9244,46.9244,0,0,1-2.9238-29.23,84.2154,84.2154,0,0,0,2.2221-15.3208c.2616-7.415-1.6595-14.4972-4.7226-21.3549a3.2094,3.2094,0,0,0-.784-1.1547c-3.8123-3.2188-8.23-4.91-13.4883-3.5324a86.3212,86.3212,0,0,0-12.2851,4.3143c-8.1009,3.4945-15.4478,8.1112-23.014,12.3988a53.512,53.512,0,0,1-12.1551,5.4959,7.2424,7.2424,0,0,1-3.4741.1593,81.9051,81.9051,0,0,0-18.7551-2.0379,2.477,2.477,0,0,1-2.6654-1.5859c-4.0542-10.2037-9.22-19.92-16.7326-28.516-4.8024-5.4951-10.5962-9.7886-18.5824-11.1542a6.0982,6.0982,0,0,0-3.0173.0532,27.0862,27.0862,0,0,0-9.8689,5.3991c-6.4129,5.64-9.9705,12.68-12.3775,20.24-1.4782,4.6429-3.0887,9.2457-4.69,13.8548-2.0041,5.7684-5.7986,10.8261-7.9807,16.5145-.9939,2.5908-2.1255,5.1445-3.3128,7.6711-3.1984,6.806-6.6294,13.51-11.52,19.5308a17.8332,17.8332,0,0,0-9.5889-7.6641c-5.1192-1.7834-8.82-1.0284-12.4235,2.5646a36.6326,36.6326,0,0,0,.6092-8.5493c-.1516-10.5605-2.5216-20.6618-10.0565-29.0383-8.0281-8.9247-12.5739-19.556-19.27-29.1168-3.1042-4.4325-5.9194-9.026-9.5937-13.1158-3-3.34-6.5089-3.3379-9.6269-.0739a50.8771,50.8771,0,0,0-6.3537,8.67,10.6273,10.6273,0,0,1-8.331,5.0144c-4.3135.4-8.6923.4536-12.8964,1.4442-11.2711,2.6558-22.2863,6.0768-33.56,8.7658-10.7327,2.56-20.5108,7.3865-30.525,11.5918a5.4485,5.4485,0,0,1-3.1666.3556,17.7264,17.7264,0,0,1-9.9938-5.036c-5.1061-5.173-11.4356-8.3905-18.7312-10.425-4.2286-1.1791-7.5209.27-8.4975,4.1374a13.3347,13.3347,0,0,0-.3744,2.3258c-.34,4.8829-.4864,9.7814-1.0153,14.6475-.6162,5.6688-.0326,11.3709-.8725,17.0294a40.99,40.99,0,0,0-.2038,10.5718,253.4423,253.4423,0,0,0,5.2688,31.6813c-5.797.4266-9.5649,3.6917-12.8292,7.47-5.1971,6.0156-7.2547,13.1412-8.5076,20.46-.5786,3.38-1.7262,6.75-.9612,10.2419a9.2081,9.2081,0,0,0-4.9714,2.3862,23.7174,23.7174,0,0,0-6.2139,17.3589,32.4513,32.4513,0,0,0,3.0329,11.5937,4.0838,4.0838,0,0,0-2.6183,2.4238c-4.8088,10.2028-6.64,20.9348-6.8366,31.8751-.3175,17.6461-.0155,35.2955.2773,52.9419.1127,6.7965.0118,13.59-.0474,20.386-.0878,10.07,1.3329,20.0656,2.4985,30.0542.8067,6.9135,1.3987,13.8851,3.27,20.6789.2156,2.0755.5492,4.1479.6183,6.2273a13.2916,13.2916,0,0,0,2.85,7.8047c.5129.6733,1.1063,1.4763,2.0406.9195,2.09-1.2455,3.0893-.2522,4.2331,1.182,2.8141,3.5284,6.202,4.2,9.7526,1.7448,3.3857-2.3413,6.1847-4.9627,5.98-9.3836-.2406-5.2056-.3631-10.3967-1.495-15.5256a10.91,10.91,0,0,0-.2009-2.9167c-.277-1.8485-1.6346-3.3845-1.9411-5.1661-1.8073-10.5071-3.5243-21.0214-4.1171-31.6614a90.4807,90.4807,0,0,1,1.0431-21.2749c.91-5.0172,2.2179-10.0022,2.533-15.07.5065-8.1466.5718-16.3143.889-24.471.2944-7.57.5783-15.1421,1.0645-22.7032.194-3.0164.0178-6.1832,2.205-8.8473a2.46,2.46,0,0,1,4.2278.1869,5.9976,5.9976,0,0,1,.691,4.3642,181.04,181.04,0,0,0-2.8248,29.811c-.0726,5.5569.0008,11.1177-.2065,16.67-.2771,7.4219-.4589,14.8307-1.2811,22.2563-.7419,6.7011.1225,13.5591.7112,20.3325a156.111,156.111,0,0,0,3.68,23.5947c1.8794,8.5754,3.9019,17.1232,4.4715,25.87.4945,7.5939-.7271,15.1193-1.3515,22.6629a237.1146,237.1146,0,0,0-.6251,28.7876ZM369.46,33.56a55.3656,55.3656,0,0,1-2.3632-8.7406,39.288,39.288,0,0,1-.2306-6.2509,24.9416,24.9416,0,0,0-.6948-7.2018,5.6364,5.6364,0,0,0-6.0324-3.6628c-2.7869.2037-4.614,1.8129-4.7923,4.5332a47.9515,47.9515,0,0,0-.116,8.8153c.2767,2.2993-.3687,3.2271-2.8343,4.0241-3.0768.9946-5.8811,2.4158-9.373,2.25a20.9887,20.9887,0,0,0-14.9317,5.3009,19.8478,19.8478,0,0,1-4.8769,3.0111,6.2685,6.2685,0,0,1-6.7664-.6785c-1.3184-1.0353-2.5075-2.2058-3.705-3.3564-1.6976-1.6312-3.2307-3.4117-5.0436-4.9312a12.5567,12.5567,0,0,0-16.9559.077c-.9915.848-1.27.4017-1.9427-.1688-6.3592-5.3939-14.122-5.293-20.3319.2565a59.375,59.375,0,0,0-7.2786,8.1237,24.6744,24.6744,0,0,1-4.3981,4.64,7.2653,7.2653,0,0,1-5.6856,1.6164c-1.3963-.2123-2.4405-.6207-1.68-2.3256a15.4841,15.4841,0,0,0,.7873-9.2763c-.9952-5.4528-5.1295-8.5653-10.4955-8.0008a9.1618,9.1618,0,0,0-8.0312,9.9648,17.5785,17.5785,0,0,0,2.2231,6.9253c1.2517,2.3844,1.23,2.4525-1.6823,3.284a8.7747,8.7747,0,0,1-1.2816.2816,12.8662,12.8662,0,0,1-12.8654-5.5467c-2.5277-3.4612-3.5765-7.4039-4.5287-11.3735-.661-2.7561-2.6519-3.9541-5.7867-3.5586a5.738,5.738,0,0,0-5.2553,5.2415c-.3763,3.7668-.4923,7.5928-2.6183,11.0327-2.8789,4.658-7.73,5.48-12.2815,2.08-.6189-.4623-1.1718-.9935-1.7706-1.4779-4.1032-3.319-7.0331-7.5688-11.0272-10.9725a23.7748,23.7748,0,0,0-14.7215-5.9329c-9.1788-.4178-15.2828,4.1719-16.356,12.3018-.3518,2.6656-.7264,5.3261-2.6,7.59-.7389.8928-1.3078,1.3953-2.5753.4008a9.8992,9.8992,0,0,0-8.5724-2.0686c-.4244.0943-.9912.3138-1.0082-.2627-.0694-2.3425-1.7086-4.52-.4674-7.0328,2.2946-4.6452,2.066-9.45.1925-14.1586-1.4329-3.6012-6.2774-4.4362-9.3174-1.728a11.0546,11.0546,0,0,0-3.0774,4.4746,13.2689,13.2689,0,0,0-.3732,8.1306c.6511,2.4336-.7412,3.4782-2.72,4.4122a19.482,19.482,0,0,1-2.3985.9785,30.9939,30.9939,0,0,1-16.918.388c-3.649-.8747-6.2877.2352-7.1884,3.0219-.9886,3.0587.5634,5.5714,4.0967,6.5258a40.6377,40.6377,0,0,0,17.0172.8252,44.8281,44.8281,0,0,0,10.18-2.987A156.3,156.3,0,0,1,120.75,59.2427c.5026,4.5584,1.2655,9.0931,3.68,13.2314a10.2239,10.2239,0,0,0,10.1291,5.3729,12.5985,12.5985,0,0,0,11.2849-7.6347,21.7125,21.7125,0,0,0,.9125-17.7887,1.6094,1.6094,0,0,1,.67-2.2833,16.1686,16.1686,0,0,0,6.0781-8.4516q.9483-3.2193,1.8849-6.4414c1.0723-3.7014,2.6184-4.4832,6.7377-3.3444a15.6287,15.6287,0,0,1,6.104,3.4043,76.8007,76.8007,0,0,1,7.015,7.5652A28.391,28.391,0,0,0,185.48,50.4856c8.2178,3.479,17.2984,1.2352,22.2983-5.5061.5555-.749,1.0651-1.5247,1.674-2.4.4269.46.8048.8435,1.1545,1.2467,8.1478,9.3921,19.1481,11.2708,30.512,5.11,1.1006-.5967,1.5349-.0788,2.2093.3263,7.161,4.3017,14.7231,3.6524,20.74-1.86a76.8544,76.8544,0,0,0,8.3235-9.6373c2.9291-3.7372,2.8766-3.6624,7.9381-2.8695a3.6214,3.6214,0,0,1,3.2756,2.418c.5118,1.36,1.0647,2.7088,1.6306,4.0522.8793,2.0873,3.7138,3.5941,6.39,3.4224,2.6063-.1672,3.9442-1.3532,4.4763-4.0686a14.9921,14.9921,0,0,1,.9956-3.405,3.563,3.563,0,0,1,2.842-2.4694c1.5553-.1932,2.4122.7773,3.1821,1.7546a42.234,42.234,0,0,0,5.8744,6.106,17.018,17.018,0,0,0,11.1117,4.1384c4.9638.0661,8.8865-1.9628,12.4608-4.7543a22.0926,22.0926,0,0,1,4.9547-3.1979,19.4561,19.4561,0,0,0-1.0383,9.7576,8.9274,8.9274,0,0,0,6.35,7.3855c3.836,1.291,7.0621.1975,9.9408-2.0823a22.6639,22.6639,0,0,0,4.1952-4.5316,59.3982,59.3982,0,0,0,4.1418-6.8984c.2738-.5071.2467-1.1065,1.3035-.5046,5.6739,3.2313,9.1051,2.8054,13.68-1.6284,1.69-1.6377,3.2079-3.4144,4.87-5.076,6.38-6.3787,11.1323-5.87,15.7433,1.665.05.0809-.0047.2119-.0146.3964-.796.2768-1.6187.5445-2.4252.8464-4.8979,1.8331-8.644,4.6626-10.2525,9.3492a17.2685,17.2685,0,0,0-.6332,7.7769c.6888,5.7014,2.5384,11.0307,7.3273,15.1558a12.7307,12.7307,0,0,0,15.8562.6778,16.0072,16.0072,0,0,0,6.0016-7.8114c2.1125-5.6232,1.8424-11.3412.6275-17.0512-.3009-1.4143-.2837-2.0019,1.6152-1.876a49.99,49.99,0,0,0,6.4023-.0652c3.5069-.2193,5.7842-2.77,5.4611-5.96-.2885-2.8488-2.3209-4.14-6.0984-3.8941a80.03,80.03,0,0,0-8.5736.6056c-2.3633.4148-3.3287-.3237-4.3368-2.06a28.1466,28.1466,0,0,0-9.2284-9.6155c-7.3377-4.7251-15.591-4.1988-22.0144,1.4329A29.8889,29.8889,0,0,0,369.46,33.56ZM212.0373,5.1219A4.7862,4.7862,0,0,0,207.0024.4372C204.08.4192,201.596,2.5415,201.57,5.0785c-.0259,2.4973,2.4493,4.666,5.3737,4.7082A4.8655,4.8655,0,0,0,212.0373,5.1219Z"/><path class="cls-2" d="M429.6807,357.1685c1.9615,2.7638,2.3527,5.8627,2.3669,9.0206.0371,8.2353,1.166,16.414,1.5668,24.631.7545,15.4693,1.253,30.94.8056,46.4254q-.3279,11.35-.6671,22.7006h-.8842c-.7173-.7062-1.6634-.3756-2.4959-.3764q-31.2739-.0306-62.5479-.0151-86.4176.0033-172.8353.0069-.1767-.5927-.3539-1.1858c.0306-6.0778-.6129-12.1284-1.0924-18.1782-.6437-8.1218-1.5934-16.2262-2.528-24.3275-.7547-6.5412-1.8288-13.0551-2.4806-19.6032-.4386-4.4052-.92-8.8343-.2568-13.2812.5779-3.8721.9146-7.7727,1.489-11.6453.2841-1.9157.1611-3.9385,1.4213-5.6708a4.3548,4.3548,0,0,1,.7941.3c9.6859,6.0468,20.5377,9.4077,32.1208,11.1967a161.5159,161.5159,0,0,0,19.05,1.6882c8.8121.3073,17.6442.6547,26.4267-.5168,3.0415-.4057,6.0643-1.0751,9.12-1.217,7.6335-.3545,15.28-.5056,22.9226-.6842,16.3957-.3832,32.7582-1.2044,49.0543-2.895,5.5426-.575,11.2654-.7031,16.509-2.3237,9.0925-2.81,18.7754-3.0059,27.8857-5.56a.6122.6122,0,0,1,.217.0268l.0019.002a8.6121,8.6121,0,0,1-.1275,1.5344,33.6981,33.6981,0,0,0-1.0723,10.8679,11.8418,11.8418,0,0,1,.0331,3.6874c-1.9428,8.1439-4.01,16.2706-5.645,24.4644-1.6038,8.0364-2.3864,16.15-.3754,24.2618-4.0744-1.7882-6.6335-5.0851-9.531-7.9463-2.2076-2.18-4.081-3.2552-6.9206-2.2883a4.9374,4.9374,0,0,0-3.4533,6.197c1.1723,4.9508,4.4186,8.5958,9.0122,11.3863,7.522,4.5693,16.2219,6.1754,24.9489,7.5645,6.283,1,12.5977.3894,18.8276-.6382,3.2579-.5373,4.447-2.5044,3.9449-5.9532-.3616-2.4844-2.1282-3.8234-5.2592-3.6182a101.277,101.277,0,0,1-11.4439.3577,15.6392,15.6392,0,0,0,6.4868-10.5542,44.6469,44.6469,0,0,0,.4526-8.8,6.4462,6.4462,0,0,1,1.3912-4.58,21.0359,21.0359,0,0,0,2.8118-4.8609,63.2482,63.2482,0,0,0,4.6564-22.986c.2954-8.6136.5041-17.23.7642-25.8442.0763-2.5262.8852-2.9115,3.4419-1.658C428.7441,356.5308,429.2,356.87,429.6807,357.1685Z"/><path class="cls-3" d="M194.99,459.5615q86.4177-.0033,172.8353-.0069,31.2739-.0011,62.5479.0151c.8325.0008,1.7786-.33,2.4959.3764H195.0094A.7109.7109,0,0,1,194.99,459.5615Z"/><path class="cls-4" d="M194.99,459.5615a.7109.7109,0,0,0,.02.3846H54.8581l.09-.4177c1.03.0083,2.06.0239,3.09.0239q62.2451.0018,124.49.0011c3.458,0,6.9161-.0139,10.374.0086.9711.0063,1.8072-.0366,1.7342-1.1859Z"/><path class="cls-5" d="M388.1028,430.5024c-2.011-8.1122-1.2284-16.2254.3754-24.2618,1.6352-8.1938,3.7022-16.32,5.645-24.4644a11.8418,11.8418,0,0,0-.0331-3.6874,33.6981,33.6981,0,0,1,1.0723-10.8679,8.6121,8.6121,0,0,0,.1275-1.5344l.1857-.0033-.12-.1592-.0671.1605a.6122.6122,0,0,0-.217-.0268c-9.11,2.5545-18.7932,2.75-27.8857,5.56-5.2436,1.6206-10.9664,1.7487-16.509,2.3237-16.2961,1.6906-32.6586,2.5118-49.0543,2.895-7.6428.1786-15.2891.33-22.9226.6842-3.0553.1419-6.0781.8113-9.12,1.217-8.7825,1.1715-17.6146.8241-26.4267.5168a161.5159,161.5159,0,0,1-19.05-1.6882c-11.5831-1.789-22.4349-5.15-32.1208-11.1967a4.3285,4.3285,0,0,0-.7956-.3c-2.2939-2.0424-3.5951-4.4334-3.2936-7.3879.9358-1.9343.5909-3.9981.7272-6.0055.6111-9,3.2842-17.6242,6.123-26.2018,1.4671-4.4326,3.8476-8.66,4.95-13.1474,2.1419-8.7225,3.6454-17.5679,5.4633-26.3543,3.79-18.3179,9.1365-36.228,17.3558-53.4245,2.4617-5.15,5.7693-10.0516,5.6156-16.0608-.115-4.495,1.7382-8.8518,2.498-13.3043.5858-3.4332-.7343-5.952-3.7635-7.0211l.0133.0406c.1365-.4007-.25-.4534-.5023-.5947l-1.4034-1.01a12.5948,12.5948,0,0,1-3.9455-11.1822c1.2783-4.07,3.8762-7.5446,6.36-11.0652a20.9062,20.9062,0,0,0,3.5309-8.1032c.6287-3.1662.1063-6.56,2.1814-9.4636,3.6037-3.5927,7.3044-4.3477,12.4236-2.5643a17.832,17.832,0,0,1,9.5886,7.6639,18.1823,18.1823,0,0,1,1.364,8.0154,46.3372,46.3372,0,0,0,.3535,9.8825c.1736,1.4226-.1567,2.8906.49,4.27-.9264,2.76-.5487,5.6113-.1933,8.3389a132.037,132.037,0,0,0,2.73,13.2594c2.78,11.7362,8.2843,22.4755,15.3694,32.6159a47.2486,47.2486,0,0,0,10.7686,11.3517c8.0066,5.8508,17.0617,10.2162,26.46,13.9693,3.8518,1.5381,8.0895,3.0175,12.2932,2.7668a114.1345,114.1345,0,0,0,29.5148-5.3053c3.7081-1.24,7.545-2.38,10.6237-4.6435,4.4468-3.27,8.2828-7.1071,12.7842-10.4038a197.0431,197.0431,0,0,1,21.9082-14.5008,27.4,27.4,0,0,0,8.2857-6.6141l1.9473-1.5047c-.12,3.6132.77,6.779,4.8054,8.549.1574,1.9416.2707,3.887.48,5.8241.7388,6.8283,4.1652,12.2351,10.78,15.9322.11.1227.0512.4334.4036.2852l-.0548-.023c.4866,4.4638.9951,8.9257,1.4541,13.3917.5611,5.4592,1.2041,10.9148,1.595,16.3841q1.7211,24.0783,1.3644,48.208c-.1453,8.882-.3507,17.7657-.956,26.6365-.4811-.2981-.9367-.6374-1.4475-.8879-2.5567-1.2535-3.3656-.8682-3.4419,1.658-.26,8.6146-.4688,17.2306-.7642,25.8442a63.2482,63.2482,0,0,1-4.6564,22.986,21.0359,21.0359,0,0,1-2.8118,4.8609,6.4462,6.4462,0,0,0-1.3912,4.58,44.6469,44.6469,0,0,1-.4526,8.8,15.6383,15.6383,0,0,1-6.4876,10.5544,8.6326,8.6326,0,0,1-.8829.0159,54.08,54.08,0,0,1-11.6376-1.97C393.0141,432.7863,390.1053,432.5971,388.1028,430.5024ZM262.0534,244.7766a1.795,1.795,0,0,0,2.0958-1.4007c.8691-4.4981,1.75-8.9976,2.4239-13.52.2382-1.5983-1.0982-2.531-2.8054-2.7489-1.7706-.226-2.5006.8077-2.751,2.186-.7491,4.1217-1.5151,8.2414-2.2084,12.37C258.5188,243.3869,259.9181,244.7484,262.0534,244.7766Zm138.98-4.4375c0,1.7643.0044,3.5285-.0013,5.2928-.0053,1.6542.89,2.6116,2.77,2.6491,1.8883.0375,2.8742-.9178,2.8955-2.5473.0469-3.5933.0291-7.1876.01-10.7814-.009-1.6846-1.1132-2.5822-2.9036-2.5627-1.8131.02-2.7979.9723-2.7761,2.6568C401.0506,236.81,401.0329,238.5748,401.033,240.3391Zm-125.1116,7.22c0-.6422-.0011-.9682,0-1.2943.0093-2.3264-.7356-3.3276-2.5461-3.421-1.8626-.0961-3.0093,1.033-3.0864,3.2885a47.3179,47.3179,0,0,1-1.2736,9.0987c-.3762,1.6216.5852,2.66,2.3147,3.028a2.4253,2.4253,0,0,0,3.1888-1.9276A50.874,50.874,0,0,0,275.9214,247.5586ZM385.96,258.7446c-.1126-.8226-.2725-1.99-.4326-3.1579-.3114-2.27-.5661-4.5486-.9535-6.8089a2.8786,2.8786,0,0,0-3.2547-2.3715c-1.364.0355-2.5218.6851-2.3619,2.08.4321,3.7681.881,7.5405,1.5555,11.2781.2854,1.581,1.8069,2.123,3.561,1.9123C385.8,261.4692,386.12,260.4013,385.96,258.7446Zm-96.3884.37c-.1194-1.299.2153-2.6248-.2684-3.9a2.8285,2.8285,0,0,0-3.0785-1.7692c-1.2234.0564-2.3.6585-2.2964,1.7524.0135,3.7951-.3267,7.5682-.5327,11.351-.0835,1.5346,1.41,2.26,3.03,2.2921a2.18,2.18,0,0,0,2.3732-2.1128A50.5262,50.5262,0,0,0,289.5714,259.1151Zm18.62,13.3857c0,1.635-.0226,3.27.0065,4.9051.0282,1.5851,1.018,2.43,2.7554,2.4676s2.8526-.7822,2.8891-2.3454q.117-5.0011,0-10.0059c-.0338-1.56-1.11-2.3789-2.862-2.373-1.7883.0059-2.7164.9042-2.7755,2.4467C308.1426,269.2291,308.1911,270.8656,308.1914,272.5008Zm89.32-19.9422c-.371-2.05-.8592-4.75-1.3495-7.4505a9.5611,9.5611,0,0,0-.1956-.9593c-.4572-1.5784-1.756-2.0633-3.3718-1.7946a2.3426,2.3426,0,0,0-2.1164,2.95c.4564,2.8368,1.0582,5.6549,1.5621,8.486a2.5745,2.5745,0,0,0,3.0868,2.1607C396.8518,255.8159,397.6543,254.7682,397.5114,252.5586Zm-98.54,15.9612c0,.8482.0668,1.7015-.014,2.5436-.1635,1.7045.5369,2.84,2.5387,3.0147a2.8744,2.8744,0,0,0,3.1573-3.0482,39.8834,39.8834,0,0,0-.4943-7.9971c-.3348-2.0345-1.2284-2.8174-3.0027-2.6165a2.727,2.727,0,0,0-2.5919,3.4312A25.2885,25.2885,0,0,1,298.9715,268.52Zm-48.2643-39.651c.0015.8714-.323,1.5514.7714,1.8111a1.5465,1.5465,0,0,0,1.86-.6639,35.946,35.946,0,0,0,5.11-15.4616c.1059-1.1209-.72-1.8138-1.9737-2.0068-1.35-.2079-1.2852.8379-1.5686,1.5-1.1209,2.618-.8182,5.5649-2.3089,8.0962C251.3056,224.3378,251.3465,226.8019,250.7072,228.8688Zm77.3706,39.0844c-2.2485.0136-3.4719,1.4117-3.0507,3.4033.5158,2.4387,1.1409,4.86,1.7775,7.2771a2.4222,2.4222,0,0,0,3.1226,1.8007c1.6576-.3117,2.6526-1.3287,2.3551-2.8317-.5345-2.7-1.263-5.3722-1.982-8.0407A2.2443,2.2443,0,0,0,328.0778,267.9532Zm43.7987-1.9369c-.15-1.3662-.2846-2.8637-.4846-4.3543a2.6821,2.6821,0,0,0-3.2437-2.45,2.4081,2.4081,0,0,0-2.3532,2.9989,31.6649,31.6649,0,0,1,.2936,5.8685,2.2425,2.2425,0,0,0,2.2812,2.4269,2.7306,2.7306,0,0,0,3.2155-1.8261A13.6845,13.6845,0,0,0,371.8765,266.0163Zm-20.3308,1.3379c.2914,2.1392.4957,4.2882.9028,6.4065.2879,1.4976,1.446,2.2526,3.1947,2.0091a2.3342,2.3342,0,0,0,2.3173-2.632c-.1848-2.1431-.4416-4.288-.8335-6.408a2.5562,2.5562,0,0,0-3.0321-2.2513C352.367,264.6954,351.3673,265.677,351.5457,267.3542ZM245.518,209.5085a2.1857,2.1857,0,0,0,1.8643,2.5589c1.4753.3039,2.1032-.5782,2.6148-1.6057a48.1375,48.1375,0,0,1,4.0662-7.3913c.8257-1.12.8676-2.1027-.5352-2.8185a2.3458,2.3458,0,0,0-3.1947.8274c-1.7868,2.23-2.3691,5.0569-4.5218,7.1129C245.52,208.4708,245.6065,209.062,245.518,209.5085Zm92.22,62.201c.3913,1.5554.9316,3.4444,1.3276,5.357a2.7973,2.7973,0,0,0,5.5156-.9245c-.3773-1.8513-.9035-3.6783-1.3318-5.522a2.38,2.38,0,0,0-2.9693-1.9436C338.5685,268.8866,337.7255,269.8085,337.7379,271.71Z"/><path class="cls-6" d="M226.862,196.7619c3.0292,1.0691,4.3493,3.5879,3.7635,7.0211-.76,4.4525-2.613,8.8093-2.498,13.3043.1537,6.0092-3.1539,10.91-5.6156,16.0608-8.2193,17.1965-13.5659,35.1066-17.3558,53.4245-1.8179,8.7864-3.3214,17.6318-5.4633,26.3543-1.1019,4.4877-3.4824,8.7148-4.9495,13.1474-2.8388,8.5776-5.5119,17.2014-6.123,26.2018-.1363,2.0074.2086,4.0712-.7269,6.005-3.8786-.7516-7.8553-.7311-11.7765-1.1674a133.4663,133.4663,0,0,0-15.32-1.247c-28.5558.1033-57.1124.0429-85.6687.0554-5.16.0023-10.2385.4165-15.0464,2.3417a25.6142,25.6142,0,0,1-5.0352,1.3631c-2.1938.3871-4.4066.4085-6.2741-1.0133-.5887-6.7734-1.4531-13.6314-.7112-20.3325.8222-7.4256,1.004-14.8344,1.2811-22.2563.2073-5.5527.1339-11.1135.2065-16.67a181.04,181.04,0,0,1,2.8248-29.811,5.9976,5.9976,0,0,0-.691-4.3642,2.46,2.46,0,0,0-4.2278-.1869c-2.1872,2.6641-2.011,5.8309-2.205,8.8473-.4862,7.5611-.77,15.1333-1.0645,22.7032-.3172,8.1567-.3825,16.3244-.889,24.471-.3151,5.0682-1.6231,10.0532-2.533,15.07a90.4807,90.4807,0,0,0-1.0431,21.2749c.5928,10.64,2.31,21.1543,4.1171,31.6614.3065,1.7816,1.6641,3.3176,1.9411,5.1661a10.9155,10.9155,0,0,1,.201,2.9169c-.5933.734-1.1371,1.5046-1.7882,2.1954-3.3562,3.5613-8.1352,4.6566-12.8935,5.6627-3.1459.6652-6.3672.9221-9.2982-.8274-1.8714-6.7938-2.4634-13.7654-3.27-20.6789-1.1656-9.9886-2.5863-19.9847-2.4985-30.0542.0592-6.7958.16-13.5895.0474-20.386-.2928-17.6464-.5948-35.2958-.2773-52.9419.1969-10.94,2.0278-21.6723,6.8366-31.8751a4.0831,4.0831,0,0,1,2.6176-2.4235,15.95,15.95,0,0,0,3.1454,3.49c6.2636,4.523,16.4021,3.3553,21.6616-2.9747,2.5277-3.0421,4.6548-6.1214,9.1275-7.0222a2.0967,2.0967,0,0,0,.8918-.56c1.7825-1.62,2.4592-3.4993,1.6844-5.7241-.583-1.6743-1.6134-3.0726-3.707-3.1631-2.1788-.0943-2.3746-1.2036-2.0719-2.6064.7922-3.6712-.5566-6.5145-3.984-8.6236a5.5865,5.5865,0,0,0,2.63-2.3038c2.039-3.6471,5.3187-6.3772,8.5612-9.0994a18.9459,18.9459,0,0,0,5.61-7.911,54.7115,54.7115,0,0,0,9.2134,11.185A48.7524,48.7524,0,0,0,103.0052,222.83c10.6685,2.0553,21.2353.4139,31.8331-.3156,5.8112-.4,11.3553-2.15,17.0818-2.9247a118.873,118.873,0,0,0,35.6233-10.472,100.7467,100.7467,0,0,0,33.4807-25.1024,12.5906,12.5906,0,0,0,3.9442,11.18c-2.1163-.0756-3.656.5679-3.8459,2.6427a20.304,20.304,0,0,0,.7914,8.3557,2.6578,2.6578,0,0,0,3.5994,1.9789c1.88-.472,2.2729-1.6881,1.8206-3.2346A20.5265,20.5265,0,0,1,226.862,196.7619ZM67.57,213.8675a2.154,2.154,0,0,0-1.1109-2.6189,3.2942,3.2942,0,0,0-3.1416.1318,2.7031,2.7031,0,0,0-1.3895,2.32q-.81,6.613-1.6411,13.224a2.2294,2.2294,0,0,0,2.1781,2.8364A2.8942,2.8942,0,0,0,65.886,227.4C66.5,222.8021,67.0365,218.196,67.57,213.8675Zm6.6844,10.0655.4866.0005c0,3.3175-.0414,6.6356.0177,9.9523.0288,1.6205,1.0725,2.5589,2.9144,2.5636,1.8.0046,2.7353-1.0037,2.6864-2.5-.1467-4.4873-.4013-8.9722-.654-13.4563-.0869-1.5433-1.2213-2.124-2.8206-2.1384-1.6958-.0151-2.6014.7327-2.6269,2.255C74.2389,221.7171,74.2539,222.8251,74.2539,223.933Zm63.6171,8.3058a48.24,48.24,0,0,0,3.6941,11.2527c.6236,1.4264,1.48,2.4712,3.4255,1.9479a2.645,2.645,0,0,0,1.7551-3.8523,51.4389,51.4389,0,0,1-3.3748-10.1191,2.342,2.342,0,0,0-2.8619-2.0731A2.64,2.64,0,0,0,137.871,232.2388Zm18.5633-4.42c-.011,1.6938,2.3878,7.8877,4.2748,10.7623,1.1791,1.796,2.4806,2.2521,4.1213,1.4443,1.6125-.794,1.928-2.0332.8633-3.8663a33.97,33.97,0,0,1-3.8277-9.3385c-.3221-1.38-1.2217-2.0091-2.8207-1.8475C157.3074,225.1485,156.3921,225.9585,156.4343,227.8187Zm42.5768-.5641c-1.5327-3.44-2.62-7.39-4.8078-10.9365-.7647-1.2392-2.39-1.1607-3.7454-.5155-1.3472.6412-1.424,1.713-.9578,2.8766.369.9209.7475,1.8389,1.1266,2.7565.9351,2.2633,1.8391,4.5373,2.8219,6.7841.6465,1.478,2.0353,1.8218,3.6179,1.4946A2.2954,2.2954,0,0,0,199.0111,227.2546Zm-68.2275,13.3177c-1.2732-3.2524-2.1993-6.841-4.0238-10.1245-.6625-1.1922-2.1717-1.221-3.53-.7215a1.926,1.926,0,0,0-1.4228,2.5488c1.1067,3.1808,2.267,6.3509,3.5622,9.4742.5259,1.2682,1.87,1.6214,3.3178,1.2931A2.4528,2.4528,0,0,0,130.7836,240.5723Zm41.0992-15.4141a12.7136,12.7136,0,0,0,4.86,9.8017,2.9775,2.9775,0,0,0,4.144-.0863c1.2338-1.0955,1.2048-2.3231-.1219-3.433a8.2427,8.2427,0,0,1-3.2333-6.0322,2.5907,2.5907,0,0,0-3.0723-2.6453C172.4252,222.8846,171.74,224.0954,171.8828,225.1582Zm-60.8855,4.2435a2.4984,2.4984,0,0,0-2.3663,3.1509c.6572,2.81,1.4535,5.5945,2.127,8.4018a2.5527,2.5527,0,0,0,3.228,2.1833,2.4675,2.4675,0,0,0,2.2855-3.2031c-.6836-2.9383-1.4649-5.8593-2.2557-8.7768C113.7064,230.0162,112.8528,229.3732,110.9973,229.4017Zm93.2974-21.223a17.783,17.783,0,0,0,3.9955,9.4319c1.0945,1.2472,2.5987,1.1693,3.9778.4946,1.121-.5484,1.8115-1.5857,1.0275-2.65a20.136,20.136,0,0,1-3.6031-8.13c-.2623-1.3074-1.5468-1.89-3.0641-1.62A2.4973,2.4973,0,0,0,204.2947,208.1787ZM89.6955,230.4854a18.0483,18.0483,0,0,0,1.74,7.8421c.6676,1.67,2.04,2.0413,3.6751,1.5616a2.1742,2.1742,0,0,0,1.5548-3.1885,18.1551,18.1551,0,0,1-1.5357-8.0385c.0676-1.4446-.8765-2.1072-2.492-2.12-1.6064-.0125-2.7505.47-2.9282,2.02A15.33,15.33,0,0,0,89.6955,230.4854Z"/><path class="cls-7" d="M221.0241,184.0151a100.7467,100.7467,0,0,1-33.4807,25.1024A118.873,118.873,0,0,1,151.92,219.59c-5.7265.7749-11.2706,2.5247-17.0818,2.9247-10.5978.73-21.1646,2.3709-31.8331.3156a48.7524,48.7524,0,0,1-24.7869-12.3689,54.7354,54.7354,0,0,1-9.2133-11.1837c-4.0421-7.816-9.7612-14.88-13.0979-23.0145a253.3289,253.3289,0,0,1-5.2693-31.6808,40.99,40.99,0,0,1,.2038-10.5718c.84-5.6585.2563-11.3606.8725-17.0294.5289-4.8661.675-9.7646,1.0153-14.6475a13.3347,13.3347,0,0,1,.3744-2.3258c.9766-3.8678,4.2689-5.3165,8.4975-4.1374,7.2956,2.0345,13.6251,5.252,18.7312,10.425a17.7264,17.7264,0,0,0,9.9938,5.036,5.4485,5.4485,0,0,0,3.1666-.3556c10.0142-4.2053,19.7923-9.0317,30.525-11.5918,11.2735-2.689,22.2887-6.11,33.56-8.7658,4.2041-.9906,8.5829-1.044,12.8964-1.4442a10.6273,10.6273,0,0,0,8.331-5.0144,50.8771,50.8771,0,0,1,6.3537-8.67c3.118-3.264,6.6265-3.2658,9.6269.0739,3.6743,4.09,6.49,8.6833,9.5937,13.1158,6.6959,9.5608,11.2417,20.1921,19.27,29.1168,7.5349,8.3765,9.9049,18.4778,10.0565,29.0383a36.6326,36.6326,0,0,1-.6092,8.5493c-2.0752,2.9033-1.5528,6.2971-2.1815,9.4633a20.9062,20.9062,0,0,1-3.5309,8.1032C224.9,176.4705,222.3024,179.9453,221.0241,184.0151Zm-74.2918-19.46c2.0155-3.2336,2.045-6.72,1.6545-10.26-.07-.6324-.4164-.7991-1.0247-.4377-2.4969,1.4833-5.2575,2.65-7.2664,4.72-.3563.3671-.9559.8489-.1938,1.3058,2.3467,1.4068,3.834,3.7644,6.6063,4.6915-1.1891.38-1.0475,1.3026-1.0571,2.1284-.02,1.7.0921,3.4028.005,5.0987a6.8285,6.8285,0,0,1-5.4834,6.3765c-2.5873.6306-5.8254-.716-7.624-3.2737a11.8928,11.8928,0,0,1-1.4586-2.8193c-.8828-2.4736-1.5573-5.0076-2.4942-7.4636-.8875-2.3262-1.0657-2.26-3.5731-1.2917-1.1241.4343-1.1518.9654-.8785,1.8213.5788,1.8129.9824,3.6765,1.6726,5.4535,1.0723,2.761,2.0727,5.5819,4.2,7.8988,2.8119,3.0628,6.4447,4.08,10.7994,3.4058a9.4112,9.4112,0,0,0,7.9583-6.2393,40.4912,40.4912,0,0,0,1.0892-3.9192c7.2988,3.2383,14.1064,1.0195,16.479-5.4812,1.7055-4.6731,1.5036-9.5376,1.3891-14.368a1.6686,1.6686,0,0,0-1.92-1.7386c-1.158.0854-2.2491.29-2.2169,1.8108.0539,2.5458-.1207,5.0962-.2292,7.6437A13.4155,13.4155,0,0,1,161.12,166.73c-2.0561,3.0782-6.458,3.3919-9.3438.9519C150.32,166.45,149.0035,164.833,146.7323,164.5546Zm-30.8132-8.1071c6.1108-3.4688,12.0087-6.7215,15.4889-12.4984,4.74-7.8676,1.9123-14.9727-5.6932-19.7964a29.1548,29.1548,0,0,0-9.7393-3.5241,15.2392,15.2392,0,0,0-9.8359.7742c-1.4784.6714-1.64,1.2306-1.2107,2.4607,1.0613,3.0412,1.9718,6.1236,3.0044,9.173C110.5624,140.8012,113.2251,148.5569,115.9191,156.4475Zm71.9019-50.4749c-4.7557.0357-9.3137,1.4341-13.8062,3.0968-.8605.3184-.9918.6608-.7918,1.4726a37.1429,37.1429,0,0,0,1.937,4.9644c3.2175,7.9409,6.0238,16,8.6827,24.0984.3858,1.1752.6029,1.1884,1.8321.7128a20.528,20.528,0,0,0,7.0747-4.8268c5.5147-5.46,9.1718-11.6129,7.5327-19.2067C198.9887,110.2917,195.4253,105.5715,187.821,105.9726Zm-85.8742,54.46a39.7789,39.7789,0,0,0,6.8053-.9017c3.1895-.6754,3.1886-.6675,2.0883-3.2366-.13-.3028-.2071-.6232-.3105-.935-3.3324-10.0518-6.7132-20.0914-9.9521-30.167-.5644-1.756-1.1588-1.609-2.6213-.7948-5.7988,3.2285-9.218,7.9285-11.79,13.4717a13.4044,13.4044,0,0,0,.1065,11.7117,26.69,26.69,0,0,0,1.9082,3.514C91.1971,157.8858,95.9076,160.1687,101.9468,160.4325Zm72.26-16.67c.3678,0,.7367.0162,1.1033-.0025,4.2488-.2168,4.266-.2231,2.976-3.7882q-4.8461-13.3927-9.7338-26.7736c-.2-.5458-.0164-1.6935-1.4258-.9264a23.045,23.045,0,0,0-6.932,5.35c-4.7532,5.7257-4.7074,12.15-3.6045,18.7486a2.2766,2.2766,0,0,0,.9468,1.2808A25.4918,25.4918,0,0,0,174.2068,143.7621Z"/><path class="cls-8" d="M256.8259,178.38a46.3478,46.3478,0,0,1-.3533-9.8823,18.1823,18.1823,0,0,0-1.364-8.0154c4.8905-6.0209,8.3215-12.7246,11.52-19.5306,1.1873-2.5266,2.3189-5.08,3.3128-7.6711,2.1821-5.6884,5.9766-10.7461,7.9807-16.5145,1.6012-4.6091,3.2117-9.2119,4.69-13.8548,2.407-7.56,5.9646-14.6,12.3775-20.24a27.0862,27.0862,0,0,1,9.8689-5.3991,6.0982,6.0982,0,0,1,3.0173-.0532c7.9862,1.3656,13.78,5.6591,18.5824,11.1542,7.5127,8.5961,12.6784,18.3123,16.7326,28.516a2.477,2.477,0,0,0,2.6654,1.5859,81.9051,81.9051,0,0,1,18.7551,2.0379,7.2424,7.2424,0,0,0,3.4741-.1593,53.512,53.512,0,0,0,12.1551-5.4959c7.5662-4.2876,14.9131-8.9043,23.014-12.3988a86.3212,86.3212,0,0,1,12.2851-4.3143c5.2579-1.3773,9.676.3136,13.4883,3.5324a3.2094,3.2094,0,0,1,.784,1.1547c3.0631,6.8577,4.9842,13.94,4.7226,21.3549a84.2154,84.2154,0,0,1-2.2221,15.3208,46.9244,46.9244,0,0,0,2.9238,29.23,33.4707,33.4707,0,0,1,2.0866,8.9781c.5389,4.233-1.3472,7.9378-2.9771,11.6994-1.4753,3.4047-3.0864,6.763-4.6374,10.1415a2.8737,2.8737,0,0,0-2.356.8775c-3.2545,3.7734-7.0031,7.1859-10.1147,11.0688-1.3326,1.6631-2.4767,3.6114-5.0486,4.15a9.7756,9.7756,0,0,1-9.3452-3.5434c-3.4256-4.6309-7.9208-7.2849-14.3583-6.6526a36.0451,36.0451,0,0,0-11.7356,3.1269c-6.1867,2.8775-12.2924,5.893-18.4856,8.7593a31.6972,31.6972,0,0,1-18.1934,2.3179,2.6046,2.6046,0,0,0-2.2945.2947,12.1527,12.1527,0,0,0-10.89-3.7005c-.5269-1.5711-2.1279-2.4554-3.0664-3.7866-1.8842-2.6728-2.4248-5.693-3.2371-8.644-2.0454-7.43-5.2843-14.2167-12.1654-19.26a32.7763,32.7763,0,0,1-5.7163-5.1649c-6.0688-7.2127-14.0592-9.2982-23.7106-7.55a138.0718,138.0718,0,0,0-17.4756,4.5878C259.9157,176.9484,258.0264,177.0571,256.8259,178.38Zm46.9415-53.3642a8.0519,8.0519,0,0,1,4.5032.6314,23.1987,23.1987,0,0,0,12.7216,1.2235c1.3292.8743,2.667,1.7813,4.346.6163,1.6452-1.1416.9759-2.5622.5344-3.939-.2811-.8765-.5856-1.7472-.8888-2.618-2.107-6.05-4.1918-12.13-8.4771-17.3153-3.6359-4.4-8.5118-5.889-14.0385-2.1716a20.8208,20.8208,0,0,0-4.9136,4.6945c-3.5507,4.61-4.8723,9.8556-5.2372,15.3109-.1865,2.7893,1.266,4.91,3.4513,5.3347a27.4618,27.4618,0,0,0,4.5626.5464C302.3073,127.38,303.39,126.6894,303.7674,125.0162Zm89.3742,16.3572a25.12,25.12,0,0,1,8.2575,6.6462,6.1455,6.1455,0,0,0,5.8049,1.9833c.1326.1527.3672.2979.382.4591.1551,1.6866,1.4577,2.4444,3.0706,2.5815,1.7457.1484,2.6215-1.0412,3.0243-2.3675,2.3235-7.6506,4.492-15.3084,3.7436-23.37-.5389-5.805-4.7741-8.5592-10.8687-6.5126a95.6035,95.6035,0,0,0-15.5787,6.8788c-3.5624,1.9574-5.3863,4.8773-4.9867,8.7536C386.3538,139.95,389.9017,142.4578,393.1416,141.3734Zm-21.9676,23.14a28.7672,28.7672,0,0,0-9.4585,1.6508c-3.1866,1.2683-4.2135,3.8-2.8068,6.6518,1.4272,2.8936,4.1841,3.9931,7.4889,3.8934a63.1777,63.1777,0,0,1,12.89,1.0911,18.0351,18.0351,0,0,0,7.6455.2022c3.277-.8258,4.9771-3.1594,4.1536-6.0926-1.0155-3.6172-3.84-5.7292-7.756-6.4686C379.1275,164.6479,374.7092,165.7887,371.174,164.5133Zm-73.2151-19.0224c-.0229,3.0932,2.0788,5.0652,5.6835,5.32,1.0965.0776,2.2048.07,3.2911.2062a42.0032,42.0032,0,0,1,11.48,3.1905,6.0132,6.0132,0,0,0,7.8784-2.69c1.3212-2.5752.3013-4.7721-2.9137-6.2153a54.8315,54.8315,0,0,0-19.8563-4.5626C300.0868,140.5656,297.9815,142.4469,297.9589,145.4909Zm2.8746,8.87a2.7405,2.7405,0,0,0-2.737,1.8216,2.1425,2.1425,0,0,0,1.1988,2.8573c3.568,1.8006,7.1269,3.6165,10.7272,5.3649a2.5826,2.5826,0,0,0,3.489-.6448,2.3911,2.3911,0,0,0-.3232-3.4058,4.0635,4.0635,0,0,0-1.03-.73q-5.0913-2.5185-10.209-4.9947A4.8742,4.8742,0,0,0,300.8335,154.3613Zm76.2468,35.614a5.8169,5.8169,0,0,0,1.6971-.0591,2.29,2.29,0,0,0,2.1149-2.5679,2.2567,2.2567,0,0,0-2.4253-2.3132,90.7113,90.7113,0,0,1-12.2417-1.198,2.5931,2.5931,0,0,0-3.2965,2.1541c-.3019,1.5722.5544,2.4009,2.3139,2.7288A85.1482,85.1482,0,0,0,377.08,189.9753Z"/><path class="cls-9" d="M48.7727,358.6136c1.8675,1.4218,4.08,1.4,6.2741,1.0133a25.6142,25.6142,0,0,0,5.0352-1.3631c4.8079-1.9252,9.886-2.3394,15.0464-2.3417,28.5563-.0125,57.1129.0479,85.6687-.0554a133.4663,133.4663,0,0,1,15.32,1.247c3.9212.4363,7.8979.4158,11.7765,1.1674-.3018,2.955.9994,5.346,3.2933,7.3884-1.2587,1.7323-1.1357,3.7551-1.42,5.6708-.5744,3.8726-.9111,7.7732-1.489,11.6453-.6636,4.4469-.1818,8.876.2568,13.2812.6518,6.5481,1.7259,13.062,2.4806,19.6032.9346,8.1013,1.8843,16.2057,2.528,24.3275.48,6.05,1.123,12.1,1.0924,18.1782.0735,1.15-.7626,1.1926-1.7337,1.1863-3.4579-.0225-6.916-.0086-10.374-.0086q-62.2451,0-124.49-.0011c-1.03,0-2.06-.0156-3.09-.0239a237.1146,237.1146,0,0,1,.6251-28.7876c.6244-7.5436,1.846-15.069,1.3515-22.6629-.57-8.7464-2.5921-17.2942-4.4715-25.87A156.111,156.111,0,0,1,48.7727,358.6136Z"/><path class="cls-10" d="M369.46,33.56a29.8889,29.8889,0,0,1,6.9638-8.6749c6.4234-5.6317,14.6767-6.158,22.0144-1.4329a28.1466,28.1466,0,0,1,9.2284,9.6155c1.0081,1.7368,1.9735,2.4753,4.3368,2.06a80.03,80.03,0,0,1,8.5736-.6056c3.7775-.2462,5.81,1.0453,6.0984,3.8941.3231,3.1906-1.9542,5.7412-5.4611,5.96a49.99,49.99,0,0,1-6.4023.0652c-1.8989-.1259-1.9161.4617-1.6152,1.876,1.2149,5.71,1.485,11.428-.6275,17.0512a16.0072,16.0072,0,0,1-6.0016,7.8114,12.7307,12.7307,0,0,1-15.8562-.6778c-4.7889-4.1251-6.6385-9.4544-7.3273-15.1558a17.2685,17.2685,0,0,1,.6332-7.7769c1.6085-4.6866,5.3546-7.5161,10.2525-9.3492.8065-.3019,1.6292-.57,2.4252-.8464.01-.1845.0641-.3155.0146-.3964-4.611-7.5345-9.3628-8.0437-15.7433-1.665-1.6621,1.6616-3.18,3.4383-4.87,5.076-4.5749,4.4338-8.0061,4.86-13.68,1.6284-1.0568-.6019-1.03-.0025-1.3035.5046a59.3982,59.3982,0,0,1-4.1418,6.8984,22.6639,22.6639,0,0,1-4.1952,4.5316c-2.8787,2.28-6.1048,3.3733-9.9408,2.0823a8.9274,8.9274,0,0,1-6.35-7.3855,19.4561,19.4561,0,0,1,1.0383-9.7576,22.0926,22.0926,0,0,0-4.9547,3.1979c-3.5743,2.7915-7.497,4.82-12.4608,4.7543a17.018,17.018,0,0,1-11.1117-4.1384,42.234,42.234,0,0,1-5.8744-6.106c-.77-.9773-1.6268-1.9478-3.1821-1.7546a3.563,3.563,0,0,0-2.842,2.4694,14.9921,14.9921,0,0,0-.9956,3.405c-.5321,2.7154-1.87,3.9014-4.4763,4.0686-2.6766.1717-5.5111-1.3351-6.39-3.4224-.5659-1.3434-1.1188-2.692-1.6306-4.0522a3.6214,3.6214,0,0,0-3.2756-2.418c-5.0615-.7929-5.009-.8677-7.9381,2.8695a76.8544,76.8544,0,0,1-8.3235,9.6373c-6.0165,5.5125-13.5786,6.1618-20.74,1.86-.6744-.4051-1.1087-.923-2.2093-.3263-11.3639,6.1611-22.3642,4.2824-30.512-5.11-.35-.4032-.7276-.787-1.1545-1.2467-.6089.8756-1.1185,1.6513-1.674,2.4-5,6.7413-14.08,8.9851-22.2983,5.5061a28.391,28.391,0,0,1-10.2342-7.6132,76.8007,76.8007,0,0,0-7.015-7.5652,15.6287,15.6287,0,0,0-6.104-3.4043c-4.1193-1.1388-5.6654-.357-6.7377,3.3444q-.9336,3.2227-1.8849,6.4414a16.1686,16.1686,0,0,1-6.0781,8.4516,1.6094,1.6094,0,0,0-.67,2.2833,21.7125,21.7125,0,0,1-.9125,17.7887,12.5985,12.5985,0,0,1-11.2849,7.6347A10.2239,10.2239,0,0,1,124.43,72.4741c-2.414-4.1383-3.1769-8.673-3.68-13.2314a156.3,156.3,0,0,0-2.7432-16.8694,44.8281,44.8281,0,0,1-10.18,2.987A40.6377,40.6377,0,0,1,90.81,44.5351c-3.5333-.9544-5.0853-3.4671-4.0967-6.5258.9007-2.7867,3.5394-3.8966,7.1884-3.0219a30.9939,30.9939,0,0,0,16.918-.388,19.482,19.482,0,0,0,2.3985-.9785c1.9783-.934,3.3706-1.9786,2.72-4.4122a13.2689,13.2689,0,0,1,.3732-8.1306,11.0546,11.0546,0,0,1,3.0774-4.4746c3.04-2.7082,7.8845-1.8732,9.3174,1.728,1.8735,4.7086,2.1021,9.5134-.1925,14.1586-1.2412,2.5126.398,4.69.4674,7.0328.017.5765.5838.357,1.0082.2627a9.8992,9.8992,0,0,1,8.5724,2.0686c1.2675.9945,1.8364.492,2.5753-.4008,1.8735-2.2638,2.2481-4.9243,2.6-7.59,1.0732-8.13,7.1772-12.72,16.356-12.3018a23.7748,23.7748,0,0,1,14.7215,5.9329c3.9941,3.4037,6.924,7.6535,11.0272,10.9725.5988.4844,1.1517,1.0156,1.7706,1.4779,4.552,3.4,9.4026,2.5785,12.2815-2.08,2.126-3.44,2.242-7.2659,2.6183-11.0327a5.738,5.738,0,0,1,5.2553-5.2415c3.1348-.3955,5.1257.8025,5.7867,3.5586.9522,3.97,2.001,7.9123,4.5287,11.3735A12.8662,12.8662,0,0,0,230.9471,42.07a8.7747,8.7747,0,0,0,1.2816-.2816c2.9126-.8315,2.934-.9,1.6823-3.284a17.5785,17.5785,0,0,1-2.2231-6.9253,9.1618,9.1618,0,0,1,8.0312-9.9648c5.366-.5645,9.5,2.548,10.4955,8.0008a15.4841,15.4841,0,0,1-.7873,9.2763c-.7607,1.7049.2835,2.1133,1.68,2.3256a7.2653,7.2653,0,0,0,5.6856-1.6164,24.6744,24.6744,0,0,0,4.3981-4.64,59.375,59.375,0,0,1,7.2786-8.1237c6.21-5.5495,13.9727-5.65,20.3319-.2565.6727.57.9512,1.0168,1.9427.1688a12.5567,12.5567,0,0,1,16.9559-.077c1.8129,1.52,3.346,3.3,5.0436,4.9312,1.1975,1.1506,2.3866,2.3211,3.705,3.3564a6.2685,6.2685,0,0,0,6.7664.6785,19.8478,19.8478,0,0,0,4.8769-3.0111,20.9887,20.9887,0,0,1,14.9317-5.3009c3.4919.1657,6.2962-1.2555,9.373-2.25,2.4656-.797,3.111-1.7248,2.8343-4.0241a47.9515,47.9515,0,0,1,.116-8.8153c.1783-2.72,2.0054-4.3295,4.7923-4.5332a5.6364,5.6364,0,0,1,6.0324,3.6628,24.9416,24.9416,0,0,1,.6948,7.2018,39.288,39.288,0,0,0,.2306,6.2509A55.3656,55.3656,0,0,0,369.46,33.56Zm-22.1684,9.5235c.8223.5041,1.013-.2494,1.2311-.5879.707-1.0972,1.303-2.2508,1.9409-3.383.031-.1634.1385-.4391.08-.4707-.2459-.1322-.3514.0357-.3831.2429-1.4091,1.1589-1.9016,2.8006-2.792,4.2327l.0087.3278a1.22,1.22,0,0,0,.1357-.1028C347.4464,43.2516,347.3676,43.1682,347.2917,43.0832Zm55.578,13.47a45.5459,45.5459,0,0,0-1.6616-9.6361c-.3233-1.3047-.9263-1.1864-1.9583-.7913-3.0579,1.1706-4.7541,3.1679-4.8424,6.1633a19.6573,19.6573,0,0,0,2.18,9.0877c.4477.9383.88,2.0268,2.4079,1.9252a3.4388,3.4388,0,0,0,3.022-1.9676A9.9939,9.9939,0,0,0,402.87,56.5535Zm-269.32,9.775c4.5308-2.6859,4.0949-6.2256,3.0258-9.8923-.3432-1.1771-3.3574-2.3563-4.5727-1.83-.3176.1377-.3376.3569-.2911.635C132.3209,58.8858,132.9216,62.5311,133.55,66.3285Z"/><path class="cls-8" d="M52.2033,218.59c3.4274,2.1091,4.7762,4.9524,3.984,8.6236-.3027,1.4028-.1069,2.5121,2.0719,2.6064,2.0936.09,3.124,1.4888,3.707,3.1631.7748,2.2248.0981,4.1045-1.6844,5.7241a2.0967,2.0967,0,0,1-.8918.56c-4.4727.9008-6.6,3.98-9.1275,7.0222-5.26,6.33-15.398,7.4977-21.6616,2.9747a15.95,15.95,0,0,1-3.1454-3.49,32.4678,32.4678,0,0,1-3.0322-11.594,23.7174,23.7174,0,0,1,6.2139-17.3589,9.2056,9.2056,0,0,1,4.9714-2.3859,24.621,24.621,0,0,1,8.5977.761C45.6822,216.0229,48.6417,218,52.2033,218.59Z"/><path class="cls-7" d="M425.8745,252.2857c-6.6152-3.6971-10.0416-9.1039-10.78-15.9322-.21-1.9371-.3229-3.8825-.4806-5.8242,5.0159,1.28,8.8593-.4355,12.1079-3.7176,2.1829-2.2052,4.3543-4.4215,6.6084-6.5684,2.6951-2.5668,4.9013-5.3553,5.6936-8.8733a3.0957,3.0957,0,0,1,2.1223.9277c4.6041,5.1164,8.9341,10.3616,10.1242,17.0915,1.4155,8.0043-4.6955,18.9328-12.7421,22.7838-4.0585,1.9422-8.1455,1.75-12.3046.3749l.0549.0231Z"/><path class="cls-5" d="M52.2033,218.59c-3.5616-.5905-6.5211-2.5672-9.997-3.3933a24.621,24.621,0,0,0-8.5977-.761c-.765-3.4919.3826-6.8618.9612-10.2422,1.2529-7.3191,3.31-14.4447,8.5076-20.46,3.2643-3.7784,7.0322-7.0435,12.8292-7.47,3.3372,8.1337,9.0563,15.198,13.0984,23.014a18.9513,18.9513,0,0,1-5.61,7.91c-3.2425,2.7222-6.5222,5.4523-8.5612,9.0994A5.5865,5.5865,0,0,1,52.2033,218.59Z"/><path class="cls-6" d="M439.0234,211.37c-.7923,3.518-2.9985,6.3065-5.6936,8.8733-2.2541,2.1469-4.4255,4.3632-6.6084,6.5684-3.2486,3.2821-7.092,4.9972-12.1079,3.7176-4.0355-1.77-4.9246-4.9357-4.8051-8.5489.801-2.0149,1.326-4.2326,3.5267-5.4623,3.257-1.82,5.3853-4.5238,7.5783-7.1931a17.5787,17.5787,0,0,1,6.9453-5.5273C434.9051,202.0268,438.8005,204.6688,439.0234,211.37Z"/><path class="cls-11" d="M427.8587,203.7977a17.5787,17.5787,0,0,0-6.9453,5.5273c-2.193,2.6693-4.3213,5.3733-7.5783,7.1931-2.2007,1.23-2.7257,3.4474-3.5267,5.4623l-1.9478,1.505c-4.059-1.5066-6.5377-4.5277-9.091-7.4794-5.167-5.9733-8.1254-6.7288-15.8739-3.723-7.6089,2.9518-15.1358,6.07-22.7073,9.0981-5.39,2.1559-10.8627,4.0623-16.9464,3.6786-1.9592-.1236-3.9033-.6052-5.8733-.0948a4.7213,4.7213,0,0,0,.4072-5.01,2.6072,2.6072,0,0,1,2.2948-.2941,31.6972,31.6972,0,0,0,18.1934-2.3179c6.1932-2.8663,12.2989-5.8818,18.4856-8.7593a36.0451,36.0451,0,0,1,11.7356-3.1269c6.4375-.6323,10.9327,2.0217,14.3583,6.6526a9.7756,9.7756,0,0,0,9.3452,3.5434c2.5719-.5384,3.716-2.4867,5.0486-4.15,3.1116-3.8829,6.86-7.2954,10.1147-11.0688a2.8737,2.8737,0,0,1,2.356-.8775A13.1074,13.1074,0,0,1,427.8587,203.7977Z"/><path class="cls-7" d="M22,404.1342c2.931,1.7495,6.1523,1.4926,9.2982.8274,4.7583-1.0061,9.5373-2.1014,12.8935-5.6627.6511-.6908,1.1949-1.4614,1.7882-2.1954,1.1318,5.1287,1.2543,10.32,1.4949,15.5254.2044,4.4209-2.5946,7.0423-5.98,9.3836-3.5506,2.4553-6.9385,1.7836-9.7526-1.7448-1.1438-1.4342-2.1432-2.4275-4.2331-1.182-.9343.5568-1.5277-.2462-2.0406-.9195a13.2916,13.2916,0,0,1-2.85-7.8047C22.549,408.2821,22.2154,406.21,22,404.1342Z"/><path class="cls-12" d="M212.0373,5.1219a4.8655,4.8655,0,0,1-5.094,4.6648c-2.9244-.0422-5.4-2.2109-5.3737-4.7082.0264-2.537,2.5106-4.6593,5.4328-4.6413A4.7862,4.7862,0,0,1,212.0373,5.1219Z"/><path class="cls-7" d="M388.1028,430.5024c2.0025,2.0947,4.9113,2.2839,7.6043,3.1071a54.08,54.08,0,0,0,11.6376,1.97,8.6326,8.6326,0,0,0,.8829-.0159,101.3322,101.3322,0,0,0,11.4447-.3579c3.131-.2052,4.8976,1.1338,5.2592,3.6182.5021,3.4488-.687,5.4159-3.9449,5.9532-6.23,1.0276-12.5446,1.6383-18.8276.6382-8.727-1.3891-17.4269-2.9952-24.9489-7.5645-4.5936-2.79-7.84-6.4355-9.0122-11.3863a4.9374,4.9374,0,0,1,3.4533-6.197c2.84-.9669,4.713.1084,6.9206,2.2883C381.4693,425.4173,384.0284,428.7142,388.1028,430.5024Z"/><path class="cls-13" d="M337.3689,224.9647c1.97-.51,3.9139-.0286,5.8731.095,6.0837.3837,11.5559-1.5227,16.9464-3.6786,7.5715-3.0282,15.0984-6.1463,22.7073-9.0981,7.7485-3.0058,10.7069-2.25,15.8739,3.723,2.5533,2.9517,5.032,5.9728,9.091,7.48a27.3971,27.3971,0,0,1-8.2852,6.6137A197.0431,197.0431,0,0,0,377.6672,244.6c-4.5014,3.2967-8.3374,7.1342-12.7842,10.4038-3.0787,2.2636-6.9156,3.4031-10.6237,4.6435a114.1345,114.1345,0,0,1-29.5148,5.3053c-4.2037.2507-8.4414-1.2287-12.2932-2.7668-9.3985-3.7531-18.4536-8.1185-26.46-13.9693a47.2486,47.2486,0,0,1-10.7686-11.3517c-7.0851-10.14-12.59-20.88-15.3694-32.6159a132.037,132.037,0,0,1-2.73-13.2594c-.3554-2.7276-.7331-5.5787.1933-8.3388,6.7274-1.8782,13.4087-3.9055,20.2779-5.3464,4.5931-.9634,9.1838-1.0644,13.6207.7325,5.592,2.2646,18.6408,14.3466,20.9805,19.4429.1665.3626.3177.7307.4785,1.0953,1.7758,4.0283,2.7115,8.266,3.9767,12.4233.6652,2.1855.9673,4.6309,2.6561,6.349a51.0685,51.0685,0,0,1,3.5617,4.173,3.3951,3.3951,0,0,0,.7193,3.1742c1.5168,1.5418,1.0842,3.0445.4133,4.66a20.1479,20.1479,0,0,0-.9976,2.7913c-.2779,1.11-.8216,1.2035-2.0273.9395-6.5508-1.4351-11.8443-4.4552-15.7572-9.3753a3.115,3.115,0,0,0-4.3578-.8576c-1.41.8852-1.5033,2.13-.2261,3.7548a28.82,28.82,0,0,0,12.156,9.1226c12.0045,4.7933,24.2763,3.5009,36.5672,1.1136a1.9966,1.9966,0,0,0,1.7129-2.4058,2.3874,2.3874,0,0,0-2.2541-2.3043,6.85,6.85,0,0,0-2.1849.138,99.9927,99.9927,0,0,1-13.9644,1.7532c-4.54.2973-4.5825.2656-3.1385-3.5408.2455-.6471.0042-1.8484,1.2371-1.8323C333.9186,228.6926,335.6246,226.8335,337.3689,224.9647Z"/><path class="cls-11" d="M322.8686,221.52a51.0685,51.0685,0,0,0-3.5617-4.173c-1.6888-1.7181-1.9909-4.1635-2.6561-6.349-1.2652-4.1573-2.2009-8.395-3.9767-12.4233-.1608-.3646-.312-.7327-.4785-1.0953-2.34-5.0963-15.3885-17.1783-20.9805-19.4429-4.4369-1.7969-9.0276-1.6959-13.6207-.7325-6.8692,1.4409-13.55,3.4682-20.2779,5.3464-.6471-1.38-.3168-2.8475-.49-4.27,1.2-1.3235,3.09-1.4322,4.6884-1.9439a138.0718,138.0718,0,0,1,17.4756-4.5878c9.6514-1.748,17.6418.3375,23.7106,7.55a32.7763,32.7763,0,0,0,5.7163,5.1649c6.8811,5.0435,10.12,11.83,12.1654,19.26.8123,2.951,1.3529,5.9712,3.2371,8.644.9385,1.3312,2.5395,2.2155,3.0665,3.7866a5.5777,5.5777,0,0,0-2.8732,3.0481C323.7272,220.0627,323.7289,220.9809,322.8686,221.52Z"/><path class="cls-12" d="M262.0534,244.7766c-2.1353-.0282-3.5346-1.39-3.2451-3.1135.6933-4.1291,1.4593-8.2488,2.2084-12.37.25-1.3783.98-2.412,2.751-2.186,1.7072.2179,3.0436,1.1506,2.8054,2.7489-.6742,4.5228-1.5548,9.0223-2.4239,13.52A1.795,1.795,0,0,1,262.0534,244.7766Z"/><path class="cls-12" d="M401.0329,240.3391c0-1.7643.0177-3.5287-.0051-5.2927-.0218-1.6845.963-2.6371,2.7761-2.6568,1.79-.0195,2.8946.8781,2.9036,2.5627.0191,3.5938.0369,7.1881-.01,10.7814-.0213,1.63-1.0072,2.5848-2.8955,2.5473-1.88-.0375-2.7756-.9949-2.77-2.6491C401.0374,243.8676,401.033,242.1034,401.0329,240.3391Z"/><path class="cls-12" d="M275.9214,247.5586a50.874,50.874,0,0,1-1.4024,8.7723,2.4253,2.4253,0,0,1-3.1888,1.9276c-1.7295-.368-2.6909-1.4064-2.3147-3.028a47.3179,47.3179,0,0,0,1.2736-9.0987c.0771-2.2555,1.2238-3.3846,3.0864-3.2885,1.81.0934,2.5554,1.0946,2.5461,3.421C275.92,246.59,275.9214,246.9164,275.9214,247.5586Z"/><path class="cls-12" d="M385.96,258.7446c.1606,1.6567-.16,2.7246-1.8862,2.932-1.7541.2107-3.2756-.3313-3.561-1.9123-.6745-3.7376-1.1234-7.51-1.5555-11.2781-.16-1.3948.9979-2.0444,2.3619-2.08a2.8786,2.8786,0,0,1,3.2547,2.3715c.3874,2.26.6421,4.5384.9535,6.8089C385.6873,256.7544,385.8472,257.922,385.96,258.7446Z"/><path class="cls-12" d="M289.5725,259.1162a50.6709,50.6709,0,0,1-.774,7.6122,2.18,2.18,0,0,1-2.3732,2.1128c-1.62-.0325-3.1134-.7575-3.03-2.2921.206-3.7828.5462-7.5559.5327-11.351-.0038-1.0939,1.073-1.696,2.2964-1.7524a2.8285,2.8285,0,0,1,3.0785,1.7692C289.7867,256.49,289.452,257.8161,289.5725,259.1162Z"/><path class="cls-12" d="M308.1913,272.5008c0-1.6352-.0487-3.2717.0139-4.9049.0591-1.5425.9872-2.4408,2.7755-2.4467,1.7524-.0059,2.8282.8132,2.862,2.373q.1085,5.0014,0,10.0059c-.0365,1.5632-1.1511,2.3827-2.8891,2.3454s-2.7272-.8825-2.7554-2.4676C308.1688,275.7713,308.1914,274.1358,308.1913,272.5008Z"/><path class="cls-12" d="M397.5114,252.5586c.1429,2.21-.66,3.2573-2.3844,3.3926a2.5745,2.5745,0,0,1-3.0868-2.1607c-.5039-2.8311-1.1057-5.6492-1.5621-8.486a2.3426,2.3426,0,0,1,2.1164-2.95c1.6158-.2687,2.9146.2162,3.3718,1.7946a9.5611,9.5611,0,0,1,.1956.9593C396.6522,247.8084,397.14,250.509,397.5114,252.5586Z"/><path class="cls-12" d="M298.9736,268.52a25.4736,25.4736,0,0,0-.409-4.6723,2.727,2.727,0,0,1,2.5919-3.4312c1.7743-.2009,2.6679.582,3.0027,2.6165a39.8834,39.8834,0,0,1,.4943,7.9971,2.8744,2.8744,0,0,1-3.1573,3.0482c-2.0018-.1747-2.7022-1.31-2.5387-3.0147C299.0383,270.2213,298.9715,269.368,298.9736,268.52Z"/><path class="cls-10" d="M226.862,196.7619a20.5265,20.5265,0,0,0,.4718,8.1757c.4523,1.5465.0593,2.7626-1.8206,3.2346a2.6578,2.6578,0,0,1-3.5994-1.9789,20.304,20.304,0,0,1-.7914-8.3557c.19-2.0748,1.73-2.7183,3.8459-2.6427q.7036.5088,1.4049,1.0131l.5021.5945Z"/><path class="cls-12" d="M250.7072,228.8688c.6393-2.0669.5984-4.531,1.8905-6.725,1.4907-2.5313,1.188-5.4782,2.3089-8.0962.2834-.6621.2184-1.7079,1.5686-1.5,1.2536.193,2.08.8859,1.9737,2.0068a35.946,35.946,0,0,1-5.11,15.4616,1.5465,1.5465,0,0,1-1.86.6639C250.3842,230.42,250.7087,229.74,250.7072,228.8688Z"/><path class="cls-12" d="M328.0778,267.9532a2.2443,2.2443,0,0,1,2.2225,1.6087c.719,2.6685,1.4475,5.34,1.982,8.0407.2975,1.503-.6975,2.52-2.3551,2.8317a2.4222,2.4222,0,0,1-3.1226-1.8007c-.6366-2.4168-1.2617-4.8384-1.7775-7.2771C324.6059,269.3649,325.8293,267.9668,328.0778,267.9532Z"/><path class="cls-12" d="M371.8765,266.0163a13.6845,13.6845,0,0,1-.2912,2.6634,2.7306,2.7306,0,0,1-3.2155,1.8261,2.2425,2.2425,0,0,1-2.2812-2.4269,31.6649,31.6649,0,0,0-.2936-5.8685,2.4081,2.4081,0,0,1,2.3532-2.9989,2.6821,2.6821,0,0,1,3.2437,2.45C371.5919,263.1526,371.7269,264.65,371.8765,266.0163Z"/><path class="cls-12" d="M351.5457,267.3542c-.1784-1.6772.8213-2.6588,2.5492-2.8757a2.5562,2.5562,0,0,1,3.0321,2.2513c.3919,2.12.6487,4.2649.8335,6.408a2.3342,2.3342,0,0,1-2.3173,2.632c-1.7487.2435-2.9068-.5115-3.1947-2.0091C352.0414,271.6424,351.8371,269.4934,351.5457,267.3542Z"/><path class="cls-12" d="M245.518,209.5085c.0885-.4465.0019-1.0377.2936-1.3163,2.1527-2.056,2.735-4.8828,4.5218-7.1129a2.3458,2.3458,0,0,1,3.1947-.8274c1.4028.7158,1.3609,1.6985.5352,2.8185a48.1375,48.1375,0,0,0-4.0662,7.3913c-.5116,1.0275-1.1395,1.91-2.6148,1.6057A2.1857,2.1857,0,0,1,245.518,209.5085Z"/><path class="cls-12" d="M337.7379,271.71c-.0124-1.901.8306-2.8229,2.5421-3.0331a2.38,2.38,0,0,1,2.9693,1.9436c.4283,1.8437.9545,3.6707,1.3318,5.522a2.7973,2.7973,0,0,1-5.5156.9245C338.67,275.1539,338.1292,273.2649,337.7379,271.71Z"/><path class="cls-1" d="M425.8745,252.2857l.4036.2853C425.9257,252.7191,425.9843,252.4084,425.8745,252.2857Z"/><path class="cls-2" d="M395.288,365.6845l.0671-.1605.12.1592-.1857.0033Z"/><path class="cls-6" d="M226.8753,196.8025l-.5021-.5945C226.6258,196.3491,227.0118,196.4018,226.8753,196.8025Z"/><path class="cls-10" d="M67.57,213.8675c-.533,4.3285-1.0691,8.9346-1.6835,13.5325a2.8942,2.8942,0,0,1-3.4215,2.3609,2.2294,2.2294,0,0,1-2.1781-2.8364q.8377-6.61,1.6411-13.224a2.7031,2.7031,0,0,1,1.3895-2.32,3.2942,3.2942,0,0,1,3.1416-.1318A2.154,2.154,0,0,1,67.57,213.8675Z"/><path class="cls-10" d="M74.2539,223.933c0-1.1079-.015-2.2159.0036-3.3235.0255-1.5223.9311-2.27,2.6269-2.255,1.5993.0144,2.7337.5951,2.8206,2.1384.2527,4.4841.5073,8.969.654,13.4563.0489,1.4965-.8862,2.5048-2.6864,2.5-1.8419-.0047-2.8856-.9431-2.9144-2.5636-.0591-3.3167-.0177-6.6348-.0177-9.9523Z"/><path class="cls-10" d="M137.871,232.2388a2.64,2.64,0,0,1,2.638-2.8439,2.342,2.342,0,0,1,2.8619,2.0731,51.4389,51.4389,0,0,0,3.3748,10.1191,2.645,2.645,0,0,1-1.7551,3.8523c-1.9456.5233-2.8019-.5215-3.4255-1.9479A48.24,48.24,0,0,1,137.871,232.2388Z"/><path class="cls-10" d="M156.4343,227.8187c-.0422-1.86.8731-2.67,2.611-2.8457,1.599-.1616,2.4986.4676,2.8207,1.8475a33.97,33.97,0,0,0,3.8277,9.3385c1.0647,1.8331.7492,3.0723-.8633,3.8663-1.6407.8078-2.9422.3517-4.1213-1.4443C158.8221,235.7064,156.4233,229.5125,156.4343,227.8187Z"/><path class="cls-10" d="M199.0111,227.2546a2.2954,2.2954,0,0,1-1.9446,2.46c-1.5826.3272-2.9714-.0166-3.6179-1.4946-.9828-2.2468-1.8868-4.5208-2.8219-6.7841-.3791-.9176-.7576-1.8356-1.1266-2.7565-.4662-1.1636-.3894-2.2354.9578-2.8766,1.3557-.6452,2.9807-.7237,3.7454.5155C196.3915,219.8643,197.4784,223.8151,199.0111,227.2546Z"/><path class="cls-10" d="M130.7836,240.5723a2.4528,2.4528,0,0,1-2.0966,2.47c-1.4479.3283-2.7919-.0249-3.3178-1.2931-1.2952-3.1233-2.4555-6.2934-3.5622-9.4742a1.926,1.926,0,0,1,1.4228-2.5488c1.3583-.5,2.8675-.4707,3.53.7215C128.5843,233.7313,129.51,237.32,130.7836,240.5723Z"/><path class="cls-10" d="M171.8828,225.1582c-.143-1.0628.5424-2.2736,2.5765-2.3951a2.5907,2.5907,0,0,1,3.0723,2.6453,8.2427,8.2427,0,0,0,3.2333,6.0322c1.3267,1.11,1.3557,2.3375.1219,3.433a2.9775,2.9775,0,0,1-4.144.0863A12.7136,12.7136,0,0,1,171.8828,225.1582Z"/><path class="cls-10" d="M110.9973,229.4017c1.8555-.0285,2.7091.6145,3.0185,1.7561.7908,2.9175,1.5721,5.8385,2.2557,8.7768a2.4675,2.4675,0,0,1-2.2855,3.2031,2.5527,2.5527,0,0,1-3.228-2.1833c-.6735-2.8073-1.47-5.5917-2.127-8.4018A2.4984,2.4984,0,0,1,110.9973,229.4017Z"/><path class="cls-10" d="M204.2947,208.1787a2.4973,2.4973,0,0,1,2.3336-2.474c1.5173-.27,2.8018.3128,3.0641,1.62a20.136,20.136,0,0,0,3.6031,8.13c.784,1.0646.0935,2.1019-1.0275,2.65-1.3791.6747-2.8833.7526-3.9778-.4946A17.783,17.783,0,0,1,204.2947,208.1787Z"/><path class="cls-7" d="M89.6955,230.4854a15.33,15.33,0,0,1,.0139-1.9231c.1777-1.55,1.3218-2.0325,2.9282-2.02,1.6155.0126,2.56.6752,2.492,2.12a18.1551,18.1551,0,0,0,1.5357,8.0385,2.1742,2.1742,0,0,1-1.5548,3.1885c-1.6346.48-3.0075.1083-3.6751-1.5616A18.0483,18.0483,0,0,1,89.6955,230.4854Z"/><path class="cls-14" d="M115.9191,156.4475c-2.694-7.8906-5.3567-15.6463-7.9858-23.411-1.0326-3.0494-1.9431-6.1318-3.0044-9.173-.4293-1.23-.2677-1.7893,1.2107-2.4607a15.2392,15.2392,0,0,1,9.8359-.7742,29.1548,29.1548,0,0,1,9.7393,3.5241c7.6055,4.8237,10.433,11.9288,5.6932,19.7964C127.9278,149.726,122.03,152.9787,115.9191,156.4475Z"/><path class="cls-14" d="M187.821,105.9726c7.6043-.4011,11.1677,4.3191,12.4612,10.3115,1.6391,7.5938-2.018,13.7465-7.5327,19.2067a20.528,20.528,0,0,1-7.0747,4.8268c-1.2292.4756-1.4463.4624-1.8321-.7128-2.6589-8.0984-5.4652-16.1575-8.6827-24.0984a37.1429,37.1429,0,0,1-1.937-4.9644c-.2-.8118-.0687-1.1542.7918-1.4726C178.5073,107.4067,183.0653,106.0083,187.821,105.9726Z"/><path class="cls-14" d="M101.9468,160.4325c-6.0392-.2638-10.75-2.5467-13.7656-7.3377a26.69,26.69,0,0,1-1.9082-3.514,13.4044,13.4044,0,0,1-.1065-11.7117c2.572-5.5432,5.9912-10.2432,11.79-13.4717,1.4625-.8142,2.0569-.9612,2.6213.7948,3.2389,10.0756,6.62,20.1152,9.9521,30.167.1034.3118.1808.6322.3105.935,1.1,2.5691,1.1012,2.5612-2.0883,3.2366A39.7789,39.7789,0,0,1,101.9468,160.4325Z"/><path class="cls-14" d="M174.2068,143.7621a25.4918,25.4918,0,0,1-16.67-6.1115,2.2766,2.2766,0,0,1-.9468-1.2808c-1.1029-6.5991-1.1487-13.0229,3.6045-18.7486a23.045,23.045,0,0,1,6.932-5.35c1.4094-.7671,1.2263.3806,1.4258.9264q4.8916,13.38,9.7338,26.7736c1.29,3.5651,1.2728,3.5714-2.976,3.7882C174.9435,143.7783,174.5746,143.7621,174.2068,143.7621Z"/><path class="cls-15" d="M146.7323,164.5546c2.2712.2784,3.5874,1.8954,5.0443,3.1271,2.8858,2.44,7.2877,2.1263,9.3438-.9519a13.4155,13.4155,0,0,0,2.0449-7.1127c.1085-2.5475.2831-5.0979.2292-7.6437-.0322-1.5207,1.0589-1.7254,2.2169-1.8108a1.6686,1.6686,0,0,1,1.92,1.7386c.1145,4.83.3164,9.6949-1.3891,14.368-2.3726,6.5007-9.18,8.7195-16.4772,5.4816-.3556,1.3086-.6066,2.6489-1.091,3.9188a9.4112,9.4112,0,0,1-7.9583,6.2393c-4.3547.674-7.9875-.343-10.7994-3.4058-2.1271-2.3169-3.1275-5.1378-4.2-7.8988-.69-1.777-1.0938-3.6406-1.6726-5.4535-.2733-.8559-.2456-1.387.8785-1.8213,2.5074-.9688,2.6856-1.0345,3.5731,1.2917.9369,2.456,1.6114,4.99,2.4942,7.4636a11.8928,11.8928,0,0,0,1.4586,2.8193c1.7986,2.5577,5.0367,3.9043,7.624,3.2737a6.8285,6.8285,0,0,0,5.4834-6.3765c.0871-1.6959-.0248-3.3992-.005-5.0987.01-.8258-.132-1.7486,1.056-2.1281l.1184.0465Z"/><path class="cls-16" d="M146.7323,164.5546l-.1068.0664-.1184-.0465c-2.7712-.9274-4.2585-3.285-6.6052-4.6918-.7621-.4569-.1625-.9387.1938-1.3058,2.0089-2.07,4.7695-3.2365,7.2664-4.72.6083-.3614.955-.1947,1.0247.4377C148.7773,157.8342,148.7478,161.321,146.7323,164.5546Z"/><path class="cls-12" d="M322.8686,221.52c.86-.5394.8586-1.4576,1.1442-2.2174a5.5777,5.5777,0,0,1,2.8732-3.0481,12.1526,12.1526,0,0,1,10.89,3.7005,4.721,4.721,0,0,1-.4075,5.01c-1.7441,1.8686-3.45,3.7277-6.6022,3.6865-1.2329-.0161-.9916,1.1852-1.2371,1.8323-1.444,3.8064-1.4016,3.8381,3.1385,3.5408a99.9927,99.9927,0,0,0,13.9644-1.7532,6.85,6.85,0,0,1,2.1849-.138,2.3874,2.3874,0,0,1,2.2541,2.3043,1.9966,1.9966,0,0,1-1.7129,2.4058c-12.2909,2.3873-24.5627,3.68-36.5672-1.1136a28.82,28.82,0,0,1-12.156-9.1226c-1.2772-1.6252-1.1834-2.87.2261-3.7548a3.115,3.115,0,0,1,4.3578.8576c3.9129,4.92,9.2064,7.94,15.7572,9.3753,1.2057.264,1.7494.1709,2.0273-.9395a20.1479,20.1479,0,0,1,.9976-2.7913c.6709-1.6155,1.1035-3.1182-.4133-4.66A3.3951,3.3951,0,0,1,322.8686,221.52Z"/><path class="cls-13" d="M407.204,150.0029a6.1455,6.1455,0,0,1-5.8049-1.9833,25.1186,25.1186,0,0,0-8.2574-6.6461c-.8268-.9088-1.6905-1.7935-2.4725-2.7318-1.5553-1.8663-1.5409-3.1433.3025-4.8536a28.0132,28.0132,0,0,1,15.6856-7.5932c3.3649-.4543,5.0469.2411,5.2612,3.2965.2957,4.2178.7352,8.4948-.4248,12.66C410.7,145.0021,410.3212,148.1182,407.204,150.0029Z"/><path class="cls-11" d="M303.7674,125.0162c-.3773,1.6732-1.46,2.3637-3.4361,2.3138a27.4618,27.4618,0,0,1-4.5626-.5464c-2.1853-.4248-3.6378-2.5454-3.4513-5.3347.3649-5.4553,1.6865-10.7013,5.2372-15.3109a20.8208,20.8208,0,0,1,4.9136-4.6945c5.5267-3.7174,10.4026-2.2282,14.0385,2.1716,4.2853,5.1856,6.37,11.265,8.4771,17.3153.3032.8708.6077,1.7415.8888,2.618.4415,1.3768,1.1108,2.7974-.5344,3.939-1.679,1.165-3.0168.258-4.3461-.6163-1.9808-5.3273-3.9343-10.6629-5.9656-15.9751a12.4214,12.4214,0,0,0-1.6763-2.97c-2.7309-3.6372-6.6284-3.8331-9.8914-.592a7.6091,7.6091,0,0,0-1.9184,3.2671,55.8408,55.8408,0,0,1-2.149,6.965c-2.1839,4.7828-2.0275,5.3588,3.3072,7.2217A8.5041,8.5041,0,0,0,303.7674,125.0162Z"/><path class="cls-14" d="M371.174,164.5133c3.5352,1.2754,7.9535.1346,12.1564.9281,3.9164.7394,6.74,2.8514,7.756,6.4686.8235,2.9332-.8766,5.2668-4.1536,6.0926a18.0351,18.0351,0,0,1-7.6455-.2022,63.1777,63.1777,0,0,0-12.89-1.0911c-3.3048.1-6.0617-1-7.4889-3.8934-1.4067-2.852-.38-5.3835,2.8068-6.6518A28.7672,28.7672,0,0,1,371.174,164.5133Z"/><path class="cls-13" d="M303.7674,125.0162a8.5041,8.5041,0,0,1-1.0688-.2283c-5.3347-1.8629-5.4911-2.4389-3.3072-7.2217a55.8408,55.8408,0,0,0,2.149-6.965,7.6091,7.6091,0,0,1,1.9184-3.2671c3.263-3.2411,7.1605-3.0452,9.8914.592a12.4214,12.4214,0,0,1,1.6763,2.97c2.0313,5.3122,3.9848,10.6478,5.9656,15.9751a23.1984,23.1984,0,0,1-12.7215-1.2235A8.0519,8.0519,0,0,0,303.7674,125.0162Z"/><path class="cls-11" d="M407.204,150.0029c3.1172-1.8847,3.4958-5.0008,4.29-7.8513,1.16-4.1654.7205-8.4424.4248-12.66-.2143-3.0554-1.8963-3.7508-5.2612-3.2965a28.0132,28.0132,0,0,0-15.6856,7.5932c-1.8434,1.71-1.8578,2.9873-.3025,4.8536.782.9383,1.6457,1.823,2.4725,2.7318-3.24,1.0843-6.7879-1.4234-7.1513-4.948-.4-3.8763,1.4243-6.7962,4.9867-8.7536a95.6035,95.6035,0,0,1,15.5787-6.8788c6.0946-2.0466,10.33.7076,10.8687,6.5126.7484,8.0619-1.42,15.72-3.7436,23.37-.4028,1.3263-1.2786,2.5159-3.0243,2.3675-1.6129-.1371-2.9155-.8949-3.0706-2.5815C407.5712,150.3008,407.3366,150.1556,407.204,150.0029Z"/><path class="cls-13" d="M297.9589,145.4909c.0226-3.044,2.1279-4.9253,5.5627-4.7508a54.8315,54.8315,0,0,1,19.8563,4.5626c3.215,1.4432,4.2349,3.64,2.9137,6.2153a6.0132,6.0132,0,0,1-7.8784,2.69,42.0032,42.0032,0,0,0-11.48-3.1905c-1.0863-.1361-2.1946-.1286-3.2911-.2062C300.0377,150.5561,297.936,148.5841,297.9589,145.4909Z"/><path class="cls-12" d="M300.8335,154.3613a4.8742,4.8742,0,0,1,1.1157.2689q5.1207,2.471,10.209,4.9947a4.0635,4.0635,0,0,1,1.03.73,2.3911,2.3911,0,0,1,.3232,3.4058,2.5826,2.5826,0,0,1-3.489.6448c-3.6-1.7484-7.1592-3.5643-10.7272-5.3649a2.1425,2.1425,0,0,1-1.1988-2.8573A2.7405,2.7405,0,0,1,300.8335,154.3613Z"/><path class="cls-10" d="M377.08,189.9753a85.1482,85.1482,0,0,1-11.8376-1.2553c-1.76-.3279-2.6158-1.1566-2.3139-2.7288a2.5931,2.5931,0,0,1,3.2965-2.1541,90.7113,90.7113,0,0,0,12.2417,1.198,2.2567,2.2567,0,0,1,2.4253,2.3132,2.29,2.29,0,0,1-2.1149,2.5679A5.8169,5.8169,0,0,1,377.08,189.9753Z"/><path class="cls-14" d="M402.8722,56.5534a10.026,10.026,0,0,1-.8547,4.7813,3.4388,3.4388,0,0,1-3.022,1.9676c-1.5279.1016-1.96-.9869-2.4079-1.9252a19.6573,19.6573,0,0,1-2.18-9.0877c.0883-2.9954,1.7845-4.9927,4.8424-6.1633,1.032-.3951,1.635-.5134,1.9583.7913A45.71,45.71,0,0,1,402.8722,56.5534Z"/><path class="cls-15" d="M133.55,66.3285c-.628-3.7974-1.2287-7.4427-1.838-11.087-.0465-.2781-.0265-.4973.2911-.635,1.2153-.5266,4.23.6526,4.5727,1.83C137.6445,60.1029,138.08,63.6426,133.55,66.3285Z"/><path class="cls-15" d="M350.4646,39.1126c-.6388,1.1319-1.2348,2.2855-1.9418,3.3827-.2181.3385-.4088,1.092-1.2311.5879l.0522.0212c.9148-1.4193,1.4073-3.061,2.8164-4.22A1.885,1.885,0,0,0,350.4646,39.1126Z"/><path class="cls-15" d="M347.2917,43.0832c.0759.085.1547.1684.221.259a1.22,1.22,0,0,1-.1357.1028,3.1734,3.1734,0,0,0-.0209-.3342C347.3439,43.1044,347.2917,43.0832,347.2917,43.0832Z"/><path class="cls-15" d="M350.16,38.8845c.0317-.2072.1372-.3751.3831-.2429.0588.0316-.0487.3073-.0793.4708A1.89,1.89,0,0,1,350.16,38.8845Z"/></svg>