<svg id="Layer_1" data-name="Layer 1" xmlns="http://www.w3.org/2000/svg" viewBox="0 0 168.33285 186.89225"><defs><style>.cls-1{fill:#fefefd;}.cls-2{fill:#fdfdfe;}.cls-3{fill:#f49423;}.cls-4{fill:#65c7cf;}.cls-5{fill:#f69320;}.cls-6{fill:#0303fd;}.cls-7{fill:#0204fc;}.cls-8{fill:#847387;}.cls-9{fill:#a97c4f;}.cls-10{fill:#fdfdfd;}.cls-11{fill:#f9af3b;}.cls-12{fill:#8910c9;}.cls-13{fill:#871bc9;}.cls-14{fill:#fefaf6;}.cls-15{fill:#080707;}.cls-16{fill:#f9a1f6;}</style></defs><title>shiba2</title><path class="cls-1" d="M.61843,30.92152c0-9.15749.07873-18.31614-.05668-27.47162C.52888,1.22737.90989.547,3.34416.55149Q75.88355.68612,148.4233.61843c-1.83224,1.6548-3.53828,2.85628-6.27923,1.30565a4.19514,4.19514,0,0,0-5.87273,2.277,26.47413,26.47413,0,0,0,1.43223,17.26136,26.48606,26.48606,0,0,0-.346,3.04105c-.04169,10.59481-.64116,21.168-1.40556,31.72682-.15262,2.10821.25959,4.566-1.64882,6.29788-1.04035-4.18341-2.24108-8.30936-3.55125-12.42416-1.13234-3.55623-3.542-6.20308-5.07539-9.41806-2.20832-4.6301-2.755-9.68537-3.61732-14.61666-1.24151-7.10016-5.38671-11.70317-11.52235-14.83772a3.568,3.568,0,0,0-4.09285.27549c-4.24049,3.91709-8.50021,8.11814-9.56264,13.95032-1.54189,8.464-6.29815,12.658-14.65969,13.26-1.63879.118-3.25574.54513-4.89452.656a8.40184,8.40184,0,0,1-6.7831-2.20183c-4.29649-4.057-8.2525-8.59378-13.8017-11.0762-3.05566-1.36694-6.38144-3.15812-9.53386-1.00284-2.57629,1.7614-3.59,4.82552-3.92741,8.02032a174.49606,174.49606,0,0,0-.51387,18.207,36.28538,36.28538,0,0,1-1.74947,11.51723c-1.18471,3.58836-3.18022,6.92941-3.51581,10.79221-2.93432-6.26588-4.2809-13.00711-5.99084-19.65123-1.8119-7.04027-1.51981-14.51345-4.47291-21.30523a17.73917,17.73917,0,0,0-1.07562-9.64825c-.74955-1.67786-2.24948-2.965-3.87307-2.04941-2.10551,1.18733-3.221-.065-4.15484-1.17278A5.44962,5.44962,0,0,0,11.286,18.15776C7.31463,20.02151,3.14373,21.996,1.81439,26.961,1.46193,28.27742,1.74883,29.83305.61843,30.92152Z" transform="translate(-0.559 -0.55147)"/><path class="cls-2" d="M154.60761.61843c4.01979,0,8.045.12247,12.057-.05441,1.85786-.08192,2.22307.37423,2.21843,2.219q-.11,43.75367-.05152,87.50774,0,47.30992.06028,94.61965c.00587,2.11814-.41619,2.53617-2.534,2.53325q-81.63264-.11259-163.26541,0C.975,187.44659.55578,187.02874.559,184.91074Q.67385,109.77156.61843,34.6321C1.63724,40.16133,3.40812,45.3331,7.612,49.34646,7.55276,56.024,8.61331,62.62676,8.97693,69.27887c.39283,7.18634,3.0181,14.01887,3.45341,21.22011.64444,10.66072.53573,21.366,1.37106,31.99277.59956,7.62738-.86331,15.59678,2.80752,22.87889.19752.39181-.06745.99943-.05629,1.50526A55.60861,55.60861,0,0,0,17.9387,157.756l.08731,6.21341a2.66918,2.66918,0,0,0,.51389,2.29035,2.637,2.637,0,0,0-1.12349,2.306c.6684,5.05115-.80239,9.93862-1.68517,14.75763-.50806,2.77346.11,2.86809,2.08593,2.91514,18.84308.44878,37.689.33534,56.53393.21123,23.48515-.15465,46.97005-.50836,70.45433-.45561,3.27586.00736,3.60649-1.15582,2.9422-3.3948-2.04925-6.90688-.46914-14.21786-2.51849-21.10175.15842-1.25747,1.10135-2.36566.70943-3.72788a40.77686,40.77686,0,0,1,.24613-4.614c1.29194-7.89884,2.68945-15.7804,3.9928-23.67745a28.50394,28.50394,0,0,0,.50892-5.48259c-.14781-4.70948,1.13733-9.15,2.65563-13.46524,1.59954-4.54617,4.7606-8.46769,5.04671-13.58667A45.36708,45.36708,0,0,1,159.982,88.785a210.00212,210.00212,0,0,0,6.02417-40.4486c.28783-6.15457-.019-12.33762.853-18.48656.40567-2.8608.86112-6.06365-2.05886-8.244,1.84884-4.94779.53917-9.60558-1.32107-14.20528-1.54834-3.82852-4.28166-6.08344-8.50708-6.34286C154.84221,1.04968,154.72878.77094,154.60761.61843Z" transform="translate(-0.559 -0.55147)"/><path class="cls-3" d="M154.60761.61843c.12117.15251.2346.43125.36464.43924,4.22542.25942,6.95874,2.51434,8.50708,6.34286,1.86024,4.5997,3.16991,9.25749,1.322,14.20475-7.46929,1.08617-14.87993.19222-22.292-.66743a8.01606,8.01606,0,0,0-4.80249.52544,26.45739,26.45739,0,0,1-1.43541-17.26217,4.19514,4.19514,0,0,1,5.87273-2.277c2.74095,1.55063,4.447.34915,6.27923-1.30565Zm-4.53214,19.839a4.24433,4.24433,0,0,0,3.81618-4.29028c-.24039-2.34136-1.84292-3.216-4.09942-3.222-2.32021-.00626-3.40313,1.39168-3.66807,3.38037C145.85066,18.37845,148.0137,20.472,150.07547,20.45745Zm11.38039-6.0765c-.4625-1.53779-.44634-3.74465-2.95419-3.78075-2.45712-.03537-2.93983,2.238-3.06429,3.90142a3.02443,3.02443,0,0,0,3.13458,3.427C160.77085,17.95025,161.1364,16.29761,161.45586,14.381Zm-23.5953-3.65462c.09944,2.49583.941,3.96723,2.86919,3.94583a3.0366,3.0366,0,0,0,3.16043-3.4041c-.11457-1.7-1.07363-3.25771-3.09981-3.11686C138.9923,8.27619,137.70254,9.23323,137.86056,10.72633Zm13.97425-.79391a2.24609,2.24609,0,0,0,2.46177-2.55416c-.15185-1.69409-1.01371-3.59516-3.10591-3.57848-1.96554.01568-2.693,1.73657-2.73238,3.45651C148.41443,9.17157,149.69948,9.92961,151.83481,9.93242Z" transform="translate(-0.559 -0.55147)"/><path class="cls-3" d="M7.61274,49.34816C3.40812,45.3331,1.63724,40.16133.61843,34.6321V30.92152c1.1304-1.08847.8435-2.6441,1.196-3.96051,1.32934-4.965,5.50024-6.9395,9.47157-8.80325a5.44962,5.44962,0,0,1,6.64873,1.64467c.93386,1.1078,2.04933,2.36011,4.15484,1.17278,1.62359-.91557,3.12352.37155,3.87307,2.04941a17.74113,17.74113,0,0,1,1.07588,9.648,4.35681,4.35681,0,0,0-2.12755.90726c-2.43934,1.915-5.03346,3.63291-7.56892,5.42563-.19113-1.01775.76977-1.67974.83985-2.56943.14564-1.849-.43772-3.557-2.285-4.17558-2.13046-.71344-2.86838.90485-3.33026,2.60163-.80706,2.96481.44252,4.03534,4.7953,4.12528a19.64984,19.64984,0,0,1-5.25034,5.04391A11.98309,11.98309,0,0,0,7.61274,49.34816ZM8.68311,34.74182c-.12961-1.91554-.85241-3.19745-2.77542-3.16768-2.50525.03879-3.26465,1.88528-3.405,3.93769A2.41039,2.41039,0,0,0,5.36311,38.294,3.46435,3.46435,0,0,0,8.68311,34.74182ZM6.80344,26.02616c-.09818,2.23644.57876,3.60289,2.69031,3.64969,2.07153.04591,2.87156-1.22773,2.9395-3.16015.06429-1.82838-.32926-3.46467-2.46135-3.54814C7.84076,22.88413,6.9234,24.34068,6.80344,26.02616Zm16.09485,3.64476A2.54693,2.54693,0,0,0,20.09458,26.743a2.61158,2.61158,0,0,0-2.70717,2.76146,2.79546,2.79546,0,0,0,2.76764,3.067A2.48358,2.48358,0,0,0,22.89829,29.67092Z" transform="translate(-0.559 -0.55147)"/><path class="cls-4" d="M17.3421,39.00554c2.53537-1.79273,5.12949-3.5106,7.56883-5.42564a4.35681,4.35681,0,0,1,2.12755-.90726c2.95284,6.792,2.66075,14.26519,4.47265,21.30546C33.22107,60.62222,34.56765,67.36345,37.502,73.629c1.91758,3.18542,2.73769,6.95656,5.24328,9.82846.702,2.41374,2.78093,3.96074,3.86282,6.13545,1.27616,3.1979,3.74428,5.30634,6.24554,7.57851A52.75169,52.75169,0,0,0,74.793,108.93628c4.51531,1.23172,9.406.92226,14.23222.69677,6.5666-.3068,12.91973-.42483,19.05192-3.4233,6.51012-3.18324,11.60339-7.9359,16.13118-13.30854,1.41239-1.6759,3.06117-3.81025,2.89761-6.45878,2.05821-5.8242,5.19033-11.28368,5.95888-17.54586,1.602-1.8914,1.03466-4.2047,1.23843-6.368,1.90838-1.7322,1.49617-4.19,1.64879-6.29819.7644-10.55885,1.36387-21.132,1.40556-31.72682a26.48606,26.48606,0,0,1,.346-3.04105,8.03489,8.03489,0,0,1,4.80567-.52463c7.41212.85965,14.82276,1.7536,22.292.66743,2.91909,2.18092,2.46364,5.38377,2.058,8.24457-.872,6.14894-.56521,12.332-.853,18.48656A210.00212,210.00212,0,0,1,159.982,88.785a45.36708,45.36708,0,0,0-1.59329,8.15878c-.28611,5.119-3.44717,9.0405-5.04671,13.58667-1.5183,4.31525-2.80344,8.75576-2.65563,13.46524a28.50394,28.50394,0,0,1-.50892,5.48259c-1.30335,7.89705-2.70086,15.77861-3.9928,23.67745a40.78973,40.78973,0,0,0-.2462,4.61337l-.17991-.02437c-1.02676-.02154-2.06025-.12982-3.07919-.0507-7.32493.5688-14.587,1.74639-21.96185,1.89353-13.48879.26915-26.99378-.5154-40.46829.63843a230.08075,230.08075,0,0,1-31.78544.10131c-10.20628-.5375-20.48391-.10712-30.52512-2.57131a55.60861,55.60861,0,0,1-1.38607-10.8801c-.01116-.50583.25381-1.11345.05629-1.50526-3.67083-7.28211-2.208-15.25151-2.80752-22.87889-.83533-10.62678-.72662-21.332-1.37106-31.99277C11.995,83.29774,9.36976,76.46521,8.97693,69.27887,8.61331,62.62676,7.55276,56.024,7.612,49.34646a11.99382,11.99382,0,0,1,4.49954-5.31512,19.64984,19.64984,0,0,0,5.25034-5.04391Zm79.238,94.04707-.0478.0021c0,1.12718-.05348,2.25769.01653,3.38051.05846.93753-.478,2.39522.96165,2.51825,1.485.12691,1.15685-1.3434,1.29367-2.296.083-.578-.16317-1.41156.479-1.63.82276-.28,1.17358.47765,1.553,1.1214.47218.80113.89162,2.35032,2.10839,1.41252.97092-.7483.54489-2.21856-.41583-2.9612-1.6177-1.25049-1.75923-2.14335-.205-3.70515.88384-.88816.57433-2.5535-.37384-3.6917a3.45512,3.45512,0,0,0-3.52842-1.36892c-1.62662.34734-1.5371,1.70505-1.62039,2.92061C96.703,130.18586,96.65167,131.61993,96.58008,133.05261ZM110.8112,131.859l-.06527,0c0,1.43293-.00664,2.86589.00224,4.29876.00633,1.02171.379,1.99,1.47506,1.97856,1.5193-.01592,1.00034-1.32019.86259-2.09052-.4542-2.5401.15176-4.16123,3.06189-4.30437a1.73529,1.73529,0,0,0,1.7345-1.47808c.26144-1.61408-2.63357-4.30895-4.81472-4.45692-2.56865-.17425-2.35087,1.597-2.26461,3.29153C110.84962,130.016,110.8112,130.93845,110.8112,131.859Zm-38.228-4.47946c-.98241.37347-3.54151-.83607-3.159,1.95677a37.52414,37.52414,0,0,1,.048,6.41808c-.10773,3.44129,2.37025,5.29633,5.36938,4.22082.60369-.2165,1.2375-.39276,1.18836-1.17725-.05219-.83306-.718-.8847-1.35478-.86863-1.25545.03169-2.55517.177-2.91589-1.51228-.30961-1.45.52092-1.95325,1.73109-2.39428.77369-.28194,1.05546-1.106.07612-1.58859-.74526-.36729-2.06666-.06676-1.61893-1.55811.37-1.23261,1.49538-.83742,2.36071-.89266.90861-.058,1.68452-.2195,1.63747-1.35062-.04642-1.11608-.84995-1.26511-1.7423-1.25411C73.79126,127.38369,73.379,127.37949,72.58315,127.37949Zm-29.71148.60787c-1.64374.2281-3.26631-.16931-4.65912.59441-.63188.34648-1.71628.62573-1.55229,1.68072.1818,1.16958,1.24989.94467,1.98322.84147,2.00917-.28277,2.52234.6278,2.33459,2.44451a28.81528,28.81528,0,0,0-.01545,3.69369c.02331.89784-.133,2.10127,1.13,2.15484,1.36226.05779,1.13519-1.17645,1.15382-2.05854.03252-1.5395.02511-3.0802.01183-4.6202-.00883-1.02488.20038-1.79679,1.45295-1.90972,1.11136-.10024,2.473-.14767,2.11723-1.8637-.31521-1.52026-1.63062-.81623-2.54555-.94484A9.50492,9.50492,0,0,0,42.87167,127.98736Zm41.73279,1.93819c1.309-.7822,3.4326-.9039,2.32456-2.9054-.5138-.92811-1.72357-.38139-2.575-.15018-1.39706.37938-2.70671.91838-3.11942,2.5886a1.89575,1.89575,0,0,0,1.09676,2.25483c.9928.64318,2.66747.52207,2.82112,2.518a10.92676,10.92676,0,0,0-2.56477.03468,1.21071,1.21071,0,0,0-.49634,2.27673,3.77811,3.77811,0,0,0,4.81472-.46018,2.67636,2.67636,0,0,0,.125-4.10283C86.39192,131.32753,85.63567,130.79,84.60446,129.92555Zm-24.02,2.41288c.0891,1.84847.095,3.28738.25076,4.70987.09373.85616.0489,2.11257,1.36,1.99534,1.5607-.13957.99-1.29355.94684-2.32406-.06138-1.46552-1.08729-3.30542,1.24882-4.17018,1.49065-.55181,2.78879-1.2839,2.01569-3.4-.8326-2.27894-2.51885-1.93959-4.28286-1.80164-2.48831.1946-1.31631,2.05446-1.51808,3.25988A8.68438,8.68438,0,0,0,60.58446,132.33843Zm-10.18333-4.9565a3.4072,3.4072,0,0,0-.91368.65849,1.37232,1.37232,0,0,0,.0644,1.73208c2.31945,2.23421,1.99338,5.23894,2.5259,8.01061.16941.88177.08485,2.47255,1.56125,2.11105,1.37055-.33558.70851-1.68205.54861-2.643-.429-2.57839-1.53876-5.2787,1.84993-6.90137a1.40352,1.40352,0,0,0,.26583-2.17645,1.13616,1.13616,0,0,0-1.86823.15155c-1.30678,1.62871-2.27494,1.41873-3.17537-.34332C51.13823,127.74376,50.77141,127.63127,50.40113,127.38193Zm70.94282,3.94513a12.053,12.053,0,0,0-.06189,1.33635c.08978.94173-.40623,2.37714,1.16339,2.34777,1.24614-.02332,1.02705-1.3076,1.08271-2.19716.07716-1.233.12416-2.468.17511-3.70255.05165-1.2514-.14452-2.65481,1.96172-1.90544a1.19666,1.19666,0,0,0,1.54677-1.11016c.12393-1.01071-.72191-1.06714-1.43891-1.19937a16.84444,16.84444,0,0,0-6.14023.02675c-.7388.13518-1.53539.29479-1.42427,1.24944a1.14086,1.14086,0,0,0,1.63754.90857c2.08762-.67161,1.92987.50371,1.70682,1.88919C121.40593,129.88218,121.38643,130.81439,121.344,131.32706Zm-28.9134-3.951c-1.816.22659-2.09395,1.60914-2.50666,2.671a4.91282,4.91282,0,0,0,1.32016,5.56756,2.87859,2.87859,0,0,0,2.5796,1.1557.85083.85083,0,0,0,.78666-.7916c.08044-.62783.112-1.32778-.57654-1.57045-3.2245-1.13641-3.04394-2.78024-.85763-4.87514a1.31531,1.31531,0,0,0,.03164-1.70536C93.00875,127.5491,92.562,127.44732,92.43055,127.376Zm14.02671,2.91358-.19415.023c.30829,1.9221.58048,3.851.9432,5.76279.13873.73121.54444,1.39766,1.478,1.187a1.08212,1.08212,0,0,0,.74963-1.46718,34.07359,34.07359,0,0,1-.812-7.32359,1.04234,1.04234,0,0,0-1.22631-1.0696,1.00366,1.00366,0,0,0-.93006,1.04049C106.42869,129.05617,106.45726,129.67373,106.45726,130.28959Z" transform="translate(-0.559 -0.55147)"/><path class="cls-5" d="M42.74539,83.45756c-2.50566-2.872-3.32577-6.64312-5.24335-9.82854.33552-3.86249,2.331-7.20354,3.51574-10.7919a36.28538,36.28538,0,0,0,1.74947-11.51723,174.49606,174.49606,0,0,1,.51387-18.207c.33739-3.1948,1.35112-6.25892,3.92741-8.02032,3.15242-2.15528,6.4782-.3641,9.53386,1.00284,5.5492,2.48242,9.50521,7.01923,13.8017,11.0762a8.40184,8.40184,0,0,0,6.7831,2.20183c1.63878-.1109,3.25573-.538,4.89452-.656,8.36154-.602,13.1178-4.796,14.65969-13.26,1.06243-5.83218,5.32215-10.03323,9.56264-13.95032a3.568,3.568,0,0,1,4.09285-.27549c6.13564,3.13455,10.28084,7.73756,11.52235,14.83772.86227,4.93129,1.409,9.98656,3.61732,14.61666,1.53338,3.215,3.943,5.86183,5.07539,9.41806,1.31017,4.1148,2.5109,8.24075,3.55125,12.42416-.20374,2.16364.36363,4.47694-1.23868,6.36785-2.3035-6.26171-5.6751-9.42428-12.15265-8.93009-6.30727.4812-11.75839,3.17414-16.91764,6.51048-1.68015,1.08652-3.68811,1.90495-4.81353,3.71743a35.87443,35.87443,0,0,1-8.27943,9.61662c-2.03054-.74093-3.91431-.88677-5.22579,1.28846-2.88406-.95514-5.98833-1.29759-8.495-3.27957-7.51958-5.94556-15.72983-6.36427-24.18118-2.49951C48.99562,77.15076,46.15564,80.7262,42.74539,83.45756Zm61.983-46.46388c1.86032,1.72766,3.82063,3.11827,6.54276,1.9413,1.36741.95869,2.74581,1.94084,4.46612.78165a2.83354,2.83354,0,0,0,1.02792-3.29847c-.82533-3.57888-1.60589-7.171-2.553-10.71816-1.2474-4.67164-5.10406-5.65551-8.61993-2.39893-2.987,2.76675-4.22366,6.51617-5.83726,10.0305a3.29617,3.29617,0,0,0,1.14555,4.12631C102.43662,38.66024,103.53825,37.82411,104.72839,36.99368ZM65.06574,45.78433c1.59515-.09233,3.49233.48975,4.43734-1.34918.92588-1.80171-.15325-3.36221-1.09284-4.8323-2.46382-3.85492-6.18586-6.19853-10.11971-8.24887a4.62985,4.62985,0,0,0-4.16743.02735c-3.68519,1.62985-4.58559,5.08907-5.192,8.4739-.81091,4.526,1.18781,8.89133,1.34586,13.40467.05938,1.69549,1.58476,1.85233,3.04086,1.80543,1.4895-.048,2.34547-.62566,2.34227-2.1966-.00148-.72074.00232-1.44149.00373-2.16224A11.47418,11.47418,0,0,0,65.06574,45.78433Zm.41122,5.45883c-1.95879.15791-3.39744.23888-4.82741.39795-1.82415.2029-3.22525.8869-2.95981,3.09252.258,2.14412,1.39271,3.63,3.64793,3.22683a26.29938,26.29938,0,0,1,9.18749.35186c1.90388.32439,3.3157-.18056,3.7142-2.209.408-2.07665-.12394-3.73137-2.53935-4.08049C69.46479,51.69979,67.21775,51.4585,65.477,51.24316Zm37.96289-3.32379c.08943-2.828-1.446-4.03706-4.27319-3.31543a19.72631,19.72631,0,0,0-9.02018,4.90983c-1.50143,1.44179-2.256,2.76644-.99911,4.4857,1.21817,1.66633,2.87977,1.309,4.36252.2581a22.77823,22.77823,0,0,1,7.77039-3.60217A2.5277,2.5277,0,0,0,103.43985,47.91937ZM71.87712,64.814c-.15569-.191-.33544-.62309-.64533-.75944a29.76372,29.76372,0,0,0-12.17323-2.35795c-.74979.00053-1.183.33519-1.22794,1.06a1.339,1.339,0,0,0,1.454,1.56755,63.00867,63.00867,0,0,1,10.95025,1.59625C71.07071,66.11664,71.647,65.95067,71.87712,64.814Zm27.51635-4.77742a4.22343,4.22343,0,0,0,.76657-.40192q3.29064-2.65147,6.55669-5.33336a.95818.95818,0,0,0,.24887-1.35059c-.4247-.59536-1.06795-.46969-1.66281-.25669-2.89986,1.03834-4.69311,3.43562-6.66694,5.57076C98.02985,58.9203,98.14555,59.8174,99.39347,60.03658Z" transform="translate(-0.559 -0.55147)"/><path class="cls-6" d="M145.22913,161.49765c2.04936,6.88389.46925,14.19487,2.5185,21.10175.66429,2.239.33366,3.40216-2.9422,3.3948-23.48428-.05275-46.96918.301-70.45433.45561-18.8449.12411-37.69085.23755-56.53393-.21123-1.97593-.04705-2.594-.14168-2.08593-2.91514.88278-4.819,2.35357-9.70648,1.68517-14.75763a2.6371,2.6371,0,0,1,1.12322-2.30594,70.39066,70.39066,0,0,0,16.80893,2.04893c3.59687-.09118,7.19359-.20626,10.79107-.24348.95877-.00993,2.18537-.26924,2.42611,1.22865a2.40651,2.40651,0,0,1-1.04209,2.85,16.48456,16.48456,0,0,0-4.35774,4.663c-1.48568,2.30874-1.73059,3.36183-1.13739,5.81145,1.51082-3.23659,1.99278-6.99275,6.10272-8.24133-.10232,2.79083-.9038,5.45826.60126,7.864a25.80974,25.80974,0,0,0,.40595-4.19538,27.158,27.158,0,0,1,.8505-4.52906c1.15943-4.14242,1.88225-4.68234,6.10774-4.63655,1.953.02117,3.91011.129,5.85532.3071,7.2746.66627,14.53148,1.636,21.81986,2.01869,15.157.79578,30.11122-1.47468,45.095-3.34965A36.043,36.043,0,0,0,145.22913,161.49765Z" transform="translate(-0.559 -0.55147)"/><path class="cls-7" d="M17.9387,157.756c10.04121,2.46419,20.31884,2.03381,30.52512,2.57131a230.08075,230.08075,0,0,0,31.78544-.10131c13.47451-1.15383,26.9795-.36928,40.46829-.63843,7.37489-.14714,14.63692-1.32473,21.96185-1.89353,1.01894-.07912,2.05243.02916,3.0787.04889-.67672,2.35676-2.46961,3.668-4.45319,4.84352a32.13585,32.13585,0,0,1-10.04936,3.58645,208.01368,208.01368,0,0,1-22.68262,3.17465,206.22188,206.22188,0,0,1-46.79882-1.433,100.93275,100.93275,0,0,0-15.857-1.07354c-9.49653.20542-18.83839.5784-27.89113-2.87156Z" transform="translate(-0.559 -0.55147)"/><path class="cls-8" d="M18.026,163.96941c9.05274,3.45,18.3946,3.077,27.89113,2.87156a100.93275,100.93275,0,0,1,15.857,1.07354,206.22188,206.22188,0,0,0,46.79882,1.433,208.01368,208.01368,0,0,0,22.68262-3.17465,32.13585,32.13585,0,0,0,10.04936-3.58645c1.98358-1.17554,3.77647-2.48676,4.45319-4.84352l.1804.02618c.392,1.36288-.55094,2.47107-.70936,3.72854a36.0431,36.0431,0,0,1-16.36222,6.35856c-14.98383,1.875-29.93809,4.14543-45.095,3.34965-7.28838-.38265-14.54526-1.35242-21.81986-2.01869-1.94521-.17814-3.90236-.28593-5.85532-.3071-4.22549-.04579-4.94831.49413-6.10774,4.63655a27.158,27.158,0,0,0-.8505,4.52906,25.80974,25.80974,0,0,1-.40595,4.19538c-1.50506-2.40573-.70358-5.07316-.60126-7.864-4.10994,1.24858-4.5919,5.00474-6.10272,8.24133-.5932-2.44962-.34829-3.50271,1.13739-5.81145a16.48456,16.48456,0,0,1,4.35774-4.663,2.40651,2.40651,0,0,0,1.04209-2.85c-.24074-1.49789-1.46734-1.23858-2.42611-1.22865-3.59748.03722-7.1942.1523-10.79107.24348a70.39066,70.39066,0,0,1-16.80893-2.04893A2.67024,2.67024,0,0,1,18.026,163.96941Z" transform="translate(-0.559 -0.55147)"/><path class="cls-9" d="M150.07547,20.45745c-2.06177.01454-4.22481-2.079-3.95131-4.132.26494-1.98869,1.34786-3.38663,3.66807-3.38037,2.2565.00608,3.859.88069,4.09942,3.222A4.24433,4.24433,0,0,1,150.07547,20.45745Z" transform="translate(-0.559 -0.55147)"/><path class="cls-9" d="M161.45586,14.381c-.31946,1.91666-.685,3.5693-2.8839,3.54771a3.02443,3.02443,0,0,1-3.13458-3.427c.12446-1.66344.60717-3.93679,3.06429-3.90142C161.00952,10.6363,160.99336,12.84316,161.45586,14.381Z" transform="translate(-0.559 -0.55147)"/><path class="cls-9" d="M137.86056,10.72633c-.158-1.4931,1.13174-2.45014,2.92981-2.57513,2.02618-.14085,2.98524,1.41684,3.09981,3.11686a3.0366,3.0366,0,0,1-3.16043,3.4041C138.80155,14.69356,137.96,13.22216,137.86056,10.72633Z" transform="translate(-0.559 -0.55147)"/><path class="cls-9" d="M151.83481,9.93242c-2.13533-.00281-3.42038-.76085-3.37652-2.67613.03939-1.71994.76684-3.44083,2.73238-3.45651,2.0922-.01668,2.95406,1.88439,3.10591,3.57848A2.24609,2.24609,0,0,1,151.83481,9.93242Z" transform="translate(-0.559 -0.55147)"/><path class="cls-9" d="M8.68311,34.74182a3.46435,3.46435,0,0,1-3.32,3.55216,2.41039,2.41039,0,0,1-2.86039-2.78215c.14032-2.05241.89972-3.8989,3.405-3.93769C7.8307,31.54437,8.5535,32.82628,8.68311,34.74182Z" transform="translate(-0.559 -0.55147)"/><path class="cls-9" d="M17.36192,38.98743c-4.35278-.08994-5.60236-1.16047-4.7953-4.12528.46188-1.69678,1.1998-3.31507,3.33026-2.60163,1.84726.61859,2.43062,2.32661,2.285,4.17558-.07008.88969-1.031,1.55168-.83985,2.56943Z" transform="translate(-0.559 -0.55147)"/><path class="cls-9" d="M6.80344,26.02616c.12-1.68548,1.03732-3.142,3.16846-3.0586,2.13209.08347,2.52564,1.71976,2.46135,3.54814-.06794,1.93242-.868,3.20606-2.9395,3.16015C7.3822,29.62905,6.70526,28.2626,6.80344,26.02616Z" transform="translate(-0.559 -0.55147)"/><path class="cls-9" d="M22.89829,29.67092a2.48358,2.48358,0,0,1-2.74324,2.9006,2.79546,2.79546,0,0,1-2.76764-3.067A2.61158,2.61158,0,0,1,20.09458,26.743,2.54693,2.54693,0,0,1,22.89829,29.67092Z" transform="translate(-0.559 -0.55147)"/><path class="cls-10" d="M127.10592,86.44243c.16356,2.64853-1.48522,4.78288-2.89761,6.45878-4.52779,5.37264-9.62106,10.1253-16.13118,13.30854-6.13219,2.99847-12.48532,3.1165-19.05192,3.4233-4.82626.22549-9.71691.535-14.23222-.69677A52.75169,52.75169,0,0,1,52.85368,97.17144c-2.50126-2.27217-4.96938-4.38061-6.24614-7.579,1.926-2.21452,3.56773-4.79154,5.83509-6.57164,5.79063-4.54623,11.95561-4.23738,18.55285-1.24549,4.74782,2.15317,9.16477,5.8592,15.00174,4.72762,1.0022.76658,2.62449.31217,3.30585,1.75952.69661,1.47976-.55232,6.29116-2.11442,7.22953-2.35451,1.41439-3.12764-.885-4.36541-2.05024-.27422-.25816-.577-.486-1.04675-.87826A4.86722,4.86722,0,0,0,81.8304,94.55c.75164,2.88552,3.46187,2.22333,5.32793,3.0766.66,2.31482,2.02307,3.56635,4.58947,3.17987,2.46-.37044,1.93219-2.38579,2.277-3.93984.15129-.68181.34945-1.35324.52633-2.02938,4.79632-.54583,6.65986-2.307,6.6648-6.3633-1.40533.52544-1.60719,2.036-2.47729,2.98006-1.91228,2.07488-3.92885,2.48381-6.08087-.19919-1.9169-2.38985-2.14709-4.60611-.42033-7.07768,2.87835-1.03987,5.43486-2.37737,7.3-5.062a34.64007,34.64007,0,0,1,2.84739-4.286c3.20927-3.42072,7.32125-4.4396,11.79383-5.00466,6.06992-.76687,9.32069,1.22653,10.749,7.19956C125.67708,80.15791,126.38129,83.30261,127.10592,86.44243Z" transform="translate(-0.559 -0.55147)"/><path class="cls-11" d="M127.10592,86.44243c-.72463-3.13982-1.42884-6.28452-2.17824-9.41841-1.42833-5.973-4.6791-7.96643-10.749-7.19956-4.47258.56506-8.58456,1.58394-11.79383,5.00466a34.64007,34.64007,0,0,0-2.84739,4.286c-1.8651,2.6846-4.42161,4.0221-7.29993,5.06187.08089-1.61659.05878-3.20159-1.3362-4.36644A35.87558,35.87558,0,0,0,99.1807,70.1939c1.12542-1.81248,3.13338-2.63091,4.81353-3.71743,5.15925-3.33634,10.61037-6.02928,16.91764-6.51048,6.47755-.49419,9.84915,2.66838,12.15265,8.93009C132.29625,75.15875,129.16413,80.61823,127.10592,86.44243Z" transform="translate(-0.559 -0.55147)"/><path class="cls-11" d="M85.99722,86.503c-5.837,1.13158-10.25392-2.57445-15.00174-4.72762-6.59724-2.99189-12.76222-3.30074-18.55285,1.24549-2.26736,1.7801-3.909,4.35712-5.83509,6.57164-1.08129-2.17426-3.16019-3.72126-3.86222-6.135,3.41032-2.73128,6.2503-6.30672,10.254-8.13758,8.45135-3.86476,16.6616-3.446,24.18118,2.49951,2.50668,1.982,5.611,2.32443,8.495,3.2796A6.07756,6.07756,0,0,0,85.99722,86.503Z" transform="translate(-0.559 -0.55147)"/><path class="cls-12" d="M96.58008,133.05261c.07159-1.43268.12291-2.86675.221-4.29762.08329-1.21556-.00623-2.57327,1.62039-2.92061a3.45512,3.45512,0,0,1,3.52842,1.36892c.94817,1.1382,1.25768,2.80354.37384,3.6917-1.55422,1.5618-1.41269,2.45466.205,3.70515.96072.74264,1.38675,2.2129.41583,2.9612-1.21677.9378-1.63621-.61139-2.10839-1.41252-.37943-.64375-.73025-1.40136-1.553-1.1214-.64217.21849-.396,1.05208-.479,1.63-.13682.95259.19129,2.4229-1.29367,2.296-1.4397-.123-.90319-1.58072-.96165-2.51825-.07-1.12282-.01653-2.25333-.01653-3.38051Z" transform="translate(-0.559 -0.55147)"/><path class="cls-13" d="M110.8112,131.859c0-.9205.03842-1.843-.00832-2.76108-.08626-1.69453-.304-3.46578,2.26461-3.29153,2.18115.148,5.07616,2.84284,4.81472,4.45692a1.73529,1.73529,0,0,1-1.7345,1.47808c-2.91013.14314-3.51609,1.76427-3.06189,4.30437.13775.77033.65671,2.0746-.86259,2.09052-1.0961.01149-1.46873-.95685-1.47506-1.97856-.00888-1.43287-.00224-2.86583-.00224-4.29876Z" transform="translate(-0.559 -0.55147)"/><path class="cls-12" d="M72.58315,127.37949c.79588,0,1.20811.0042,1.62023-.00086.89235-.011,1.69588.138,1.7423,1.25411.047,1.13112-.72886,1.29261-1.63747,1.35062-.86533.05524-1.99067-.34-2.36071.89266-.44773,1.49135.87367,1.19082,1.61893,1.55811.97934.48263.69757,1.30665-.07612,1.58859-1.21017.441-2.0407.94429-1.73109,2.39428.36072,1.68932,1.66044,1.544,2.91589,1.51228.6368-.01607,1.30259.03557,1.35478.86863.04914.78449-.58467.96075-1.18836,1.17725-2.99913,1.07551-5.47711-.77953-5.36938-4.22082a37.52414,37.52414,0,0,0-.048-6.41808C69.04164,126.54342,71.60074,127.753,72.58315,127.37949Z" transform="translate(-0.559 -0.55147)"/><path class="cls-13" d="M42.87167,127.98736A9.50492,9.50492,0,0,1,44.2829,128c.91493.12861,2.23034-.57542,2.54555.94484.35581,1.716-1.00587,1.76346-2.11723,1.8637-1.25257.11293-1.46178.88484-1.45295,1.90972.01328,1.54.02069,3.0807-.01183,4.6202-.01863.88209.20844,2.11633-1.15382,2.05854-1.263-.05357-1.10669-1.257-1.13-2.15484a28.81528,28.81528,0,0,1,.01545-3.69369c.18775-1.81671-.32542-2.72728-2.33459-2.44451-.73333.1032-1.80142.32811-1.98322-.84147-.164-1.055.92041-1.33424,1.55229-1.68072C39.60536,127.81805,41.22793,128.21546,42.87167,127.98736Z" transform="translate(-0.559 -0.55147)"/><path class="cls-12" d="M84.60446,129.92555c1.03121.86445,1.78746,1.402,2.42665,2.05421a2.67636,2.67636,0,0,1-.125,4.10283,3.77811,3.77811,0,0,1-4.81472.46018,1.21071,1.21071,0,0,1,.49634-2.27673,10.92676,10.92676,0,0,1,2.56477-.03468c-.15365-1.99589-1.82832-1.87478-2.82112-2.518a1.89575,1.89575,0,0,1-1.09676-2.25483c.41271-1.67022,1.72236-2.20922,3.11942-2.5886.85143-.23121,2.0612-.77793,2.575.15018C88.03706,129.02165,85.91345,129.14335,84.60446,129.92555Z" transform="translate(-0.559 -0.55147)"/><path class="cls-12" d="M60.58446,132.33843a8.68438,8.68438,0,0,1,.02121-1.73077c.20177-1.20542-.97023-3.06528,1.51808-3.25988,1.764-.138,3.45026-.4773,4.28286,1.80164.7731,2.11608-.525,2.84817-2.01569,3.4-2.33611.86476-1.3102,2.70466-1.24882,4.17018.04316,1.03051.61386,2.18449-.94684,2.32406-1.31114.11723-1.26631-1.13918-1.36-1.99534C60.67949,135.62581,60.67356,134.1869,60.58446,132.33843Z" transform="translate(-0.559 -0.55147)"/><path class="cls-12" d="M50.40113,127.38193c.37028.24934.7371.36183.85864.59968.90043,1.76205,1.86859,1.972,3.17537.34332a1.13616,1.13616,0,0,1,1.86823-.15155,1.40352,1.40352,0,0,1-.26583,2.17645c-3.38869,1.62267-2.279,4.323-1.84993,6.90137.1599.96091.82194,2.30738-.54861,2.643-1.4764.3615-1.39184-1.22928-1.56125-2.11105-.53252-2.77167-.20645-5.7764-2.5259-8.01061a1.37232,1.37232,0,0,1-.0644-1.73208A3.4072,3.4072,0,0,1,50.40113,127.38193Z" transform="translate(-0.559 -0.55147)"/><path class="cls-12" d="M121.344,131.32706c.04248-.51267.062-1.44488.20876-2.35661.22305-1.38548.3808-2.5608-1.70682-1.88919a1.14086,1.14086,0,0,1-1.63754-.90857c-.11112-.95465.68547-1.11426,1.42427-1.24944a16.84444,16.84444,0,0,1,6.14023-.02675c.717.13223,1.56284.18866,1.43891,1.19937A1.19666,1.19666,0,0,1,125.665,127.206c-2.10624-.74937-1.91007.654-1.96172,1.90544-.051,1.23452-.09795,2.46953-.17511,3.70255-.05566.88956.16343,2.17384-1.08271,2.19716-1.56962.02937-1.07361-1.406-1.16339-2.34777A12.053,12.053,0,0,1,121.344,131.32706Z" transform="translate(-0.559 -0.55147)"/><path class="cls-12" d="M92.43055,127.376c.13147.07131.5782.17309.77723.45176a1.31531,1.31531,0,0,1-.03164,1.70536c-2.18631,2.0949-2.36687,3.73873.85763,4.87514.68858.24267.657.94262.57654,1.57045a.85083.85083,0,0,1-.78666.7916,2.87859,2.87859,0,0,1-2.5796-1.1557,4.91282,4.91282,0,0,1-1.32016-5.56756C90.3366,128.98515,90.6145,127.6026,92.43055,127.376Z" transform="translate(-0.559 -0.55147)"/><path class="cls-13" d="M106.45726,130.28959c0-.61586-.02857-1.23342.00838-1.84706a1.00366,1.00366,0,0,1,.93006-1.04049,1.04234,1.04234,0,0,1,1.22631,1.0696,34.07359,34.07359,0,0,0,.812,7.32359,1.08212,1.08212,0,0,1-.74963,1.46718c-.93359.21064-1.3393-.45581-1.478-1.187-.36272-1.91177-.63491-3.84069-.9432-5.76279Z" transform="translate(-0.559 -0.55147)"/><path class="cls-11" d="M55.66378,50.70649c-.00141.72075-.00521,1.4415-.00373,2.16224.0032,1.57094-.85277,2.14863-2.34227,2.1966-1.4561.0469-2.98148-.10994-3.04086-1.80543-.158-4.51334-2.15677-8.87868-1.34586-13.40467.60645-3.38483,1.50685-6.844,5.192-8.4739a4.62985,4.62985,0,0,1,4.16743-.02735c3.93385,2.05034,7.65589,4.39395,10.11971,8.24887.93959,1.47009,2.01872,3.03059,1.09284,4.8323-.945,1.83893-2.84219,1.25685-4.43739,1.34921-.34356-2.91053-2.93811-4.2707-4.52609-6.28689-.71176-.90368-2.14-2.16025-3.70308-1.36624a4.49241,4.49241,0,0,0-2.378,4.06938C54.32821,45.1098,55.16445,47.88489,55.66378,50.70649Z" transform="translate(-0.559 -0.55147)"/><path class="cls-11" d="M104.72839,36.99368c-1.19014.83043-2.29177,1.66656-3.82788.4642A3.29617,3.29617,0,0,1,99.755,33.33157c1.6136-3.51433,2.85021-7.26375,5.83726-10.0305,3.51587-3.25658,7.37253-2.27271,8.61993,2.39893.94715,3.54714,1.72771,7.13928,2.553,10.71816a2.83354,2.83354,0,0,1-1.02792,3.29847c-1.72031,1.15919-3.09871.177-4.46613-.78161,2.93157-2.97378,1.51085-6.35629.65531-9.51527-.76-2.80612-3.53749-3.15225-5.40277-.86831C104.49031,31.04118,104.2593,33.95213,104.72839,36.99368Z" transform="translate(-0.559 -0.55147)"/><path class="cls-14" d="M65.477,51.24316c1.74079.21534,3.98783.45663,6.22305.77971,2.41541.34912,2.94735,2.00384,2.53935,4.08049-.3985,2.0284-1.81032,2.53335-3.7142,2.209a26.29938,26.29938,0,0,0-9.18749-.35186c-2.25522.4032-3.3899-1.08271-3.64793-3.22683C57.4243,52.528,58.8254,51.844,60.64955,51.64111,62.07952,51.482,63.51817,51.40107,65.477,51.24316Z" transform="translate(-0.559 -0.55147)"/><path class="cls-15" d="M85.99722,86.503a6.07756,6.07756,0,0,1-.32178-5.404c1.31152-2.17526,3.19529-2.02942,5.22583-1.28849,1.395,1.16488,1.41713,2.74988,1.33624,4.36647-1.72679,2.47167-1.4966,4.68793.4203,7.07778,2.152,2.683,4.16859,2.27407,6.08087.19919.8701-.9441,1.072-2.45462,2.47729-2.98006-.00494,4.05629-1.86848,5.81747-6.6636,6.36344-2.62487-1.77236-4.82357-2.06028-6.0647,1.59754-.16662.491-.87293.79895-1.32934,1.19167-1.86606-.85327-4.57629-.19108-5.32793-3.0766a4.86722,4.86722,0,0,1-.05391-1.98643c.46977.39224.77253.6201,1.04675.87826,1.23777,1.16527,2.0109,3.46463,4.36541,2.05024,1.5621-.93837,2.811-5.74977,2.11442-7.22953C88.62171,86.81514,86.99942,87.26955,85.99722,86.503Z" transform="translate(-0.559 -0.55147)"/><path class="cls-14" d="M55.66378,50.70649c-.49933-2.8216-1.33557-5.59669-1.20526-8.50588a4.49241,4.49241,0,0,1,2.378-4.06938c1.5631-.794,2.99132.46256,3.70308,1.36624,1.588,2.01619,4.18253,3.37636,4.52609,6.28689A11.47407,11.47407,0,0,1,55.66378,50.70649Z" transform="translate(-0.559 -0.55147)"/><path class="cls-14" d="M103.43985,47.91937a2.5277,2.5277,0,0,1-2.15957,2.736,22.77823,22.77823,0,0,0-7.77039,3.60217c-1.48275,1.0509-3.14435,1.40823-4.36252-.2581-1.25686-1.71926-.50232-3.04391.99911-4.4857a19.72631,19.72631,0,0,1,9.02018-4.90983C101.99383,43.88231,103.52928,45.09132,103.43985,47.91937Z" transform="translate(-0.559 -0.55147)"/><path class="cls-14" d="M104.72839,36.99368c-.46909-3.04155-.23808-5.9525,1.79529-8.44224,1.86528-2.28394,4.64278-1.93781,5.40277.86831.85554,3.159,2.27626,6.54149-.65531,9.51527C108.549,40.112,106.58871,38.72134,104.72839,36.99368Z" transform="translate(-0.559 -0.55147)"/><path class="cls-15" d="M71.87712,64.814c-.2301,1.13667-.80641,1.30264-1.6422,1.10641a63.00867,63.00867,0,0,0-10.95025-1.59625,1.339,1.339,0,0,1-1.454-1.56755c.045-.72481.47815-1.05947,1.22794-1.06a29.76372,29.76372,0,0,1,12.17323,2.35795C71.54168,64.19091,71.72143,64.623,71.87712,64.814Z" transform="translate(-0.559 -0.55147)"/><path class="cls-15" d="M99.39347,60.03658c-1.24792-.21918-1.36362-1.11628-.75762-1.7718,1.97383-2.13514,3.76708-4.53242,6.66694-5.57076.59486-.213,1.23811-.33867,1.66281.25669a.95818.95818,0,0,1-.24887,1.35059q-3.2644,2.6837-6.55669,5.33336A4.22343,4.22343,0,0,1,99.39347,60.03658Z" transform="translate(-0.559 -0.55147)"/><path class="cls-16" d="M87.15833,97.62655c.45641-.39272,1.16272-.70063,1.32934-1.19167,1.24113-3.65782,3.43983-3.3699,6.0647-1.59754-.17808.676-.37624,1.34743-.52753,2.02924-.34485,1.55405.183,3.5694-2.277,3.93984C89.1814,101.1929,87.81833,99.94137,87.15833,97.62655Z" transform="translate(-0.559 -0.55147)"/></svg>